<?xml version="1.0" encoding="UTF-8" standalone="no"?>
<!-- Created with Inkscape (http://www.inkscape.org/) -->

<svg
   version="1.1"
   id="svg2"
   width="308.71973"
   height="285.33105"
   viewBox="0 0 308.71973 285.33105"
   sodipodi:docname="REVELÔ_ELEMENTOS DE MARCA.ai"
   xmlns:inkscape="http://www.inkscape.org/namespaces/inkscape"
   xmlns:sodipodi="http://sodipodi.sourceforge.net/DTD/sodipodi-0.dtd"
   xmlns="http://www.w3.org/2000/svg"
   xmlns:svg="http://www.w3.org/2000/svg">
  <defs
     id="defs6">
    <clipPath
       clipPathUnits="userSpaceOnUse"
       id="clipPath5230">
      <path
         d="M 0,1080 H 1920 V 0 H 0 Z"
         id="path5228" />
    </clipPath>
  </defs>
  <sodipodi:namedview
     id="namedview4"
     pagecolor="#ffffff"
     bordercolor="#000000"
     borderopacity="0.25"
     inkscape:showpageshadow="2"
     inkscape:pageopacity="0.0"
     inkscape:pagecheckerboard="0"
     inkscape:deskcolor="#d1d1d1"
     showgrid="false" />
  <g
     id="g3668"
     inkscape:groupmode="layer"
     inkscape:label="Page 3"
     transform="matrix(1.3333333,0,0,-1.3333333,-1742.2402,862.66559)">
    <g
       id="g5224">
      <g
         id="g5226"
         clip-path="url(#clipPath5230)">
        <g
           id="g5496"
           transform="translate(1457.0585,525.9959)">
          <path
             d="m 0,0 -4.93,-1.82 c -0.91,-0.34 -1.81,-0.7 -2.69,-1.09 -11.63,-5.14 -20.73,-14.77 -25.17,-26.77 -0.31,-0.84 -1.07,-1.27 -1.82,-1.27 -0.75,0 -1.51,0.43 -1.82,1.27 -2.39,6.46 -6.13,12.22 -10.89,16.98 -4.75,4.75 -10.52,8.49 -16.97,10.88 l -0.26,0.09 -4.67,1.73 4.93,1.83 c 0.31,0.12 0.62,0.23 0.93,0.35 12.46,4.91 22.27,14.91 26.93,27.5 0.31,0.85 1.07,1.28 1.82,1.28 0.75,0 1.51,-0.43 1.82,-1.28 2.39,-6.45 6.13,-12.22 10.88,-16.97 4.75,-4.76 10.53,-8.49 16.98,-10.88 l 1.39,-0.52 z"
             style="fill:#ec2e31;fill-opacity:1;fill-rule:nonzero;stroke:none"
             id="path5498" />
        </g>
        <g
           id="g5500"
           transform="translate(1497.6801,548.7709)">
          <path
             d="m 0,0 c -0.9,-0.2 -1.82,-0.39 -2.76,-0.58 v -99.89 c 0,-1.35 -0.86,-2.52 -2.15,-2.92 -19.38,-6.05 -44.35,-9.38 -70.32,-9.38 -25.97,0 -50.94,3.33 -70.33,9.38 -1.28,0.4 -2.15,1.57 -2.15,2.92 v 99.89 c -1.02,0.21 -2.02,0.42 -3,0.64 v -100.53 c 0,-2.67 1.71,-4.99 4.26,-5.79 19.67,-6.13 44.96,-9.51 71.22,-9.51 26.26,0 51.55,3.38 71.22,9.51 2.54,0.8 4.25,3.12 4.25,5.79 V 0.05 C 0.16,0.04 0.08,0.02 0,0"
             style="fill:#1d1e21;fill-opacity:1;fill-rule:nonzero;stroke:none"
             id="path5502" />
        </g>
        <g
           id="g5504"
           transform="translate(1497.9203,640.9409)">
          <path
             d="m 0,0 v -92.12 c -0.08,-0.01 -0.16,-0.03 -0.24,-0.05 -0.9,-0.2 -1.82,-0.39 -2.76,-0.58 V 0 c 0,0.97 -0.44,1.87 -1.22,2.45 -0.77,0.57 -1.74,0.75 -2.66,0.48 -19.25,-5.62 -43.61,-8.72 -68.59,-8.72 -24.98,0 -49.34,3.1 -68.59,8.72 -0.28,0.08 -0.57,0.12 -0.86,0.12 -0.64,0 -1.27,-0.2 -1.81,-0.6 -0.77,-0.59 -1.22,-1.48 -1.22,-2.45 v -92.75 c -1.02,0.21 -2.02,0.42 -3,0.64 V 0 c 0,1.93 0.89,3.69 2.42,4.85 1.54,1.15 3.47,1.5 5.31,0.96 18.99,-5.54 43.05,-8.6 67.75,-8.6 24.7,0 48.76,3.06 67.75,8.6 C -5.88,6.35 -3.95,6 -2.42,4.85 -0.88,3.69 0,1.93 0,0"
             style="fill:#1d1e21;fill-opacity:1;fill-rule:nonzero;stroke:none"
             id="path5506" />
        </g>
        <g
           id="g5508"
           transform="translate(1538.2201,554.3809)">
          <path
             d="m 0,0 c 0,-12.09 -25,-19.31 -39.9,-22.54 -0.13,-0.03 -0.26,-0.06 -0.4,-0.08 -0.98,-0.22 -1.98,-0.43 -3,-0.63 -4.39,-0.89 -9.07,-1.69 -13.94,-2.41 -7.25,-1.06 -14.93,-1.92 -22.84,-2.54 -0.43,-0.04 -0.87,-0.07 -1.3,-0.1 -11.05,-0.86 -22.61,-1.3 -34.39,-1.3 -6.14,0 -12.29,0.12 -18.28,0.36 l -0.57,0.02 c -5.25,0.22 -10.47,0.52 -15.55,0.92 -0.11,0 -0.21,0.01 -0.32,0.02 l -0.57,0.04 c -0.12,0.01 -0.28,0.02 -0.44,0.04 -1.53,0.12 -3.08,0.25 -4.62,0.4 -0.18,0.01 -0.39,0.03 -0.59,0.05 -1.24,0.11 -2.5,0.24 -3.75,0.37 l -0.57,0.06 c -0.51,0.06 -1.02,0.11 -1.52,0.16 l -2.82,0.33 c -3.41,0.4 -6.73,0.84 -9.88,1.31 l -0.28,0.05 c -0.12,0.01 -0.24,0.03 -0.35,0.05 -4.47,0.68 -8.58,1.39 -12.37,2.14 -1.02,0.2 -2.03,0.41 -3,0.62 -36.02,7.62 -40.29,18.13 -40.29,22.66 0,4.54 4.27,15.05 40.29,22.66 v -3.1 C -214.36,14.49 -228.54,7.23 -228.54,0 c 0,-7.22 14.19,-14.48 37.29,-19.55 0.98,-0.22 1.98,-0.43 3,-0.64 4.05,-0.82 8.35,-1.59 12.88,-2.27 l 0.29,-0.05 c 0.1,-0.01 0.21,-0.03 0.32,-0.05 3.07,-0.46 6.36,-0.89 9.73,-1.29 l 2.79,-0.32 c 0.5,-0.05 1.02,-0.11 1.54,-0.17 l 0.56,-0.06 c 1.22,-0.12 2.48,-0.25 3.73,-0.36 0.21,-0.03 0.37,-0.04 0.54,-0.05 1.55,-0.15 3.09,-0.28 4.65,-0.4 0.15,-0.02 0.25,-0.03 0.36,-0.04 l 0.6,-0.04 c 2.25,-0.18 4.53,-0.34 6.83,-0.48 h 0.01 c 2.95,-0.18 5.93,-0.34 8.92,-0.46 l 0.57,-0.02 c 5.95,-0.23 12.06,-0.35 18.16,-0.35 9.43,0 18.71,0.28 27.7,0.84 2.61,0.16 5.19,0.34 7.75,0.55 7.84,0.62 15.46,1.47 22.65,2.52 5.04,0.75 9.86,1.58 14.37,2.5 0.94,0.19 1.86,0.38 2.76,0.58 0.08,0.02 0.16,0.04 0.24,0.05 23.37,5.1 37.3,12.4 37.3,19.56 0,7.18 -13.93,14.48 -37.3,19.57 v 3.19 C -25.37,19.5 0,12.05 0,0"
             style="fill:#ec2e31;fill-opacity:1;fill-rule:nonzero;stroke:none"
             id="path5510" />
        </g>
      </g>
    </g>
  </g>
</svg>
