<?xml version="1.0" encoding="UTF-8" standalone="no"?>
<!-- Created with Inkscape (http://www.inkscape.org/) -->

<svg
   version="1.1"
   id="svg2"
   width="382.09863"
   height="382.09863"
   viewBox="0 0 382.09863 382.09863"
   sodipodi:docname="REVELÔ_ELEMENTOS DE MARCA.ai"
   xmlns:inkscape="http://www.inkscape.org/namespaces/inkscape"
   xmlns:sodipodi="http://sodipodi.sourceforge.net/DTD/sodipodi-0.dtd"
   xmlns="http://www.w3.org/2000/svg"
   xmlns:svg="http://www.w3.org/2000/svg">
  <defs
     id="defs6">
    <clipPath
       clipPathUnits="userSpaceOnUse"
       id="clipPath5230">
      <path
         d="M 0,1080 H 1920 V 0 H 0 Z"
         id="path5228" />
    </clipPath>
  </defs>
  <sodipodi:namedview
     id="namedview4"
     pagecolor="#ffffff"
     bordercolor="#000000"
     borderopacity="0.25"
     inkscape:showpageshadow="2"
     inkscape:pageopacity="0.0"
     inkscape:pagecheckerboard="0"
     inkscape:deskcolor="#d1d1d1"
     showgrid="false" />
  <g
     id="g3668"
     inkscape:groupmode="layer"
     inkscape:label="Page 3"
     transform="matrix(1.3333333,0,0,-1.3333333,-1079.5371,911.04944)">
    <g
       id="g5224">
      <g
         id="g5226"
         clip-path="url(#clipPath5230)">
        <g
           id="g69052">
          <g
             id="g5460"
             transform="translate(1001.6219,536.6118)">
            <path
               d="m 0,0 -12.71,-4.702 c -1.477,-0.548 -2.925,-1.157 -4.334,-1.832 -0.432,-0.205 -0.858,-0.417 -1.284,-0.635 -11.509,-5.884 -20.478,-15.907 -25.017,-28.168 l -4.651,-12.566 -0.689,-1.861 -0.579,1.566 -4.757,12.861 c -5.253,14.193 -16.445,25.385 -30.638,30.635 L -97.366,0 c -0.349,0.128 -0.493,0.477 -0.423,0.785 0.042,0.208 0.183,0.397 0.423,0.487 l 1.861,0.688 10.846,4.014 c 12.514,4.632 22.697,13.882 28.53,25.734 0.208,0.426 0.413,0.855 0.612,1.288 0.541,1.182 1.041,2.389 1.496,3.616 l 4.757,12.864 0.579,1.563 0.689,-1.861 4.651,-12.566 c 0.455,-1.227 0.955,-2.434 1.496,-3.616 0.198,-0.433 0.404,-0.862 0.612,-1.288 4.933,-10.023 12.976,-18.184 22.909,-23.268 0.426,-0.218 0.852,-0.429 1.284,-0.634 1.409,-0.673 2.857,-1.284 4.334,-1.832 L -1.861,1.96 0,1.272 C 0.24,1.182 0.381,0.993 0.423,0.785 0.493,0.477 0.349,0.128 0,0"
               style="fill:#eb2e32;fill-opacity:1;fill-rule:nonzero;stroke:none"
               id="path5462" />
          </g>
          <g
             id="g5464"
             transform="translate(982.6192,658.2318)">
            <path
               d="m 0,0 c -0.056,-0.775 -0.732,-1.351 -1.507,-1.294 l -2.695,0.2 c -0.776,0.062 -1.357,0.738 -1.301,1.507 l 0.313,4.133 c 0.056,0.769 0.732,1.35 1.507,1.294 l 2.695,-0.2 C -0.213,5.578 0.369,4.902 0.313,4.127 Z m -15.77,-0.206 -2.701,-0.113 c -0.775,-0.031 -1.432,0.569 -1.463,1.345 l -0.175,4.139 c -0.032,0.775 0.569,1.432 1.344,1.463 l 2.701,0.113 c 0.776,0.031 1.432,-0.569 1.464,-1.345 l 0.175,-4.133 c 0.037,-0.781 -0.57,-1.432 -1.345,-1.469 m -14.063,-0.576 -2.67,-0.425 c -0.468,-0.075 -0.919,0.088 -1.225,0.407 -0.2,0.2 -0.338,0.456 -0.388,0.756 l -0.65,4.09 c -0.025,0.181 -0.019,0.362 0.019,0.525 0.119,0.55 0.562,0.994 1.15,1.082 l 2.67,0.431 c 0.769,0.119 1.489,-0.4 1.607,-1.169 l 0.657,-4.09 c 0.119,-0.762 -0.4,-1.488 -1.17,-1.607 m -13.743,-2.176 -2.608,-0.731 c -0.744,-0.207 -1.519,0.231 -1.732,0.975 l -1.113,3.99 c -0.212,0.744 0.225,1.519 0.976,1.732 l 2.601,0.725 c 0.75,0.213 1.526,-0.225 1.738,-0.975 l 1.113,-3.984 c 0.207,-0.75 -0.225,-1.525 -0.975,-1.732 m 7.81,12.106 C -36.592,9.035 -37.423,8.91 -38.249,8.779 -42.807,8.06 -47.303,7.103 -51.73,5.915 c -0.906,-4.152 -1.844,-9.342 -2.77,-15.826 6.165,2.032 12.518,3.564 19.002,4.559 0.826,0.131 1.651,0.243 2.477,0.356 14.131,1.863 28.825,1.176 43.476,-2.439 l 0.887,3.602 -1.156,0.225 c -0.763,0.15 -1.263,0.894 -1.113,1.651 l 0.794,4.064 c 0.15,0.763 0.888,1.257 1.651,1.113 L 13.012,2.926 13.9,6.528 c -16.745,4.127 -33.54,4.852 -49.666,2.62 m 68.562,-167.933 -1.213,-2.42 c -0.35,-0.693 -1.194,-0.975 -1.888,-0.631 l -3.702,1.857 c -0.694,0.344 -0.975,1.188 -0.625,1.888 l 1.207,2.414 c 0.349,0.694 1.194,0.976 1.888,0.632 l 3.702,-1.857 c 0.694,-0.344 0.975,-1.189 0.631,-1.883 m -7.985,-12.881 -1.707,-2.1 c -0.487,-0.607 -1.375,-0.695 -1.976,-0.207 l -3.214,2.608 c -0.6,0.494 -0.694,1.375 -0.206,1.982 l 1.707,2.094 c 0.488,0.607 1.376,0.695 1.976,0.207 l 3.214,-2.608 c 0.606,-0.487 0.694,-1.375 0.206,-1.976 m -10.386,-10.692 -2.113,-1.694 c -0.601,-0.488 -1.489,-0.388 -1.976,0.218 l -2.589,3.227 c -0.487,0.606 -0.388,1.494 0.219,1.976 l 2.107,1.694 c 0.607,0.488 1.495,0.388 1.982,-0.219 l 2.589,-3.226 c 0.482,-0.606 0.388,-1.494 -0.219,-1.976 m -12.337,-8.216 -2.42,-1.213 c -0.694,-0.35 -1.538,-0.069 -1.888,0.625 l -1.857,3.696 c -0.344,0.694 -0.069,1.538 0.625,1.888 l 2.42,1.213 c 0.694,0.35 1.538,0.069 1.888,-0.625 l 1.858,-3.696 c 0.35,-0.694 0.068,-1.538 -0.626,-1.888 m -13.837,-5.459 -2.62,-0.681 c -0.75,-0.194 -1.513,0.256 -1.713,1.013 l -1.038,4.001 c -0.194,0.757 0.262,1.52 1.013,1.72 l 2.619,0.675 c 0.751,0.194 1.514,-0.256 1.714,-1.006 l 1.038,-4.009 c 0.194,-0.75 -0.263,-1.519 -1.013,-1.713 m -14.882,-2.42 -2.601,-0.093 -0.1,-0.007 c -0.776,-0.025 -1.432,0.582 -1.457,1.357 l -0.156,4.133 c -0.025,0.776 0.581,1.432 1.356,1.457 l 0.901,0.032 1.801,0.068 c 0.775,0.032 1.431,-0.575 1.456,-1.35 l 0.151,-4.14 c 0.031,-0.775 -0.576,-1.425 -1.351,-1.457 m 64.217,53.125 -0.319,-1.314 c -0.188,-0.756 -0.951,-1.213 -1.707,-1.031 l -4.015,0.994 c -0.756,0.187 -1.219,0.944 -1.031,1.701 l 0.325,1.313 -3.608,0.888 c -6.497,-26.337 -29.782,-44.22 -55.657,-45.058 -0.831,-0.025 -1.669,-0.032 -2.507,-0.025 -0.344,-4.959 -0.719,-9.755 -1.126,-14.369 0.838,-0.019 1.676,-0.025 2.508,-0.013 32.79,0.344 62.541,22.754 70.745,56.026 z m -147.073,27.862 c -0.044,-0.838 -0.075,-1.669 -0.088,-2.501 1.294,-0.106 2.607,-0.206 3.933,-0.313 0.244,0.344 0.644,0.576 1.107,0.588 l 4.139,0.094 c 0.7,0.019 1.295,-0.488 1.413,-1.157 1.251,-0.087 2.508,-0.169 3.777,-0.244 0.007,0.832 0.025,1.663 0.069,2.495 -4.933,0.313 -9.723,0.663 -14.35,1.038 m 142.283,-41.319 -1.213,-2.42 c -0.35,-0.693 -1.194,-0.975 -1.888,-0.631 l -3.702,1.857 c -0.694,0.344 -0.975,1.188 -0.625,1.888 l 1.207,2.414 c 0.349,0.694 1.194,0.976 1.888,0.632 l 3.702,-1.857 c 0.694,-0.344 0.975,-1.189 0.631,-1.883 m -7.985,-12.881 -1.707,-2.1 c -0.487,-0.607 -1.375,-0.695 -1.976,-0.207 l -3.214,2.608 c -0.6,0.494 -0.694,1.375 -0.206,1.982 l 1.707,2.094 c 0.488,0.607 1.376,0.695 1.976,0.207 l 3.214,-2.608 c 0.606,-0.487 0.694,-1.375 0.206,-1.976 m -10.386,-10.692 -2.113,-1.694 c -0.601,-0.488 -1.489,-0.388 -1.976,0.218 l -2.589,3.227 c -0.487,0.606 -0.388,1.494 0.219,1.976 l 2.107,1.694 c 0.607,0.488 1.495,0.388 1.982,-0.219 l 2.589,-3.226 c 0.482,-0.606 0.388,-1.494 -0.219,-1.976 m -12.337,-8.216 -2.42,-1.213 c -0.694,-0.35 -1.538,-0.069 -1.888,0.625 l -1.857,3.696 c -0.344,0.694 -0.069,1.538 0.625,1.888 l 2.42,1.213 c 0.694,0.35 1.538,0.069 1.888,-0.625 l 1.858,-3.696 c 0.35,-0.694 0.068,-1.538 -0.626,-1.888 m -13.837,-5.459 -2.62,-0.681 c -0.75,-0.194 -1.513,0.256 -1.713,1.013 l -1.038,4.001 c -0.194,0.757 0.262,1.52 1.013,1.72 l 2.619,0.675 c 0.751,0.194 1.514,-0.256 1.714,-1.006 l 1.038,-4.009 c 0.194,-0.75 -0.263,-1.519 -1.013,-1.713 m -14.882,-2.42 -2.601,-0.093 -0.1,-0.007 c -0.776,-0.025 -1.432,0.582 -1.457,1.357 l -0.156,4.133 c -0.025,0.776 0.581,1.432 1.356,1.457 l 0.901,0.032 1.801,0.068 c 0.775,0.032 1.431,-0.575 1.456,-1.35 l 0.151,-4.14 c 0.031,-0.775 -0.576,-1.425 -1.351,-1.457 m 64.217,53.125 -0.319,-1.314 c -0.188,-0.756 -0.951,-1.213 -1.707,-1.031 l -4.015,0.994 c -0.756,0.187 -1.219,0.944 -1.031,1.701 l 0.325,1.313 -3.608,0.888 c -6.497,-26.337 -29.782,-44.22 -55.657,-45.058 -0.831,-0.025 -1.669,-0.032 -2.507,-0.025 -0.344,-4.959 -0.719,-9.755 -1.126,-14.369 0.838,-0.019 1.676,-0.025 2.508,-0.013 32.79,0.344 62.541,22.754 70.745,56.026 z m -4.79,-13.457 -1.213,-2.42 c -0.35,-0.693 -1.194,-0.975 -1.888,-0.631 l -3.702,1.857 c -0.694,0.344 -0.975,1.188 -0.625,1.888 l 1.207,2.414 c 0.349,0.694 1.194,0.976 1.888,0.632 l 3.702,-1.857 c 0.694,-0.344 0.975,-1.189 0.631,-1.883 m -7.985,-12.881 -1.707,-2.1 c -0.487,-0.607 -1.375,-0.695 -1.976,-0.207 l -3.214,2.608 c -0.6,0.494 -0.694,1.375 -0.206,1.982 l 1.707,2.094 c 0.488,0.607 1.376,0.695 1.976,0.207 l 3.214,-2.608 c 0.606,-0.487 0.694,-1.375 0.206,-1.976 m -10.386,-10.692 -2.113,-1.694 c -0.601,-0.488 -1.489,-0.388 -1.976,0.218 l -2.589,3.227 c -0.487,0.606 -0.388,1.494 0.219,1.976 l 2.107,1.694 c 0.607,0.488 1.495,0.388 1.982,-0.219 l 2.589,-3.226 c 0.482,-0.606 0.388,-1.494 -0.219,-1.976 m -12.337,-8.216 -2.42,-1.213 c -0.694,-0.35 -1.538,-0.069 -1.888,0.625 l -1.857,3.696 c -0.344,0.694 -0.069,1.538 0.625,1.888 l 2.42,1.213 c 0.694,0.35 1.538,0.069 1.888,-0.625 l 1.858,-3.696 c 0.35,-0.694 0.068,-1.538 -0.626,-1.888 m -13.837,-5.459 -2.62,-0.681 c -0.75,-0.194 -1.513,0.256 -1.713,1.013 l -1.038,4.001 c -0.194,0.757 0.262,1.52 1.013,1.72 l 2.619,0.675 c 0.751,0.194 1.514,-0.256 1.714,-1.006 l 1.038,-4.009 c 0.194,-0.75 -0.263,-1.519 -1.013,-1.713 m -14.882,-2.42 -2.601,-0.093 -0.1,-0.007 c -0.776,-0.025 -1.432,0.582 -1.457,1.357 l -0.156,4.133 c -0.025,0.776 0.581,1.432 1.356,1.457 l 0.901,0.032 1.801,0.068 c 0.775,0.032 1.431,-0.575 1.456,-1.35 l 0.151,-4.14 c 0.031,-0.775 -0.576,-1.425 -1.351,-1.457 m 64.217,53.125 -0.319,-1.314 c -0.188,-0.756 -0.951,-1.213 -1.707,-1.031 l -4.015,0.994 c -0.756,0.187 -1.219,0.944 -1.031,1.701 l 0.325,1.313 -3.608,0.888 c -6.497,-26.337 -29.782,-44.22 -55.657,-45.058 -0.831,-0.025 -1.669,-0.032 -2.507,-0.025 -0.344,-4.959 -0.719,-9.755 -1.126,-14.369 0.838,-0.019 1.676,-0.025 2.508,-0.013 32.79,0.344 62.541,22.754 70.745,56.026 z m -4.79,-13.457 -1.213,-2.42 c -0.35,-0.693 -1.194,-0.975 -1.888,-0.631 l -3.702,1.857 c -0.694,0.344 -0.975,1.188 -0.625,1.888 l 1.207,2.414 c 0.349,0.694 1.194,0.976 1.888,0.632 l 3.702,-1.857 c 0.694,-0.344 0.975,-1.189 0.631,-1.883 m -7.985,-12.881 -1.707,-2.1 c -0.487,-0.607 -1.375,-0.695 -1.976,-0.207 l -3.214,2.608 c -0.6,0.494 -0.694,1.375 -0.206,1.982 l 1.707,2.094 c 0.488,0.607 1.376,0.695 1.976,0.207 l 3.214,-2.608 c 0.606,-0.487 0.694,-1.375 0.206,-1.976 m -10.386,-10.692 -2.113,-1.694 c -0.601,-0.488 -1.489,-0.388 -1.976,0.218 l -2.589,3.227 c -0.487,0.606 -0.388,1.494 0.219,1.976 l 2.107,1.694 c 0.607,0.488 1.495,0.388 1.982,-0.219 l 2.589,-3.226 c 0.482,-0.606 0.388,-1.494 -0.219,-1.976 m -12.337,-8.216 -2.42,-1.213 c -0.694,-0.35 -1.538,-0.069 -1.888,0.625 l -1.857,3.696 c -0.344,0.694 -0.069,1.538 0.625,1.888 l 2.42,1.213 c 0.694,0.35 1.538,0.069 1.888,-0.625 l 1.858,-3.696 c 0.35,-0.694 0.068,-1.538 -0.626,-1.888 m -13.837,-5.459 -2.62,-0.681 c -0.75,-0.194 -1.513,0.256 -1.713,1.013 l -1.038,4.001 c -0.194,0.757 0.262,1.52 1.013,1.72 l 2.619,0.675 c 0.751,0.194 1.514,-0.256 1.714,-1.006 l 1.038,-4.009 c 0.194,-0.75 -0.263,-1.519 -1.013,-1.713 m -14.882,-2.42 -2.601,-0.093 -0.1,-0.007 c -0.776,-0.025 -1.432,0.582 -1.457,1.357 l -0.156,4.133 c -0.025,0.776 0.581,1.432 1.356,1.457 l 0.901,0.032 1.801,0.068 c 0.775,0.032 1.431,-0.575 1.456,-1.35 l 0.151,-4.14 c 0.031,-0.775 -0.576,-1.425 -1.351,-1.457 m 64.217,53.125 -0.319,-1.314 c -0.188,-0.756 -0.951,-1.213 -1.707,-1.031 l -4.015,0.994 c -0.756,0.187 -1.219,0.944 -1.031,1.701 l 0.325,1.313 -3.608,0.888 c -6.497,-26.337 -29.782,-44.22 -55.657,-45.058 -0.831,-0.025 -1.669,-0.032 -2.507,-0.025 -0.344,-4.959 -0.719,-9.755 -1.126,-14.369 0.838,-0.019 1.676,-0.025 2.508,-0.013 32.79,0.344 62.541,22.754 70.745,56.026 z m -4.79,-13.457 -1.213,-2.42 c -0.35,-0.693 -1.194,-0.975 -1.888,-0.631 l -3.702,1.857 c -0.694,0.344 -0.975,1.188 -0.625,1.888 l 1.207,2.414 c 0.349,0.694 1.194,0.976 1.888,0.632 l 3.702,-1.857 c 0.694,-0.344 0.975,-1.189 0.631,-1.883 m -7.985,-12.881 -1.707,-2.1 c -0.487,-0.607 -1.375,-0.695 -1.976,-0.207 l -3.214,2.608 c -0.6,0.494 -0.694,1.375 -0.206,1.982 l 1.707,2.094 c 0.488,0.607 1.376,0.695 1.976,0.207 l 3.214,-2.608 c 0.606,-0.487 0.694,-1.375 0.206,-1.976 m -10.386,-10.692 -2.113,-1.694 c -0.601,-0.488 -1.489,-0.388 -1.976,0.218 l -2.589,3.227 c -0.487,0.606 -0.388,1.494 0.219,1.976 l 2.107,1.694 c 0.607,0.488 1.495,0.388 1.982,-0.219 l 2.589,-3.226 c 0.482,-0.606 0.388,-1.494 -0.219,-1.976 m -12.337,-8.216 -2.42,-1.213 c -0.694,-0.35 -1.538,-0.069 -1.888,0.625 l -1.857,3.696 c -0.344,0.694 -0.069,1.538 0.625,1.888 l 2.42,1.213 c 0.694,0.35 1.538,0.069 1.888,-0.625 l 1.858,-3.696 c 0.35,-0.694 0.068,-1.538 -0.626,-1.888 m -13.837,-5.459 -2.62,-0.681 c -0.75,-0.194 -1.513,0.256 -1.713,1.013 l -1.038,4.001 c -0.194,0.757 0.262,1.52 1.013,1.72 l 2.619,0.675 c 0.751,0.194 1.514,-0.256 1.714,-1.006 l 1.038,-4.009 c 0.194,-0.75 -0.263,-1.519 -1.013,-1.713 m 49.335,50.705 -0.319,-1.314 c -0.188,-0.756 -0.951,-1.213 -1.707,-1.031 l -4.015,0.994 c -0.756,0.187 -1.219,0.944 -1.031,1.701 l 0.325,1.313 -3.608,0.888 c -6.497,-26.337 -29.782,-44.22 -55.657,-45.058 -0.087,-1.257 -0.175,-2.501 -0.262,-3.739 l 1.801,0.068 c 0.775,0.032 1.431,-0.575 1.456,-1.35 l 0.151,-4.14 c 0.031,-0.775 -0.576,-1.425 -1.351,-1.457 l -2.601,-0.093 c -0.107,-1.245 -0.213,-2.477 -0.319,-3.696 32.79,0.344 62.541,22.754 70.745,56.026 z m -19.672,-26.037 c -0.6,0.494 -0.694,1.375 -0.206,1.982 l 1.707,2.094 c 0.488,0.607 1.376,0.695 1.976,0.207 l 3.214,-2.608 c 0.606,-0.487 0.694,-1.375 0.206,-1.976 l -1.707,-2.1 c -0.487,-0.607 -1.375,-0.695 -1.976,-0.207 z m -3.489,-10.993 -2.113,-1.694 c -0.601,-0.488 -1.489,-0.388 -1.976,0.218 l -2.589,3.227 c -0.487,0.606 -0.388,1.494 0.219,1.976 l 2.107,1.694 c 0.607,0.488 1.495,0.388 1.982,-0.219 l 2.589,-3.226 c 0.482,-0.606 0.388,-1.494 -0.219,-1.976 m -12.337,-8.216 -2.42,-1.213 c -0.694,-0.35 -1.538,-0.069 -1.888,0.625 l -1.857,3.696 c -0.344,0.694 -0.069,1.538 0.625,1.888 l 2.42,1.213 c 0.694,0.35 1.538,0.069 1.888,-0.625 l 1.858,-3.696 c 0.35,-0.694 0.068,-1.538 -0.626,-1.888 m -13.837,-5.459 -2.62,-0.681 c -0.75,-0.194 -1.513,0.256 -1.713,1.013 l -1.038,4.001 c -0.194,0.757 0.262,1.52 1.013,1.72 l 2.619,0.675 c 0.751,0.194 1.514,-0.256 1.714,-1.006 l 1.038,-4.009 c 0.194,-0.75 -0.263,-1.519 -1.013,-1.713 m 37.117,37.942 1.207,2.414 c 0.349,0.694 1.194,0.976 1.888,0.632 l 3.702,-1.857 c 0.694,-0.344 0.975,-1.189 0.631,-1.883 l -1.213,-2.42 c -0.35,-0.693 -1.194,-0.975 -1.888,-0.631 l -3.702,1.857 c -0.694,0.344 -0.975,1.188 -0.625,1.888 m 15.826,11.875 -3.608,0.888 -0.319,-1.314 c -0.188,-0.756 -0.951,-1.213 -1.707,-1.031 l -4.015,0.994 c -0.756,0.187 -1.219,0.944 -1.031,1.701 l 0.325,1.313 -3.608,0.888 c -6.497,-26.337 -29.782,-44.22 -55.657,-45.058 -0.087,-1.257 -0.175,-2.501 -0.262,-3.739 l 1.801,0.068 c 0.775,0.032 1.431,-0.575 1.456,-1.35 l 0.151,-4.14 c 0.031,-0.775 -0.576,-1.425 -1.351,-1.457 l -2.601,-0.093 c -0.107,-1.245 -0.213,-2.477 -0.319,-3.696 32.79,0.344 62.541,22.754 70.745,56.026 m 30.495,7.184 c -0.032,-0.775 -0.682,-1.382 -1.457,-1.357 l -4.14,0.157 c -0.775,0.025 -1.381,0.681 -1.35,1.456 l 0.1,2.702 c 0.031,0.775 0.681,1.382 1.457,1.35 l 4.133,-0.15 c 0.775,-0.031 1.382,-0.681 1.357,-1.457 z m -1.845,-12.631 -0.538,-2.651 c -0.156,-0.763 -0.894,-1.25 -1.657,-1.1 l -4.058,0.819 c -0.756,0.156 -1.25,0.894 -1.094,1.657 l 0.532,2.651 c 0.156,0.757 0.894,1.25 1.656,1.101 l 4.059,-0.82 c 0.756,-0.156 1.25,-0.894 1.1,-1.657 m -4.352,-14.913 -0.919,-2.545 c -0.263,-0.731 -1.069,-1.106 -1.801,-0.844 l -3.889,1.413 c -0.732,0.263 -1.107,1.07 -0.844,1.795 l 0.919,2.545 c 0.263,0.732 1.069,1.107 1.801,0.844 l 3.889,-1.407 c 0.731,-0.262 1.113,-1.069 0.844,-1.801 m -6.309,-13.768 -1.282,-2.383 c -0.363,-0.681 -1.219,-0.938 -1.901,-0.575 l -3.645,1.957 c -0.688,0.363 -0.944,1.219 -0.575,1.901 l 1.275,2.382 c 0.369,0.688 1.22,0.945 1.901,0.576 l 3.652,-1.951 c 0.681,-0.369 0.937,-1.22 0.575,-1.907 m -8.085,-12.487 -1.601,-2.176 c -0.462,-0.626 -1.344,-0.763 -1.969,-0.301 l -3.333,2.452 c -0.625,0.462 -0.757,1.338 -0.3,1.963 l 1.607,2.182 c 0.456,0.626 1.338,0.757 1.963,0.294 l 3.333,-2.451 c 0.625,-0.456 0.763,-1.338 0.3,-1.963 m -9.661,-11.093 -1.888,-1.932 c -0.544,-0.556 -1.432,-0.563 -1.988,-0.019 l -2.958,2.895 c -0.556,0.538 -0.563,1.432 -0.025,1.989 l 1.895,1.932 c 0.544,0.55 1.432,0.563 1.988,0.019 l 2.958,-2.895 c 0.556,-0.545 0.562,-1.432 0.018,-1.989 m 28.92,78.404 -4.108,-0.506 c -0.769,-0.094 -1.476,0.45 -1.57,1.226 l -0.331,2.682 c -0.094,0.769 0.456,1.47 1.225,1.563 l 4.109,0.513 c 0.769,0.094 1.469,-0.456 1.563,-1.226 l 0.331,-2.682 c 0.094,-0.769 -0.45,-1.476 -1.219,-1.57 m -39.956,-87.971 -2.144,-1.657 c -0.613,-0.475 -1.495,-0.356 -1.97,0.257 l -2.533,3.276 c -0.469,0.613 -0.356,1.495 0.257,1.97 l 2.138,1.651 c 0.619,0.475 1.501,0.362 1.976,-0.251 l 2.526,-3.276 c 0.476,-0.613 0.363,-1.495 -0.25,-1.97 m -12.23,-7.935 -2.345,-1.344 c -0.676,-0.381 -1.538,-0.15 -1.92,0.525 l -2.057,3.589 c -0.388,0.676 -0.15,1.532 0.519,1.92 l 2.351,1.344 c 0.675,0.382 1.532,0.15 1.92,-0.525 l 2.051,-3.589 c 0.387,-0.675 0.156,-1.532 -0.519,-1.92 m -13.225,-6.171 -2.514,-1.007 c -0.719,-0.294 -1.538,0.056 -1.826,0.782 l -1.538,3.839 c -0.294,0.719 0.056,1.538 0.776,1.826 l 2.513,1.007 c 0.719,0.287 1.538,-0.063 1.826,-0.782 l 1.544,-3.839 c 0.288,-0.719 -0.062,-1.539 -0.781,-1.826 m -14.032,-4.302 -2.626,-0.644 c -0.756,-0.188 -1.519,0.275 -1.7,1.025 l -0.995,4.021 c -0.187,0.75 0.276,1.513 1.032,1.701 l 2.62,0.644 c 0.757,0.187 1.519,-0.275 1.707,-1.026 l 0.988,-4.02 c 0.188,-0.751 -0.275,-1.514 -1.026,-1.701 m -14.644,-2.301 -2.695,-0.269 c -0.769,-0.075 -1.457,0.488 -1.538,1.257 l -0.413,4.12 c -0.074,0.77 0.488,1.464 1.257,1.539 l 2.695,0.268 c 0.769,0.075 1.457,-0.487 1.539,-1.256 l 0.412,-4.121 c 0.075,-0.769 -0.488,-1.457 -1.257,-1.538 m 98.201,116.753 c -0.125,0.825 -0.262,1.651 -0.412,2.47 -1.12,-0.144 -2.27,-0.288 -3.452,-0.432 -3.483,-0.419 -7.11,-0.819 -10.874,-1.188 0.163,-0.819 0.306,-1.644 0.438,-2.47 1.726,-10.767 1.369,-22.041 -1.401,-33.271 -10.511,-42.613 -48.684,-71.282 -90.697,-71.582 -0.832,-0.007 -1.676,0 -2.52,0.018 -0.757,-5.627 -1.526,-10.354 -2.282,-14.325 0.837,-0.031 1.682,-0.056 2.519,-0.069 49.367,-0.738 94.631,32.578 106.943,82.513 3.189,12.937 3.652,25.918 1.738,38.336 m -41.675,-41.338 -1.213,-2.42 c -0.35,-0.693 -1.194,-0.975 -1.888,-0.631 l -3.702,1.857 c -0.694,0.344 -0.975,1.188 -0.625,1.888 l 1.207,2.414 c 0.349,0.694 1.194,0.976 1.888,0.632 l 3.702,-1.857 c 0.694,-0.344 0.975,-1.189 0.631,-1.883 m -7.985,-12.881 -1.707,-2.1 c -0.487,-0.607 -1.375,-0.695 -1.976,-0.207 l -3.214,2.608 c -0.6,0.494 -0.694,1.375 -0.206,1.982 l 1.707,2.094 c 0.488,0.607 1.376,0.695 1.976,0.207 l 3.214,-2.608 c 0.606,-0.487 0.694,-1.375 0.206,-1.976 m -10.386,-10.692 -2.113,-1.694 c -0.601,-0.488 -1.489,-0.388 -1.976,0.218 l -2.589,3.227 c -0.487,0.606 -0.388,1.494 0.219,1.976 l 2.107,1.694 c 0.607,0.488 1.495,0.388 1.982,-0.219 l 2.589,-3.226 c 0.482,-0.606 0.388,-1.494 -0.219,-1.976 m -12.337,-8.216 -2.42,-1.213 c -0.694,-0.35 -1.538,-0.069 -1.888,0.625 l -1.857,3.696 c -0.344,0.694 -0.069,1.538 0.625,1.888 l 2.42,1.213 c 0.694,0.35 1.538,0.069 1.888,-0.625 l 1.858,-3.696 c 0.35,-0.694 0.068,-1.538 -0.626,-1.888 m -13.837,-5.459 -2.62,-0.681 c -0.75,-0.194 -1.513,0.256 -1.713,1.013 l -1.038,4.001 c -0.194,0.757 0.262,1.52 1.013,1.72 l 2.619,0.675 c 0.751,0.194 1.514,-0.256 1.714,-1.006 l 1.038,-4.009 c 0.194,-0.75 -0.263,-1.519 -1.013,-1.713 m 49.335,50.705 -0.319,-1.314 c -0.188,-0.756 -0.951,-1.213 -1.707,-1.031 l -4.015,0.994 c -0.756,0.187 -1.219,0.944 -1.031,1.701 l 0.325,1.313 -3.608,0.888 c -6.497,-26.337 -29.782,-44.22 -55.657,-45.058 -0.087,-1.257 -0.175,-2.501 -0.262,-3.739 l 1.801,0.068 c 0.775,0.032 1.431,-0.575 1.456,-1.35 l 0.151,-4.14 c 0.031,-0.775 -0.576,-1.425 -1.351,-1.457 l -2.601,-0.093 c -0.107,-1.245 -0.213,-2.477 -0.319,-3.696 32.79,0.344 62.541,22.754 70.745,56.026 z M -29.52,-34.584 c -0.831,-0.082 -1.663,-0.182 -2.489,-0.288 0.113,-1.238 0.219,-2.495 0.32,-3.758 0.537,-0.119 0.962,-0.556 1.062,-1.126 l 0.688,-4.083 c 0.132,-0.763 -0.381,-1.488 -1.15,-1.619 l -0.069,-0.013 c 0.094,-1.25 0.181,-2.501 0.269,-3.77 0.825,0.119 1.651,0.225 2.482,0.313 -0.331,4.939 -0.706,9.729 -1.113,14.344 m 62.316,-124.201 -1.213,-2.42 c -0.35,-0.693 -1.194,-0.975 -1.888,-0.631 l -3.702,1.857 c -0.694,0.344 -0.975,1.188 -0.625,1.888 l 1.207,2.414 c 0.349,0.694 1.194,0.976 1.888,0.632 l 3.702,-1.857 c 0.694,-0.344 0.975,-1.189 0.631,-1.883 m -7.985,-12.881 -1.707,-2.1 c -0.487,-0.607 -1.375,-0.695 -1.976,-0.207 l -3.214,2.608 c -0.6,0.494 -0.694,1.375 -0.206,1.982 l 1.707,2.094 c 0.488,0.607 1.376,0.695 1.976,0.207 l 3.214,-2.608 c 0.606,-0.487 0.694,-1.375 0.206,-1.976 m -10.386,-10.692 -2.113,-1.694 c -0.601,-0.488 -1.489,-0.388 -1.976,0.218 l -2.589,3.227 c -0.487,0.606 -0.388,1.494 0.219,1.976 l 2.107,1.694 c 0.607,0.488 1.495,0.388 1.982,-0.219 l 2.589,-3.226 c 0.482,-0.606 0.388,-1.494 -0.219,-1.976 m -12.337,-8.216 -2.42,-1.213 c -0.694,-0.35 -1.538,-0.069 -1.888,0.625 l -1.857,3.696 c -0.344,0.694 -0.069,1.538 0.625,1.888 l 2.42,1.213 c 0.694,0.35 1.538,0.069 1.888,-0.625 l 1.858,-3.696 c 0.35,-0.694 0.068,-1.538 -0.626,-1.888 m -13.837,-5.459 -2.62,-0.681 c -0.75,-0.194 -1.513,0.256 -1.713,1.013 l -1.038,4.001 c -0.194,0.757 0.262,1.52 1.013,1.72 l 2.619,0.675 c 0.751,0.194 1.514,-0.256 1.714,-1.006 l 1.038,-4.009 c 0.194,-0.75 -0.263,-1.519 -1.013,-1.713 m -14.882,-2.42 -2.601,-0.093 -0.1,-0.007 c -0.776,-0.025 -1.432,0.582 -1.457,1.357 l -0.156,4.133 c -0.025,0.776 0.581,1.432 1.356,1.457 l 0.901,0.032 1.801,0.068 c 0.775,0.032 1.431,-0.575 1.456,-1.35 l 0.151,-4.14 c 0.031,-0.775 -0.576,-1.425 -1.351,-1.457 m 64.217,53.125 -0.319,-1.314 c -0.188,-0.756 -0.951,-1.213 -1.707,-1.031 l -4.015,0.994 c -0.756,0.187 -1.219,0.944 -1.031,1.701 l 0.325,1.313 -3.608,0.888 c -6.497,-26.337 -29.782,-44.22 -55.657,-45.058 -0.831,-0.025 -1.669,-0.032 -2.507,-0.025 -0.344,-4.959 -0.719,-9.755 -1.126,-14.369 0.838,-0.019 1.676,-0.025 2.508,-0.013 32.79,0.344 62.541,22.754 70.745,56.026 z m -176.487,31.101 c -0.162,-0.6 -0.725,-1.038 -1.375,-1.019 l -4.14,0.081 c -0.775,0.019 -1.394,0.657 -1.375,1.432 l 0.012,0.594 c -1.3,0.225 -2.532,0.444 -3.701,0.669 -0.051,-0.838 -0.082,-1.682 -0.107,-2.52 4.233,-0.8 9.017,-1.557 14.325,-2.263 0.013,0.838 0.038,1.676 0.069,2.513 -1.282,0.169 -2.52,0.344 -3.708,0.513 m 171.697,-44.558 -1.213,-2.42 c -0.35,-0.693 -1.194,-0.975 -1.888,-0.631 l -3.702,1.857 c -0.694,0.344 -0.975,1.188 -0.625,1.888 l 1.207,2.414 c 0.349,0.694 1.194,0.976 1.888,0.632 l 3.702,-1.857 c 0.694,-0.344 0.975,-1.189 0.631,-1.883 m -7.985,-12.881 -1.707,-2.1 c -0.487,-0.607 -1.375,-0.695 -1.976,-0.207 l -3.214,2.608 c -0.6,0.494 -0.694,1.375 -0.206,1.982 l 1.707,2.094 c 0.488,0.607 1.376,0.695 1.976,0.207 l 3.214,-2.608 c 0.606,-0.487 0.694,-1.375 0.206,-1.976 m -10.386,-10.692 -2.113,-1.694 c -0.601,-0.488 -1.489,-0.388 -1.976,0.218 l -2.589,3.227 c -0.487,0.606 -0.388,1.494 0.219,1.976 l 2.107,1.694 c 0.607,0.488 1.495,0.388 1.982,-0.219 l 2.589,-3.226 c 0.482,-0.606 0.388,-1.494 -0.219,-1.976 m -12.337,-8.216 -2.42,-1.213 c -0.694,-0.35 -1.538,-0.069 -1.888,0.625 l -1.857,3.696 c -0.344,0.694 -0.069,1.538 0.625,1.888 l 2.42,1.213 c 0.694,0.35 1.538,0.069 1.888,-0.625 l 1.858,-3.696 c 0.35,-0.694 0.068,-1.538 -0.626,-1.888 m -13.837,-5.459 -2.62,-0.681 c -0.75,-0.194 -1.513,0.256 -1.713,1.013 l -1.038,4.001 c -0.194,0.757 0.262,1.52 1.013,1.72 l 2.619,0.675 c 0.751,0.194 1.514,-0.256 1.714,-1.006 l 1.038,-4.009 c 0.194,-0.75 -0.263,-1.519 -1.013,-1.713 m -14.882,-2.42 -2.601,-0.093 -0.1,-0.007 c -0.776,-0.025 -1.432,0.582 -1.457,1.357 l -0.156,4.133 c -0.025,0.776 0.581,1.432 1.356,1.457 l 0.901,0.032 1.801,0.068 c 0.775,0.032 1.431,-0.575 1.456,-1.35 l 0.151,-4.14 c 0.031,-0.775 -0.576,-1.425 -1.351,-1.457 m 64.217,53.125 -0.319,-1.314 c -0.188,-0.756 -0.951,-1.213 -1.707,-1.031 l -4.015,0.994 c -0.756,0.187 -1.219,0.944 -1.031,1.701 l 0.325,1.313 -3.608,0.888 c -6.497,-26.337 -29.782,-44.22 -55.657,-45.058 -0.831,-0.025 -1.669,-0.032 -2.507,-0.025 -0.344,-4.959 -0.719,-9.755 -1.126,-14.369 0.838,-0.019 1.676,-0.025 2.508,-0.013 32.79,0.344 62.541,22.754 70.745,56.026 z m -4.79,-13.457 -1.213,-2.42 c -0.35,-0.693 -1.194,-0.975 -1.888,-0.631 l -3.702,1.857 c -0.694,0.344 -0.975,1.188 -0.625,1.888 l 1.207,2.414 c 0.349,0.694 1.194,0.976 1.888,0.632 l 3.702,-1.857 c 0.694,-0.344 0.975,-1.189 0.631,-1.883 m -7.985,-12.881 -1.707,-2.1 c -0.487,-0.607 -1.375,-0.695 -1.976,-0.207 l -3.214,2.608 c -0.6,0.494 -0.694,1.375 -0.206,1.982 l 1.707,2.094 c 0.488,0.607 1.376,0.695 1.976,0.207 l 3.214,-2.608 c 0.606,-0.487 0.694,-1.375 0.206,-1.976 m -10.386,-10.692 -2.113,-1.694 c -0.601,-0.488 -1.489,-0.388 -1.976,0.218 l -2.589,3.227 c -0.487,0.606 -0.388,1.494 0.219,1.976 l 2.107,1.694 c 0.607,0.488 1.495,0.388 1.982,-0.219 l 2.589,-3.226 c 0.482,-0.606 0.388,-1.494 -0.219,-1.976 m -12.337,-8.216 -2.42,-1.213 c -0.694,-0.35 -1.538,-0.069 -1.888,0.625 l -1.857,3.696 c -0.344,0.694 -0.069,1.538 0.625,1.888 l 2.42,1.213 c 0.694,0.35 1.538,0.069 1.888,-0.625 l 1.858,-3.696 c 0.35,-0.694 0.068,-1.538 -0.626,-1.888 m -13.837,-5.459 -2.62,-0.681 c -0.75,-0.194 -1.513,0.256 -1.713,1.013 l -1.038,4.001 c -0.194,0.757 0.262,1.52 1.013,1.72 l 2.619,0.675 c 0.751,0.194 1.514,-0.256 1.714,-1.006 l 1.038,-4.009 c 0.194,-0.75 -0.263,-1.519 -1.013,-1.713 m -14.882,-2.42 -2.601,-0.093 -0.1,-0.007 c -0.776,-0.025 -1.432,0.582 -1.457,1.357 l -0.156,4.133 c -0.025,0.776 0.581,1.432 1.356,1.457 l 0.901,0.032 1.801,0.068 c 0.775,0.032 1.431,-0.575 1.456,-1.35 l 0.151,-4.14 c 0.031,-0.775 -0.576,-1.425 -1.351,-1.457 m 64.217,53.125 -0.319,-1.314 c -0.188,-0.756 -0.951,-1.213 -1.707,-1.031 l -4.015,0.994 c -0.756,0.187 -1.219,0.944 -1.031,1.701 l 0.325,1.313 -3.608,0.888 c -6.497,-26.337 -29.782,-44.22 -55.657,-45.058 -0.831,-0.025 -1.669,-0.032 -2.507,-0.025 -0.344,-4.959 -0.719,-9.755 -1.126,-14.369 0.838,-0.019 1.676,-0.025 2.508,-0.013 32.79,0.344 62.541,22.754 70.745,56.026 z m -4.79,-13.457 -1.213,-2.42 c -0.35,-0.693 -1.194,-0.975 -1.888,-0.631 l -3.702,1.857 c -0.694,0.344 -0.975,1.188 -0.625,1.888 l 1.207,2.414 c 0.349,0.694 1.194,0.976 1.888,0.632 l 3.702,-1.857 c 0.694,-0.344 0.975,-1.189 0.631,-1.883 m -7.985,-12.881 -1.707,-2.1 c -0.487,-0.607 -1.375,-0.695 -1.976,-0.207 l -3.214,2.608 c -0.6,0.494 -0.694,1.375 -0.206,1.982 l 1.707,2.094 c 0.488,0.607 1.376,0.695 1.976,0.207 l 3.214,-2.608 c 0.606,-0.487 0.694,-1.375 0.206,-1.976 m -10.386,-10.692 -2.113,-1.694 c -0.601,-0.488 -1.489,-0.388 -1.976,0.218 l -2.589,3.227 c -0.487,0.606 -0.388,1.494 0.219,1.976 l 2.107,1.694 c 0.607,0.488 1.495,0.388 1.982,-0.219 l 2.589,-3.226 c 0.482,-0.606 0.388,-1.494 -0.219,-1.976 m -12.337,-8.216 -2.42,-1.213 c -0.694,-0.35 -1.538,-0.069 -1.888,0.625 l -1.857,3.696 c -0.344,0.694 -0.069,1.538 0.625,1.888 l 2.42,1.213 c 0.694,0.35 1.538,0.069 1.888,-0.625 l 1.858,-3.696 c 0.35,-0.694 0.068,-1.538 -0.626,-1.888 m -13.837,-5.459 -2.62,-0.681 c -0.75,-0.194 -1.513,0.256 -1.713,1.013 l -1.038,4.001 c -0.194,0.757 0.262,1.52 1.013,1.72 l 2.619,0.675 c 0.751,0.194 1.514,-0.256 1.714,-1.006 l 1.038,-4.009 c 0.194,-0.75 -0.263,-1.519 -1.013,-1.713 m -14.882,-2.42 -2.601,-0.093 -0.1,-0.007 c -0.776,-0.025 -1.432,0.582 -1.457,1.357 l -0.156,4.133 c -0.025,0.776 0.581,1.432 1.356,1.457 l 0.901,0.032 1.801,0.068 c 0.775,0.032 1.431,-0.575 1.456,-1.35 l 0.151,-4.14 c 0.031,-0.775 -0.576,-1.425 -1.351,-1.457 m 64.217,53.125 -0.319,-1.314 c -0.188,-0.756 -0.951,-1.213 -1.707,-1.031 l -4.015,0.994 c -0.756,0.187 -1.219,0.944 -1.031,1.701 l 0.325,1.313 -3.608,0.888 c -6.497,-26.337 -29.782,-44.22 -55.657,-45.058 -0.831,-0.025 -1.669,-0.032 -2.507,-0.025 -0.344,-4.959 -0.719,-9.755 -1.126,-14.369 0.838,-0.019 1.676,-0.025 2.508,-0.013 32.79,0.344 62.541,22.754 70.745,56.026 z m -147.073,27.862 c -0.044,-0.838 -0.075,-1.669 -0.088,-2.501 1.294,-0.106 2.607,-0.206 3.933,-0.313 0.244,0.344 0.644,0.576 1.107,0.588 l 4.139,0.094 c 0.7,0.019 1.295,-0.488 1.413,-1.157 1.251,-0.087 2.508,-0.169 3.777,-0.244 0.007,0.832 0.025,1.663 0.069,2.495 -4.933,0.313 -9.723,0.663 -14.35,1.038 m 142.283,-41.319 -1.213,-2.42 c -0.35,-0.693 -1.194,-0.975 -1.888,-0.631 l -3.702,1.857 c -0.694,0.344 -0.975,1.188 -0.625,1.888 l 1.207,2.414 c 0.349,0.694 1.194,0.976 1.888,0.632 l 3.702,-1.857 c 0.694,-0.344 0.975,-1.189 0.631,-1.883 m -7.985,-12.881 -1.707,-2.1 c -0.487,-0.607 -1.375,-0.695 -1.976,-0.207 l -3.214,2.608 c -0.6,0.494 -0.694,1.375 -0.206,1.982 l 1.707,2.094 c 0.488,0.607 1.376,0.695 1.976,0.207 l 3.214,-2.608 c 0.606,-0.487 0.694,-1.375 0.206,-1.976 m -10.386,-10.692 -2.113,-1.694 c -0.601,-0.488 -1.489,-0.388 -1.976,0.218 l -2.589,3.227 c -0.487,0.606 -0.388,1.494 0.219,1.976 l 2.107,1.694 c 0.607,0.488 1.495,0.388 1.982,-0.219 l 2.589,-3.226 c 0.482,-0.606 0.388,-1.494 -0.219,-1.976 m -12.337,-8.216 -2.42,-1.213 c -0.694,-0.35 -1.538,-0.069 -1.888,0.625 l -1.857,3.696 c -0.344,0.694 -0.069,1.538 0.625,1.888 l 2.42,1.213 c 0.694,0.35 1.538,0.069 1.888,-0.625 l 1.858,-3.696 c 0.35,-0.694 0.068,-1.538 -0.626,-1.888 m -13.837,-5.459 -2.62,-0.681 c -0.75,-0.194 -1.513,0.256 -1.713,1.013 l -1.038,4.001 c -0.194,0.757 0.262,1.52 1.013,1.72 l 2.619,0.675 c 0.751,0.194 1.514,-0.256 1.714,-1.006 l 1.038,-4.009 c 0.194,-0.75 -0.263,-1.519 -1.013,-1.713 m -14.882,-2.42 -2.601,-0.093 -0.1,-0.007 c -0.776,-0.025 -1.432,0.582 -1.457,1.357 l -0.156,4.133 c -0.025,0.776 0.581,1.432 1.356,1.457 l 0.901,0.032 1.801,0.068 c 0.775,0.032 1.431,-0.575 1.456,-1.35 l 0.151,-4.14 c 0.031,-0.775 -0.576,-1.425 -1.351,-1.457 m 64.217,53.125 -0.319,-1.314 c -0.188,-0.756 -0.951,-1.213 -1.707,-1.031 l -4.015,0.994 c -0.756,0.187 -1.219,0.944 -1.031,1.701 l 0.325,1.313 -3.608,0.888 c -6.497,-26.337 -29.782,-44.22 -55.657,-45.058 -0.831,-0.025 -1.669,-0.032 -2.507,-0.025 -0.344,-4.959 -0.719,-9.755 -1.126,-14.369 0.838,-0.019 1.676,-0.025 2.508,-0.013 32.79,0.344 62.541,22.754 70.745,56.026 z m -147.073,27.862 c -0.044,-0.838 -0.075,-1.669 -0.088,-2.501 1.294,-0.106 2.607,-0.206 3.933,-0.313 0.244,0.344 0.644,0.576 1.107,0.588 l 4.139,0.094 c 0.7,0.019 1.295,-0.488 1.413,-1.157 1.251,-0.087 2.508,-0.169 3.777,-0.244 0.007,0.832 0.025,1.663 0.069,2.495 -4.933,0.313 -9.723,0.663 -14.35,1.038"
               style="fill:#231f20;fill-opacity:1;fill-rule:nonzero;stroke:none"
               id="path5466" />
          </g>
          <g
             id="g5468"
             transform="translate(1050.7751,547.1752)">
            <path
               d="m 0,0 -3.977,-1.144 c -0.744,-0.213 -1.526,0.219 -1.738,0.963 L -6.466,2.42 c -0.212,0.744 0.219,1.525 0.963,1.738 l 3.977,1.144 C -0.775,5.515 0,5.083 0.219,4.339 L 0.963,1.738 C 1.176,0.994 0.744,0.213 0,0 m -10.005,12.75 -1.138,2.457 c -0.331,0.7 -0.025,1.538 0.682,1.863 l 3.12,1.451 0.632,0.294 c 0.656,0.3 1.425,0.056 1.788,-0.544 0.031,-0.044 0.056,-0.088 0.081,-0.138 l 1.138,-2.457 c 0.325,-0.7 0.019,-1.538 -0.688,-1.864 l -3.751,-1.744 c -0.701,-0.325 -1.539,-0.019 -1.864,0.682 m -6.209,12.074 -1.5,2.251 c -0.432,0.65 -0.257,1.519 0.387,1.951 l 3.446,2.294 c 0.644,0.432 1.519,0.257 1.951,-0.387 l 1.5,-2.251 c 0.425,-0.651 0.25,-1.52 -0.394,-1.951 l -3.445,-2.295 c -0.644,-0.431 -1.519,-0.256 -1.945,0.388 m -2.957,13.693 -3.052,-2.795 c -0.575,-0.525 -1.463,-0.481 -1.988,0.088 l -1.826,1.995 c -0.525,0.575 -0.481,1.463 0.088,1.988 l 3.051,2.795 c 0.575,0.519 1.463,0.482 1.988,-0.087 l 1.826,-1.995 c 0.526,-0.575 0.488,-1.463 -0.087,-1.989 m -10.124,10.418 -2.582,-3.233 c -0.481,-0.607 -1.37,-0.707 -1.976,-0.219 l -2.114,1.688 c -0.606,0.482 -0.7,1.37 -0.218,1.976 l 2.582,3.233 c 0.488,0.606 1.369,0.7 1.976,0.219 l 2.114,-1.688 c 0.606,-0.488 0.706,-1.37 0.218,-1.976 m -11.755,8.804 -2.045,-3.602 c -0.381,-0.675 -1.244,-0.913 -1.919,-0.525 l -2.351,1.332 c -0.676,0.387 -0.907,1.244 -0.526,1.919 l 2.045,3.596 c 0.381,0.675 1.238,0.913 1.913,0.531 l 2.352,-1.338 c 0.675,-0.381 0.913,-1.238 0.531,-1.913 m -13.262,6.94 -1.438,-3.877 c -0.275,-0.725 -1.082,-1.1 -1.808,-0.825 l -2.538,0.938 c -0.726,0.269 -1.101,1.082 -0.826,1.807 l 1.439,3.877 c 0.269,0.732 1.081,1.101 1.807,0.832 l 2.532,-0.945 c 0.732,-0.268 1.101,-1.075 0.832,-1.807 m -14.607,4.84 -0.775,-4.064 c -0.15,-0.763 -0.888,-1.263 -1.651,-1.12 l -2.651,0.513 c -0.763,0.144 -1.263,0.882 -1.12,1.645 l 0.782,4.064 c 0.144,0.763 0.882,1.263 1.645,1.113 l 2.657,-0.506 c 0.763,-0.151 1.263,-0.882 1.113,-1.645 m -15.082,-1.895 c -0.006,-0.775 -0.644,-1.4 -1.419,-1.394 l -2.708,0.025 c -0.775,0.006 -1.4,0.644 -1.388,1.419 l 0.038,4.14 c 0.006,0.775 0.644,1.4 1.419,1.394 l 2.701,-0.025 c 0.782,-0.012 1.401,-0.644 1.395,-1.419 z M -0.663,17.802 c -0.381,0.894 -0.781,1.782 -1.194,2.657 -12.175,25.987 -35.541,46.471 -65.511,53.862 -10.192,2.514 -20.416,3.158 -30.308,2.151 0.407,-4.614 0.782,-9.404 1.113,-14.344 8.398,0.894 17.089,0.363 25.75,-1.769 22.541,-5.559 40.712,-19.797 51.823,-38.28 0.525,-0.869 1.032,-1.745 1.519,-2.633 4.29,-7.747 7.372,-16.182 9.048,-24.986 3.765,0.369 7.391,0.769 10.874,1.188 1.182,0.144 2.332,0.288 3.452,0.431 C 4.558,3.595 2.345,10.88 -0.663,17.802"
               style="fill:#231f20;fill-opacity:1;fill-rule:nonzero;stroke:none"
               id="path5470" />
          </g>
          <g
             id="g5472"
             transform="translate(945.2897,425.1947)">
            <path
               d="m 0,0 c -0.031,-0.775 -0.688,-1.376 -1.463,-1.344 l -2.701,0.118 c -0.776,0.038 -1.376,0.694 -1.345,1.47 l 0.182,4.133 c 0.037,0.775 0.694,1.376 1.469,1.344 L -1.157,5.603 C -0.381,5.565 0.219,4.909 0.187,4.133 Z m -14.313,5.896 -0.781,-4.064 c -0.119,-0.606 -0.613,-1.044 -1.195,-1.125 -0.144,-0.019 -0.3,-0.019 -0.456,0.012 l -2.139,0.407 -0.512,0.1 c -0.763,0.15 -1.263,0.887 -1.12,1.65 l 0.769,3.996 0.013,0.062 c 0.15,0.763 0.888,1.263 1.651,1.12 l 0.719,-0.138 1.932,-0.375 c 0.763,-0.15 1.263,-0.882 1.119,-1.645 m -14.256,3.859 -1.313,-3.927 c -0.25,-0.738 -1.045,-1.132 -1.782,-0.882 l -2.564,0.857 c -0.738,0.25 -1.132,1.044 -0.888,1.782 l 1.319,3.92 c 0.244,0.738 1.045,1.132 1.776,0.888 l 2.564,-0.863 c 0.738,-0.244 1.138,-1.044 0.888,-1.775 m -13.306,5.564 -1.814,-3.72 c -0.343,-0.694 -1.182,-0.988 -1.882,-0.644 l -2.426,1.182 c -0.7,0.344 -0.988,1.188 -0.65,1.882 l 1.819,3.72 c 0.338,0.694 1.182,0.988 1.876,0.644 l 2.433,-1.181 c 0.694,-0.344 0.988,-1.189 0.644,-1.883 m -12.25,7.122 -2.276,-3.457 c -0.431,-0.644 -1.3,-0.826 -1.951,-0.401 l -2.257,1.489 c -0.65,0.431 -0.825,1.3 -0.4,1.95 l 2.276,3.452 c 0.431,0.65 1.301,0.832 1.951,0.4 l 2.257,-1.488 c 0.65,-0.425 0.826,-1.301 0.4,-1.945 m -11.105,8.529 -2.695,-3.139 c -0.506,-0.587 -1.394,-0.65 -1.982,-0.15 l -2.051,1.764 c -0.594,0.506 -0.656,1.394 -0.15,1.982 l 2.695,3.139 c 0.507,0.594 1.394,0.656 1.982,0.15 l 2.051,-1.757 c 0.588,-0.507 0.657,-1.395 0.15,-1.989 m -9.867,9.798 -3.064,-2.776 c -0.575,-0.519 -1.463,-0.475 -1.988,0.1 l -1.813,2.001 c -0.519,0.576 -0.475,1.47 0.1,1.989 l 3.064,2.776 c 0.575,0.525 1.469,0.481 1.988,-0.1 l 1.813,-2.001 c 0.519,-0.575 0.476,-1.463 -0.1,-1.989 m -8.522,10.918 -3.389,-2.376 c -0.638,-0.45 -1.514,-0.294 -1.958,0.344 l -1.556,2.213 c -0.444,0.632 -0.294,1.513 0.343,1.958 l 3.39,2.375 c 0.637,0.444 1.513,0.295 1.957,-0.343 l 1.556,-2.214 c 0.444,-0.638 0.288,-1.513 -0.343,-1.957 m -12.656,10.524 -1.269,2.388 c -0.363,0.688 -0.101,1.538 0.581,1.901 l 3.658,1.938 c 0.688,0.363 1.538,0.1 1.901,-0.581 l 1.269,-2.389 c 0.363,-0.687 0.1,-1.538 -0.587,-1.901 l -3.652,-1.938 c -0.688,-0.369 -1.538,-0.106 -1.901,0.582 m -5.703,13.399 -0.962,2.526 c -0.276,0.726 0.093,1.539 0.818,1.814 l 3.865,1.469 c 0.725,0.275 1.538,-0.087 1.813,-0.813 l 0.963,-2.526 c 0.275,-0.725 -0.087,-1.538 -0.813,-1.813 l -3.87,-1.476 c -0.726,-0.275 -1.538,0.094 -1.814,0.819 m -3.995,14.088 -0.638,2.626 c -0.181,0.757 0.282,1.513 1.038,1.695 l 4.02,0.975 c 0.757,0.181 1.514,-0.281 1.701,-1.038 l 0.632,-2.626 c 0.181,-0.756 -0.281,-1.513 -1.032,-1.694 l -4.027,-0.976 c -0.75,-0.181 -1.513,0.281 -1.694,1.038 m -2.195,14.619 -0.294,2.689 c -0.087,0.769 0.469,1.463 1.244,1.55 l 4.109,0.451 c 0.775,0.087 1.469,-0.476 1.55,-1.245 l 0.301,-2.688 c 0.081,-0.769 -0.476,-1.463 -1.245,-1.551 l -4.114,-0.45 c -0.769,-0.088 -1.47,0.469 -1.551,1.244 m 90.372,-92.454 c -0.031,0.006 -0.069,0.018 -0.1,0.025 -0.875,0.212 -1.738,0.444 -2.601,0.681 -47.015,12.9 -78.167,56.144 -77.435,103.216 -5.309,0.706 -10.092,1.463 -14.325,2.263 -1.82,-55.3 35.191,-106.386 91.016,-120.148 1.007,-0.25 2.013,-0.481 3.02,-0.694 0.875,-0.194 1.757,-0.375 2.632,-0.538 5.416,-1.044 10.824,-1.65 16.189,-1.857 0.757,3.971 1.526,8.698 2.282,14.325 -6.84,0.132 -13.768,1.026 -20.678,2.727"
               style="fill:#231f20;fill-opacity:1;fill-rule:nonzero;stroke:none"
               id="path5474" />
          </g>
          <g
             id="g5476"
             transform="translate(942.9198,465.8943)">
            <path
               d="M 0,0 -0.757,-4.07 C -0.9,-4.833 -1.638,-5.34 -2.401,-5.196 l -2.657,0.5 c -0.763,0.144 -1.264,0.876 -1.12,1.638 l 0.757,4.071 c 0.144,0.763 0.882,1.263 1.644,1.119 L -1.119,1.638 C -0.356,1.495 0.144,0.763 0,0 m -14.094,3.683 -1.576,-3.827 c -0.3,-0.719 -1.119,-1.056 -1.838,-0.763 l -0.8,0.332 -1.701,0.7 c -0.719,0.294 -1.057,1.119 -0.763,1.832 l 1.576,3.827 c 0.094,0.219 0.231,0.406 0.4,0.55 0.388,0.319 0.938,0.425 1.438,0.219 l 2.501,-1.032 c 0.713,-0.294 1.057,-1.119 0.763,-1.838 m -12.681,6.234 -2.301,-3.439 c -0.431,-0.644 -1.3,-0.819 -1.951,-0.388 l -2.244,1.501 c -0.651,0.431 -0.82,1.301 -0.394,1.951 l 2.301,3.439 c 0.431,0.644 1.3,0.819 1.951,0.388 l 2.244,-1.501 c 0.651,-0.432 0.826,-1.301 0.394,-1.951 m -11.005,8.429 -2.914,-2.939 c -0.55,-0.55 -1.438,-0.55 -1.988,-0.006 l -1.92,1.907 c -0.55,0.55 -0.556,1.438 -0.006,1.988 l 2.914,2.939 c 0.544,0.55 1.438,0.55 1.988,0.006 l 1.92,-1.907 c 0.55,-0.544 0.55,-1.438 0.006,-1.988 m -9.104,10.286 -3.414,-2.333 c -0.644,-0.437 -1.519,-0.275 -1.957,0.369 l -1.526,2.233 c -0.437,0.644 -0.269,1.513 0.369,1.951 l 3.42,2.338 c 0.645,0.438 1.52,0.269 1.958,-0.369 l 1.519,-2.238 c 0.438,-0.638 0.275,-1.513 -0.369,-1.951 m -12.624,10.88 -1.076,2.482 c -0.306,0.713 0.019,1.545 0.732,1.851 l 3.795,1.644 c 0.713,0.313 1.539,-0.012 1.851,-0.725 l 1.075,-2.482 c 0.307,-0.713 -0.018,-1.545 -0.731,-1.851 l -3.795,-1.645 c -0.713,-0.312 -1.539,0.019 -1.851,0.726 m -4.709,14.069 -0.581,2.645 c -0.169,0.756 0.313,1.507 1.069,1.675 l 4.039,0.894 c 0.757,0.169 1.507,-0.312 1.676,-1.069 l 0.588,-2.638 c 0.162,-0.763 -0.313,-1.514 -1.069,-1.682 l -4.046,-0.895 c -0.756,-0.162 -1.507,0.313 -1.676,1.07 M -4.802,6.203 c -5.071,1.25 -9.861,3.051 -14.319,5.334 -0.876,0.437 -1.738,0.9 -2.583,1.388 -20.884,11.836 -33.952,34.29 -33.802,58.414 -1.27,0.075 -2.527,0.156 -3.777,0.244 0.012,-0.069 0.025,-0.144 0.025,-0.219 l 0.056,-2.702 c 0.019,-0.775 -0.594,-1.419 -1.369,-1.438 l -4.14,-0.093 c -0.775,-0.013 -1.419,0.6 -1.438,1.375 l -0.056,2.701 c -0.006,0.319 0.087,0.613 0.263,0.851 -1.326,0.106 -2.639,0.206 -3.933,0.313 -0.595,-32.734 18.877,-63.098 49.297,-76.023 0.857,-0.362 1.719,-0.712 2.595,-1.05 3.139,-1.207 6.39,-2.232 9.736,-3.058 5.308,-1.313 10.629,-2.007 15.888,-2.132 0.406,4.615 0.781,9.411 1.125,14.369 -4.483,0.044 -9.029,0.607 -13.568,1.726"
               style="fill:#231f20;fill-opacity:1;fill-rule:nonzero;stroke:none"
               id="path5478" />
          </g>
          <g
             id="g5480"
             transform="translate(938.2363,609.7786)">
            <path
               d="m 0,0 -2.551,-0.9 c -0.732,-0.263 -1.532,0.118 -1.795,0.85 l -1.381,3.902 c -0.257,0.731 0.124,1.538 0.856,1.794 l 2.545,0.907 c 0.732,0.256 1.538,-0.125 1.795,-0.857 L 0.857,1.794 C 1.113,1.063 0.732,0.263 0,0 m -12.493,-5.202 -1.889,-1.063 -0.469,-0.263 c -0.675,-0.375 -1.531,-0.137 -1.913,0.538 l -0.094,0.169 -1.932,3.439 c -0.381,0.681 -0.137,1.538 0.538,1.919 l 1.807,1.013 0.55,0.307 c 0.676,0.381 1.532,0.144 1.914,-0.538 l 0.025,-0.044 2.001,-3.564 c 0.381,-0.675 0.137,-1.532 -0.538,-1.913 m -11.405,-7.247 -2.101,-1.701 c -0.601,-0.488 -1.488,-0.4 -1.976,0.206 l -2.607,3.208 c -0.488,0.606 -0.401,1.488 0.206,1.982 l 2.094,1.701 c 0.607,0.494 1.489,0.4 1.983,-0.207 l 2.607,-3.207 c 0.488,-0.607 0.394,-1.488 -0.206,-1.982 m -10.042,-9.123 -1.776,-2.039 c -0.507,-0.581 -1.394,-0.644 -1.982,-0.131 l -3.12,2.714 c -0.582,0.512 -0.644,1.4 -0.138,1.988 l 1.782,2.039 c 0.507,0.581 1.394,0.644 1.982,0.137 l 3.12,-2.72 c 0.582,-0.513 0.644,-1.401 0.132,-1.988 m -8.392,-10.837 -1.394,-2.313 c -0.4,-0.669 -1.263,-0.882 -1.932,-0.482 l -3.546,2.133 c -0.662,0.4 -0.881,1.269 -0.481,1.932 l 1.394,2.32 c 0.407,0.662 1.27,0.875 1.933,0.475 l 3.545,-2.132 c 0.669,-0.401 0.882,-1.263 0.481,-1.933 m -6.477,-12.393 -0.963,-2.526 c -0.276,-0.725 -1.089,-1.094 -1.814,-0.813 l -3.864,1.47 c -0.725,0.275 -1.094,1.088 -0.819,1.813 l 0.95,2.495 0.013,0.031 c 0.275,0.726 1.088,1.095 1.813,0.813 l 1.632,-0.619 2.239,-0.85 c 0.725,-0.275 1.088,-1.088 0.813,-1.814 m -4.259,-13.737 -0.475,-2.664 c -0.137,-0.763 -0.869,-1.269 -1.632,-1.132 l -4.077,0.732 c -0.763,0.131 -1.269,0.863 -1.132,1.632 l 0.476,2.658 c 0.137,0.762 0.869,1.275 1.632,1.137 l 4.07,-0.731 c 0.769,-0.138 1.276,-0.869 1.138,-1.632 M 13.225,2.983 10.63,2.545 C 9.861,2.42 9.136,2.933 9.01,3.702 L 8.316,7.779 C 8.191,8.548 8.704,9.273 9.473,9.398 l 2.664,0.45 c 0.194,0.032 0.381,0.025 0.556,-0.025 -0.1,1.263 -0.206,2.52 -0.319,3.758 C 3.339,12.406 -5.39,9.848 -13.531,6.084 c -0.876,-0.4 -1.745,-0.819 -2.601,-1.257 -18.552,-9.298 -33.791,-24.974 -42.226,-44.908 -0.362,-0.85 -0.712,-1.707 -1.044,-2.576 -1.363,-3.514 -2.513,-7.153 -3.439,-10.905 -1.276,-5.165 -2.013,-10.329 -2.263,-15.451 4.627,-0.375 9.416,-0.725 14.35,-1.038 0.187,4.321 0.806,8.686 1.876,13.044 1.338,5.427 3.239,10.567 5.634,15.382 0.425,0.869 0.869,1.719 1.338,2.57 5.977,10.948 14.531,20.046 24.673,26.687 0.851,0.563 1.72,1.107 2.595,1.632 8.548,5.121 18.109,8.548 28.132,9.948 -0.088,1.27 -0.175,2.52 -0.269,3.771"
               style="fill:#231f20;fill-opacity:1;fill-rule:nonzero;stroke:none"
               id="path5482" />
          </g>
          <g
             id="g5484"
             transform="translate(926.1122,651.7914)">
            <path
               d="m 0,0 c -0.113,-0.087 -0.238,-0.169 -0.375,-0.225 l -2.508,-1.019 c -0.719,-0.288 -1.538,0.056 -1.832,0.775 L -6.272,3.37 c -0.293,0.719 0.057,1.539 0.776,1.826 l 2.507,1.019 C -2.27,6.509 -1.451,6.165 -1.157,5.44 L 0.294,1.876 0.4,1.607 C 0.631,1.026 0.456,0.381 0,0 m -13.125,-5.384 -2.376,-1.294 c -0.681,-0.369 -1.532,-0.119 -1.907,0.563 l -1.976,3.639 c -0.369,0.682 -0.119,1.538 0.569,1.907 l 2.376,1.288 c 0.682,0.375 1.532,0.119 1.907,-0.563 l 1.976,-3.632 c 0.369,-0.688 0.119,-1.539 -0.569,-1.908 m -12.062,-6.553 -2.219,-1.544 c -0.638,-0.444 -1.513,-0.288 -1.957,0.35 l -2.37,3.395 c -0.444,0.632 -0.288,1.514 0.35,1.957 l 2.22,1.545 c 0.637,0.444 1.513,0.288 1.957,-0.35 l 2.37,-3.389 c 0.443,-0.638 0.287,-1.513 -0.351,-1.964 m -11.261,-7.859 -2.032,-1.783 c -0.582,-0.512 -1.47,-0.456 -1.982,0.126 l -2.733,3.114 c -0.513,0.581 -0.456,1.469 0.132,1.982 l 2.032,1.782 c 0.581,0.512 1.469,0.456 1.982,-0.125 l 2.732,-3.108 c 0.513,-0.588 0.457,-1.476 -0.131,-1.988 m -10.33,-9.098 -1.819,-2.001 c -0.525,-0.575 -1.413,-0.619 -1.989,-0.1 l -3.064,2.789 c -0.575,0.518 -0.612,1.406 -0.093,1.982 l 1.819,2 c 0.519,0.576 1.413,0.62 1.989,0.094 l 3.057,-2.782 c 0.576,-0.519 0.619,-1.407 0.1,-1.982 m -9.291,-10.274 -1.576,-2.194 c -0.456,-0.632 -1.332,-0.77 -1.963,-0.319 l -3.358,2.42 c -0.632,0.45 -0.775,1.331 -0.319,1.963 l 1.576,2.195 c 0.456,0.631 1.331,0.769 1.963,0.319 l 3.358,-2.42 c 0.631,-0.457 0.775,-1.332 0.319,-1.964 m -8.117,-11.368 -1.319,-2.363 c -0.375,-0.675 -1.232,-0.919 -1.913,-0.538 l -3.614,2.014 c -0.676,0.381 -0.92,1.238 -0.544,1.913 l 1.319,2.364 c 0.381,0.675 1.238,0.919 1.913,0.544 l 3.615,-2.02 c 0.681,-0.381 0.919,-1.238 0.543,-1.914 m -6.834,-12.393 -1.032,-2.501 c -0.3,-0.719 -1.119,-1.056 -1.838,-0.763 l -3.821,1.582 c -0.719,0.301 -1.062,1.12 -0.762,1.839 l 1.031,2.501 c 0.301,0.713 1.12,1.057 1.839,0.756 l 3.827,-1.581 c 0.712,-0.294 1.056,-1.12 0.756,-1.833 m -5.421,-13.362 -0.732,-2.601 c -0.212,-0.744 -0.988,-1.182 -1.732,-0.969 l -3.983,1.119 c -0.75,0.213 -1.182,0.988 -0.975,1.738 l 0.738,2.601 c 0.206,0.751 0.981,1.182 1.732,0.97 l 3.983,-1.12 c 0.75,-0.212 1.181,-0.987 0.969,-1.738 m -3.864,-14.163 -0.407,-2.676 c -0.112,-0.769 -0.831,-1.294 -1.601,-1.175 l -4.089,0.619 c -0.769,0.119 -1.294,0.838 -1.182,1.6 l 0.413,2.677 c 0.019,0.118 0.05,0.231 0.1,0.331 0.232,0.581 0.85,0.944 1.501,0.844 l 1.982,-0.3 2.107,-0.319 c 0.769,-0.119 1.294,-0.838 1.176,-1.601 M 2.063,11.605 c -43.882,-12.755 -80.011,-47.909 -91.716,-95.374 -0.276,-1.113 -0.532,-2.232 -0.776,-3.346 -0.187,-0.875 -0.368,-1.757 -0.537,-2.632 -1.057,-5.44 -1.72,-10.88 -2.008,-16.282 1.17,-0.226 2.401,-0.444 3.702,-0.669 l 0.044,2.113 c 0.012,0.775 0.656,1.394 1.432,1.376 l 4.139,-0.082 c 0.775,-0.018 1.388,-0.656 1.376,-1.432 l -0.057,-2.707 c 0,-0.125 -0.018,-0.244 -0.056,-0.356 1.188,-0.169 2.426,-0.344 3.708,-0.513 0.275,6.903 1.232,13.869 2.939,20.834 0.013,0.082 0.038,0.169 0.056,0.25 0.194,0.788 0.4,1.576 0.607,2.358 10.38,38.698 39.099,67.881 74.44,80.474 0.882,0.319 1.763,0.619 2.651,0.913 C 2.933,3.014 3.87,8.204 4.777,12.356 3.87,12.118 2.964,11.862 2.063,11.605"
               style="fill:#231f20;fill-opacity:1;fill-rule:nonzero;stroke:none"
               id="path5486" />
          </g>
          <g
             id="g5488"
             transform="translate(919.5529,538.2835)">
            <path
               d="m 0,0 c -3.564,0.1 -7.589,-0.184 -11.06,-0.047 -7.416,0.294 -14.095,1.06 -21.011,1.491 -0.044,-0.831 -0.062,-1.663 -0.069,-2.494 5.315,-0.338 10.793,-0.632 16.414,-0.876 C -10.592,-2.157 -5.34,-2.351 0.006,-2.501 0.006,-1.669 0,-0.831 0,0 m 164.606,23.317 c -7.222,2.063 -17.527,3.914 -30.632,5.496 -1.507,0.182 -3.046,0.363 -4.609,0.538 0.413,-0.876 0.813,-1.763 1.195,-2.658 1.05,-0.118 2.088,-0.237 3.113,-0.362 39.362,-4.759 40.5,-10.28 40.5,-10.893 0,-0.6 -1.069,-5.815 -37.048,-10.467 C 136.006,4.827 134.855,4.684 133.673,4.54 130.19,4.121 126.564,3.721 122.8,3.352 109.175,2.014 93.793,1.001 77.316,0.356 64.379,-0.15 50.767,-0.431 36.823,-0.469 35.991,-0.475 35.16,-0.475 34.322,-0.475 h -0.938 c -10.511,0 -20.853,0.137 -30.876,0.4 C 1.669,-0.05 0.832,-0.025 0,0 c -3.564,0.1 -7.078,0.219 -10.549,0.356 -7.415,0.294 -14.606,0.657 -21.522,1.088 -4.933,0.313 -9.723,0.663 -14.35,1.039 -7.266,0.6 -14.119,1.288 -20.478,2.057 -1.826,0.218 -3.564,0.444 -5.228,0.669 -1.281,0.169 -2.519,0.344 -3.707,0.512 -2.483,0.363 -4.771,0.726 -6.878,1.088 -1.301,0.225 -2.533,0.444 -3.702,0.669 -20.26,3.852 -20.985,7.466 -20.985,7.96 0,0.507 0.769,4.334 22.992,8.323 0.169,0.875 0.35,1.757 0.538,2.632 -5.49,-0.956 -10.155,-1.988 -13.963,-3.076 -8.235,-2.351 -12.068,-4.852 -12.068,-7.879 0,-3.026 3.833,-5.533 12.068,-7.885 3.177,-0.906 6.959,-1.775 11.311,-2.594 4.234,-0.801 9.017,-1.557 14.326,-2.264 1.619,-0.219 3.282,-0.431 4.996,-0.638 6.422,-0.775 13.343,-1.469 20.69,-2.076 1.295,-0.106 2.608,-0.206 3.933,-0.312 2.189,-0.163 4.409,-0.325 6.66,-0.476 1.25,-0.087 2.507,-0.168 3.776,-0.243 5.315,-0.338 10.793,-0.632 16.414,-0.876 5.134,-0.231 10.386,-0.425 15.732,-0.575 0.832,-0.025 1.663,-0.05 2.502,-0.069 10.023,-0.269 20.365,-0.406 30.876,-0.406 h 0.931 c 0.832,0 1.67,0 2.502,0.006 15.82,0.044 31.208,0.394 45.683,1.044 14.688,0.65 28.432,1.595 40.737,2.808 3.715,0.369 7.297,0.756 10.737,1.175 1.213,0.144 2.401,0.294 3.563,0.444 11.424,1.488 20.522,3.183 27.069,5.052 8.235,2.352 12.068,4.859 12.068,7.885 0,3.027 -3.833,5.528 -12.068,7.879 m -52.374,7.653 c -21.697,1.757 -46.946,2.752 -73.47,2.87 -0.788,0.007 -1.583,0.007 -2.37,0.007 -0.832,0.006 -1.67,0.006 -2.501,0.006 h -0.507 c -1.795,0 -3.589,-0.006 -5.371,-0.013 C 19.496,33.803 11.105,33.678 2.926,33.459 2.088,33.44 1.257,33.415 0.425,33.39 c -8.122,-0.231 -16.032,-0.55 -23.648,-0.95 -0.469,-0.851 -0.913,-1.701 -1.338,-2.57 8.01,0.431 16.345,0.769 24.924,1.019 0.831,0.025 1.663,0.044 2.501,0.069 7.872,0.206 15.938,0.331 24.136,0.375 2.12,0.013 4.246,0.019 6.384,0.019 h 0.575 c 0.832,0 1.664,0 2.495,-0.006 1.107,0 2.213,-0.007 3.321,-0.013 26.793,-0.137 52.242,-1.176 73.977,-2.995 -0.488,0.888 -0.994,1.763 -1.52,2.632 M -67.199,28.813 c -0.444,-0.056 -0.888,-0.106 -1.326,-0.162 -0.206,-0.782 -0.413,-1.57 -0.606,-2.358 -0.019,-0.081 -0.044,-0.169 -0.057,-0.25 0.751,0.1 1.514,0.194 2.289,0.288 7.997,0.969 16.783,1.807 26.18,2.507 0.332,0.869 0.682,1.726 1.045,2.576 -9.905,-0.719 -19.146,-1.588 -27.525,-2.601"
               style="fill:#eb2e32;fill-opacity:1;fill-rule:nonzero;stroke:none"
               id="path5490" />
          </g>
          <g
             id="g5492"
             transform="translate(925.468,647.4081)">
            <path
               d="m 0,0 c -0.3,-2.182 -0.594,-4.458 -0.881,-6.822 -0.957,-7.941 -1.789,-16.657 -2.483,-25.98 0.857,0.437 1.726,0.856 2.601,1.256 0.669,8.736 1.463,16.927 2.364,24.424 0.35,2.876 0.7,5.553 1.05,8.035 C 1.763,0.619 0.882,0.319 0,0 m 0,0 c -0.3,-2.182 -0.594,-4.458 -0.881,-6.822 -0.957,-7.941 -1.789,-16.657 -2.483,-25.98 0.857,0.437 1.726,0.856 2.601,1.256 0.669,8.736 1.463,16.927 2.364,24.424 0.35,2.876 0.7,5.553 1.05,8.035 C 1.763,0.619 0.882,0.319 0,0 m 0,0 c -0.3,-2.182 -0.594,-4.458 -0.881,-6.822 -0.957,-7.941 -1.789,-16.657 -2.483,-25.98 0.857,0.437 1.726,0.856 2.601,1.256 0.669,8.736 1.463,16.927 2.364,24.424 0.35,2.876 0.7,5.553 1.05,8.035 C 1.763,0.619 0.882,0.319 0,0 m 0,0 c -0.3,-2.182 -0.594,-4.458 -0.881,-6.822 -0.957,-7.941 -1.789,-16.657 -2.483,-25.98 0.857,0.437 1.726,0.856 2.601,1.256 0.669,8.736 1.463,16.927 2.364,24.424 0.35,2.876 0.7,5.553 1.05,8.035 C 1.763,0.619 0.882,0.319 0,0 m -4.464,-49.998 c -0.438,-8.26 -0.782,-16.876 -1.026,-25.736 -0.019,-0.832 -0.044,-1.664 -0.062,-2.501 -0.219,-8.648 -0.338,-17.527 -0.357,-26.544 -0.006,-0.875 -0.006,-1.751 -0.006,-2.626 v -1.72 c 0,-0.831 0.006,-1.669 0.006,-2.501 0.832,-0.025 1.663,-0.05 2.501,-0.068 0,0.831 -0.006,1.663 0,2.494 -0.006,0.594 -0.006,1.195 -0.006,1.795 0,1.263 0,2.526 0.006,3.789 0.025,8.642 0.144,17.152 0.357,25.449 0.019,0.838 0.043,1.67 0.062,2.501 0.263,9.423 0.638,18.565 1.12,27.3 -0.876,-0.525 -1.745,-1.069 -2.595,-1.632 M 0,0 c -0.3,-2.182 -0.594,-4.458 -0.881,-6.822 -0.957,-7.941 -1.789,-16.657 -2.483,-25.98 0.857,0.437 1.726,0.856 2.601,1.256 0.669,8.736 1.463,16.927 2.364,24.424 0.35,2.876 0.7,5.553 1.05,8.035 C 1.763,0.619 0.882,0.319 0,0 m -4.464,-49.998 c -0.438,-8.26 -0.782,-16.876 -1.026,-25.736 -0.019,-0.832 -0.044,-1.664 -0.062,-2.501 -0.219,-8.648 -0.338,-17.527 -0.357,-26.544 -0.006,-0.875 -0.006,-1.751 -0.006,-2.626 v -1.72 c 0,-0.831 0.006,-1.669 0.006,-2.501 0.832,-0.025 1.663,-0.05 2.501,-0.068 0,0.831 -0.006,1.663 0,2.494 -0.006,0.594 -0.006,1.195 -0.006,1.795 0,1.263 0,2.526 0.006,3.789 0.025,8.642 0.144,17.152 0.357,25.449 0.019,0.838 0.043,1.67 0.062,2.501 0.263,9.423 0.638,18.565 1.12,27.3 -0.876,-0.525 -1.745,-1.069 -2.595,-1.632 M 0,0 c -0.3,-2.182 -0.594,-4.458 -0.881,-6.822 -0.957,-7.941 -1.789,-16.657 -2.483,-25.98 0.857,0.437 1.726,0.856 2.601,1.256 0.669,8.736 1.463,16.927 2.364,24.424 0.35,2.876 0.7,5.553 1.05,8.035 C 1.763,0.619 0.882,0.319 0,0 m 2.457,-214.297 -0.719,0.137 c -0.763,0.144 -1.5,-0.356 -1.65,-1.119 l -0.013,-0.063 c 0.282,-1.994 0.569,-3.914 0.863,-5.746 l 2.138,-0.406 c 0.157,-0.032 0.313,-0.032 0.457,-0.013 -0.363,2.214 -0.719,4.608 -1.076,7.21 M -5.49,-75.734 c -0.019,-0.832 -0.044,-1.664 -0.062,-2.501 -0.219,-8.648 -0.338,-17.527 -0.357,-26.544 -0.006,-0.875 -0.006,-1.751 -0.006,-2.626 v -1.72 c 0,-0.831 0.006,-1.669 0.006,-2.501 0.832,-0.025 1.663,-0.05 2.501,-0.068 0,0.831 -0.006,1.663 0,2.494 -0.006,0.594 -0.006,1.195 -0.006,1.795 0,1.263 0,2.526 0.006,3.789 0.025,8.642 0.144,17.152 0.357,25.449 0.019,0.838 0.043,1.67 0.062,2.501 0.263,9.423 0.638,18.565 1.12,27.3 -0.876,-0.525 -1.745,-1.069 -2.595,-1.632 -0.438,-8.26 -0.782,-16.876 -1.026,-25.736 M 2.651,0.913 C 1.763,0.619 0.882,0.319 0,0 c -0.3,-2.182 -0.594,-4.458 -0.881,-6.822 -0.957,-7.941 -1.789,-16.657 -2.483,-25.98 0.857,0.437 1.726,0.856 2.601,1.256 0.669,8.736 1.463,16.927 2.364,24.424 0.35,2.876 0.7,5.553 1.05,8.035 m 27.888,-78.692 c -0.019,0.838 -0.044,1.669 -0.062,2.501 -0.07,2.345 -0.138,4.677 -0.219,6.984 -0.363,10.524 -0.87,20.641 -1.514,30.189 -0.331,4.94 -0.706,9.73 -1.113,14.344 -0.525,5.959 -1.113,11.624 -1.757,16.939 -0.55,4.559 -1.131,8.779 -1.744,12.65 -0.232,1.45 -0.469,2.851 -0.707,4.195 -0.325,1.889 -0.669,3.677 -1.019,5.372 -0.331,1.619 -0.675,3.145 -1.019,4.576 -0.332,1.364 -0.663,2.646 -1.007,3.84 -2.351,8.235 -4.852,12.068 -7.878,12.068 -3.027,0 -5.534,-3.833 -7.885,-12.068 -0.657,-2.295 -1.288,-4.909 -1.907,-7.822 0.9,0.256 1.807,0.512 2.713,0.75 3.508,16.02 6.622,16.639 7.079,16.639 0.425,0 3.176,-0.544 6.402,-13.775 0.901,-3.658 1.826,-8.279 2.752,-14.132 0.581,-3.689 1.163,-7.866 1.738,-12.593 0.644,-5.315 1.225,-10.974 1.751,-16.926 0.112,-1.238 0.219,-2.495 0.319,-3.758 0.187,-2.239 0.362,-4.521 0.531,-6.841 0.094,-1.251 0.182,-2.501 0.269,-3.77 0.481,-7.154 0.882,-14.626 1.207,-22.348 0.2,-4.746 0.369,-9.586 0.506,-14.507 0.025,-0.831 0.044,-1.663 0.069,-2.501 0.244,-9.629 0.369,-19.552 0.369,-29.632 0,-0.732 0,-1.463 -0.006,-2.195 0,-0.838 0,-1.669 -0.007,-2.501 -0.062,-16.926 -0.481,-33.334 -1.231,-48.641 v -0.006 c -0.275,-5.59 -0.594,-11.024 -0.951,-16.289 -0.344,-4.958 -0.719,-9.754 -1.125,-14.369 -0.513,-5.721 -1.082,-11.167 -1.701,-16.288 -0.225,-1.882 -0.456,-3.677 -0.688,-5.384 -0.756,-5.628 -1.526,-10.355 -2.282,-14.325 -3.846,-20.072 -7.435,-20.791 -7.922,-20.791 -0.507,0 -4.302,0.763 -8.267,22.648 -0.875,0.162 -1.757,0.344 -2.632,0.538 0.938,-5.34 1.951,-9.892 3.014,-13.619 2.351,-8.235 4.858,-12.068 7.885,-12.068 3.026,0 5.527,3.833 7.878,12.068 0.901,3.139 1.751,6.865 2.564,11.155 0.813,4.246 1.569,9.048 2.282,14.375 0.225,1.651 0.438,3.352 0.65,5.103 0.632,5.208 1.207,10.748 1.726,16.576 0.106,1.219 0.213,2.451 0.319,3.695 0.188,2.283 0.369,4.609 0.544,6.972 0.088,1.238 0.175,2.483 0.263,3.739 0.481,7.078 0.881,14.476 1.213,22.117 v 0.012 c 0.575,13.606 0.906,28.007 0.962,42.788 0.007,0.832 0.007,1.67 0.007,2.501 0.006,0.732 0.006,1.457 0.006,2.189 0,10.08 -0.125,19.99 -0.375,29.626 M 0,0 c -0.3,-2.182 -0.594,-4.458 -0.881,-6.822 -0.957,-7.941 -1.789,-16.657 -2.483,-25.98 0.857,0.437 1.726,0.856 2.601,1.256 0.669,8.736 1.463,16.927 2.364,24.424 0.35,2.876 0.7,5.553 1.05,8.035 C 1.763,0.619 0.882,0.319 0,0 m -4.464,-49.998 c -0.438,-8.26 -0.782,-16.876 -1.026,-25.736 -0.019,-0.832 -0.044,-1.664 -0.062,-2.501 -0.219,-8.648 -0.338,-17.527 -0.357,-26.544 -0.006,-0.875 -0.006,-1.751 -0.006,-2.626 v -1.72 c 0,-0.831 0.006,-1.669 0.006,-2.501 0.832,-0.025 1.663,-0.05 2.501,-0.068 0,0.831 -0.006,1.663 0,2.494 -0.006,0.594 -0.006,1.195 -0.006,1.795 0,1.263 0,2.526 0.006,3.789 0.025,8.642 0.144,17.152 0.357,25.449 0.019,0.838 0.043,1.67 0.062,2.501 0.263,9.423 0.638,18.565 1.12,27.3 -0.876,-0.525 -1.745,-1.069 -2.595,-1.632 m 6.065,-157.696 c -0.8,6.647 -1.513,13.837 -2.132,21.478 -0.876,0.338 -1.739,0.688 -2.595,1.051 0.644,-8.142 1.394,-15.789 2.245,-22.829 0.068,-0.557 0.137,-1.107 0.206,-1.651 0.863,-0.238 1.726,-0.469 2.601,-0.682 -0.106,0.857 -0.219,1.739 -0.325,2.633 M 0,0 c -0.3,-2.182 -0.594,-4.458 -0.881,-6.822 -0.957,-7.941 -1.789,-16.657 -2.483,-25.98 0.857,0.437 1.726,0.856 2.601,1.256 0.669,8.736 1.463,16.927 2.364,24.424 0.35,2.876 0.7,5.553 1.05,8.035 C 1.763,0.619 0.882,0.319 0,0 m -4.464,-49.998 c -0.438,-8.26 -0.782,-16.876 -1.026,-25.736 -0.019,-0.832 -0.044,-1.664 -0.062,-2.501 -0.219,-8.648 -0.338,-17.527 -0.357,-26.544 -0.006,-0.875 -0.006,-1.751 -0.006,-2.626 v -1.72 c 0,-0.831 0.006,-1.669 0.006,-2.501 0.832,-0.025 1.663,-0.05 2.501,-0.068 0,0.831 -0.006,1.663 0,2.494 -0.006,0.594 -0.006,1.195 -0.006,1.795 0,1.263 0,2.526 0.006,3.789 0.025,8.642 0.144,17.152 0.357,25.449 0.019,0.838 0.043,1.67 0.062,2.501 0.263,9.423 0.638,18.565 1.12,27.3 -0.876,-0.525 -1.745,-1.069 -2.595,-1.632 M 0,0 c -0.3,-2.182 -0.594,-4.458 -0.881,-6.822 -0.957,-7.941 -1.789,-16.657 -2.483,-25.98 0.857,0.437 1.726,0.856 2.601,1.256 0.669,8.736 1.463,16.927 2.364,24.424 0.35,2.876 0.7,5.553 1.05,8.035 C 1.763,0.619 0.882,0.319 0,0 m -3.364,-118.723 c -0.019,2.333 -0.031,4.671 -0.044,7.029 0,0.831 -0.006,1.663 0,2.494 -0.006,0.594 -0.006,1.195 -0.006,1.795 0,1.263 0,2.526 0.006,3.789 0.025,8.642 0.144,17.152 0.357,25.449 0.019,0.838 0.043,1.67 0.062,2.501 0.263,9.423 0.638,18.565 1.12,27.3 -0.876,-0.525 -1.745,-1.069 -2.595,-1.632 -0.438,-8.26 -0.782,-16.876 -1.026,-25.736 -0.019,-0.832 -0.044,-1.664 -0.062,-2.501 -0.219,-8.648 -0.338,-17.527 -0.357,-26.544 -0.006,-0.875 -0.006,-1.751 -0.006,-2.626 v -1.72 c 0,-0.831 0.006,-1.669 0.006,-2.501 0.006,-1.982 0.019,-3.958 0.038,-5.927 v -0.007 c 0.15,-17.902 0.7,-35.147 1.619,-51.029 0.844,-0.488 1.707,-0.95 2.583,-1.388 -0.945,15.913 -1.52,33.24 -1.695,51.254 M 0,0 c -0.3,-2.182 -0.594,-4.458 -0.881,-6.822 -0.957,-7.941 -1.789,-16.657 -2.483,-25.98 0.857,0.437 1.726,0.856 2.601,1.256 0.669,8.736 1.463,16.927 2.364,24.424 0.35,2.876 0.7,5.553 1.05,8.035 C 1.763,0.619 0.882,0.319 0,0 m 0,0 c -0.3,-2.182 -0.594,-4.458 -0.881,-6.822 -0.957,-7.941 -1.789,-16.657 -2.483,-25.98 0.857,0.437 1.726,0.856 2.601,1.256 0.669,8.736 1.463,16.927 2.364,24.424 0.35,2.876 0.7,5.553 1.05,8.035 C 1.763,0.619 0.882,0.319 0,0 m 0,0 c -0.3,-2.182 -0.594,-4.458 -0.881,-6.822 -0.957,-7.941 -1.789,-16.657 -2.483,-25.98 0.857,0.437 1.726,0.856 2.601,1.256 0.669,8.736 1.463,16.927 2.364,24.424 0.35,2.876 0.7,5.553 1.05,8.035 C 1.763,0.619 0.882,0.319 0,0 m -4.464,-49.998 c -0.438,-8.26 -0.782,-16.876 -1.026,-25.736 -0.019,-0.832 -0.044,-1.664 -0.062,-2.501 -0.219,-8.648 -0.338,-17.527 -0.357,-26.544 -0.006,-0.875 -0.006,-1.751 -0.006,-2.626 v -1.72 c 0,-0.831 0.006,-1.669 0.006,-2.501 0.832,-0.025 1.663,-0.05 2.501,-0.068 0,0.831 -0.006,1.663 0,2.494 -0.006,0.594 -0.006,1.195 -0.006,1.795 0,1.263 0,2.526 0.006,3.789 0.025,8.642 0.144,17.152 0.357,25.449 0.019,0.838 0.043,1.67 0.062,2.501 0.263,9.423 0.638,18.565 1.12,27.3 -0.876,-0.525 -1.745,-1.069 -2.595,-1.632 M 0,0 c -0.3,-2.182 -0.594,-4.458 -0.881,-6.822 -0.957,-7.941 -1.789,-16.657 -2.483,-25.98 0.857,0.437 1.726,0.856 2.601,1.256 0.669,8.736 1.463,16.927 2.364,24.424 0.35,2.876 0.7,5.553 1.05,8.035 C 1.763,0.619 0.882,0.319 0,0"
               style="fill:#eb2e32;fill-opacity:1;fill-rule:nonzero;stroke:none"
               id="path5494" />
          </g>
        </g>
      </g>
    </g>
  </g>
</svg>
