<?xml version="1.0" encoding="UTF-8" standalone="no"?>
<!-- Created with Inkscape (http://www.inkscape.org/) -->

<svg
   version="1.1"
   id="svg2"
   width="2560"
   height="1440"
   viewBox="0 0 2560 1440"
   sodipodi:docname="REVELÔ_ELEMENTOS DE MARCA.ai"
   xmlns:inkscape="http://www.inkscape.org/namespaces/inkscape"
   xmlns:sodipodi="http://sodipodi.sourceforge.net/DTD/sodipodi-0.dtd"
   xmlns="http://www.w3.org/2000/svg"
   xmlns:svg="http://www.w3.org/2000/svg">
  <defs
     id="defs6">
    <clipPath
       clipPathUnits="userSpaceOnUse"
       id="clipPath3190">
      <path
         d="M 0,1080 H 1920 V 0 H 0 Z"
         id="path3188" />
    </clipPath>
  </defs>
  <sodipodi:namedview
     id="namedview4"
     pagecolor="#ffffff"
     bordercolor="#000000"
     borderopacity="0.25"
     inkscape:showpageshadow="2"
     inkscape:pageopacity="0.0"
     inkscape:pagecheckerboard="0"
     inkscape:deskcolor="#d1d1d1"
     showgrid="false" />
  <g
     id="g1556"
     inkscape:groupmode="layer"
     inkscape:label="Page 2"
     transform="matrix(1.3333333,0,0,-1.3333333,0,1440)">
    <g
       id="g3184">
      <g
         id="g3186"
         clip-path="url(#clipPath3190)">
        <g
           id="g3224"
           transform="translate(710.0004,787.4042)">
          <g
             id="g68864">
            <path
               d="m 0,0 c -1.394,-1.67 -2.545,-3.622 -3.459,-5.85 h -0.227 l -0.077,29.638 h 8.818 c 4.812,0 7.219,-2.481 7.219,-7.446 0,-1.875 -0.545,-3.561 -1.635,-5.055 C 9.549,9.793 7.841,7.956 5.51,5.776 3.231,3.597 1.394,1.673 0,0 m 26.638,-37.466 c -1.622,4.609 -2.789,8.764 -3.497,12.463 L 19.342,-4.485 C 18.836,-1.798 17.63,0.228 15.733,1.596 13.832,2.965 11.639,3.648 9.158,3.648 7.485,3.648 5.764,3.27 3.991,2.51 v 0.151 c 0.808,0.708 1.747,1.429 2.811,2.167 1.064,0.734 2.215,1.481 3.459,2.24 1.24,0.76 2.013,1.218 2.317,1.369 2.129,1.164 3.786,2.167 4.979,3 1.189,0.837 2.176,1.799 2.962,2.889 0.785,1.089 1.179,2.343 1.179,3.763 0,2.481 -0.913,4.279 -2.737,5.395 -1.824,1.115 -3.876,1.673 -6.155,1.673 h -27.891 v -0.151 c 0.557,-1.724 0.936,-3.776 1.138,-6.157 0.202,-2.382 0.304,-5.421 0.304,-9.12 v -34.505 c 0,-3.699 -0.102,-6.738 -0.304,-9.119 -0.202,-2.382 -0.581,-4.434 -1.138,-6.155 v -0.154 h 12.844 v 0.154 c -0.965,3.241 -1.445,8.331 -1.445,15.274 v 10.412 c 0.102,3.141 0.618,5.892 1.557,8.248 0.936,2.356 2.065,4.151 3.382,5.395 1.318,1.24 2.61,1.862 3.876,1.862 1.167,0 2.205,-0.493 3.116,-1.481 0.913,-0.99 1.545,-2.446 1.901,-4.372 l 6.003,-35.492 h 11.326 v 0.154 c -0.103,0.301 -0.382,1.164 -0.837,2.584"
               style="fill:#000000;fill-opacity:1;fill-rule:nonzero;stroke:none"
               id="path3202"
               transform="translate(-219.84561,-26.707103)" />
            <path
               d="m 0,0 v -6.992 c -1.571,1.114 -3.636,2.102 -6.194,2.964 -2.559,0.861 -5.13,1.52 -7.714,1.976 -2.584,0.456 -4.636,0.684 -6.156,0.684 h -2.204 v -11.096 c 0,-3.192 0.823,-5.561 2.47,-7.106 1.646,-1.546 3.749,-2.546 6.309,-3.002 2.557,-0.456 5.813,-0.684 9.765,-0.684 v -7.752 c -2.483,1.57 -6.739,4.053 -12.768,7.448 -1.115,0 -2.078,-0.418 -2.888,-1.254 -0.811,-0.836 -1.495,-2.8 -2.052,-5.89 -0.558,-3.091 -0.836,-7.803 -0.836,-14.136 v -19.152 h 2.204 c 1.52,0 3.572,0.228 6.156,0.684 2.584,0.456 5.155,1.114 7.714,1.976 2.558,0.861 4.623,1.849 6.194,2.964 v -6.992 h -33.668 v 0.152 c 0.557,1.722 0.937,3.774 1.14,6.156 0.202,2.381 0.304,5.421 0.304,9.12 v 3.572 c 0,4.56 0.633,8.512 1.9,11.856 1.266,3.344 2.9,5.978 4.902,7.904 2.001,1.925 4.091,3.242 6.27,3.952 -4.256,1.52 -7.499,3.546 -9.728,6.08 -2.23,2.533 -3.344,5.244 -3.344,8.132 v -0.836 c 0,2.229 -0.102,4.066 -0.304,5.51 -0.203,1.444 -0.583,2.672 -1.14,3.686 V 0 Z"
               style="fill:#ec2e31;fill-opacity:1;fill-rule:nonzero;stroke:none"
               id="path3206"
               transform="translate(-154.67639,-1.5503029)" />
            <path
               d="m 0,0 -16.644,-65.36 h -7.828 v 0.152 c 0.253,0.861 0.38,1.697 0.38,2.508 0,1.114 -0.14,2.318 -0.418,3.61 -0.279,1.292 -0.722,2.976 -1.33,5.054 -0.711,2.736 -1.039,3.952 -0.988,3.648 l -8.892,35.416 c -0.76,2.989 -1.976,6.51 -3.648,10.564 -0.203,0.506 -0.482,1.19 -0.836,2.052 -0.355,0.861 -0.608,1.596 -0.76,2.204 V 0 h 12.844 v -0.152 c -0.254,-0.862 -0.38,-1.698 -0.38,-2.508 0,-0.963 0.101,-1.964 0.304,-3.002 0.202,-1.039 0.443,-2.09 0.722,-3.154 0.277,-1.064 0.468,-1.774 0.57,-2.128 l 1.064,-4.028 10.336,-41.648 9.272,37.088 c 0.962,3.597 1.444,7.169 1.444,10.716 0,3.901 -0.71,6.84 -2.128,8.816 z"
               style="fill:#000000;fill-opacity:1;fill-rule:nonzero;stroke:none"
               id="path3210"
               transform="translate(-110.97614,-1.5503029)" />
            <path
               d="m 0,0 v -6.992 c -1.571,1.114 -3.636,2.102 -6.194,2.964 -2.559,0.861 -5.13,1.52 -7.714,1.976 -2.584,0.456 -4.635,0.684 -6.156,0.684 h -2.204 v -11.096 c 0,-3.192 0.823,-5.561 2.47,-7.106 1.646,-1.546 3.749,-2.546 6.309,-3.002 2.557,-0.456 5.813,-0.684 9.765,-0.684 v -7.752 c -2.483,1.57 -6.739,4.053 -12.768,7.448 -1.115,0 -2.078,-0.418 -2.888,-1.254 -0.811,-0.836 -1.495,-2.8 -2.051,-5.89 -0.559,-3.091 -0.837,-7.803 -0.837,-14.136 v -19.152 h 2.204 c 1.521,0 3.572,0.228 6.156,0.684 2.584,0.456 5.155,1.114 7.714,1.976 2.558,0.861 4.623,1.849 6.194,2.964 v -6.992 h -33.668 v 0.152 c 0.557,1.722 0.937,3.774 1.14,6.156 0.202,2.381 0.304,5.421 0.304,9.12 v 3.572 c 0,4.56 0.633,8.512 1.9,11.856 1.266,3.344 2.9,5.978 4.902,7.904 2.001,1.925 4.091,3.242 6.27,3.952 -4.256,1.52 -7.499,3.546 -9.728,6.08 -2.23,2.533 -3.344,5.244 -3.344,8.132 v -0.836 c 0,2.229 -0.102,4.066 -0.304,5.51 -0.203,1.444 -0.583,2.672 -1.14,3.686 V 0 Z"
               style="fill:#000000;fill-opacity:1;fill-rule:nonzero;stroke:none"
               id="path3214"
               transform="translate(-72.672584,-1.5503029)" />
            <path
               d="m 0,0 v 0.152 c 0.557,1.722 0.937,3.774 1.14,6.156 0.202,2.381 0.304,5.421 0.304,9.12 v 34.504 c 0,3.698 -0.102,6.738 -0.304,9.12 C 0.937,61.433 0.557,63.485 0,65.208 V 65.36 H 12.844 V 65.208 C 11.881,61.965 11.4,56.873 11.4,49.932 V 1.292 h 2.204 c 1.52,0 3.572,0.228 6.156,0.684 2.584,0.456 5.155,1.114 7.714,1.976 2.558,0.861 4.623,1.849 6.194,2.964 V 0 Z"
               style="fill:#000000;fill-opacity:1;fill-rule:nonzero;stroke:none"
               id="path3218"
               transform="translate(-66.896534,-66.910397)" />
            <path
               d="m 0,0 c -1.798,5.068 -4.398,8.918 -7.789,11.553 -1.251,0.972 -2.59,1.763 -4.014,2.376 -0.22,0.095 -0.475,0.086 -0.687,-0.026 -0.628,-0.334 -1.223,-0.721 -1.779,-1.154 -0.378,-0.295 -0.405,-0.863 -0.06,-1.195 1.393,-1.341 2.573,-3.281 3.536,-5.816 2.051,-5.395 3.077,-13.412 3.077,-24.054 0,-10.842 -1.026,-18.974 -3.077,-24.395 -2.052,-5.423 -5.081,-8.132 -9.081,-8.132 -3.751,0 -6.716,2.76 -8.892,8.283 -2.18,5.523 -3.267,13.604 -3.267,24.244 0,6.994 0.503,12.895 1.519,17.71 1.013,4.812 2.43,8.421 4.254,10.828 0.32,0.422 0.649,0.806 0.988,1.154 0.33,0.338 0.317,0.886 -0.048,1.186 -0.604,0.497 -1.259,0.935 -1.955,1.309 -0.214,0.114 -0.471,0.123 -0.694,0.026 -1.397,-0.608 -2.713,-1.389 -3.952,-2.344 -3.42,-2.635 -6.042,-6.498 -7.866,-11.592 -1.824,-5.09 -2.734,-11.184 -2.734,-18.277 0,-7.142 0.91,-13.275 2.734,-18.391 1.824,-5.119 4.446,-9.007 7.866,-11.665 3.421,-2.66 7.437,-3.99 12.047,-3.99 4.66,0 8.69,1.33 12.085,3.99 3.391,2.658 5.991,6.546 7.789,11.665 1.798,5.116 2.699,11.249 2.699,18.391 C 2.699,-11.171 1.798,-5.065 0,0"
               style="fill:#000000;fill-opacity:1;fill-rule:nonzero;stroke:none"
               id="path3222"
               transform="translate(11.459868,-15.764903)" />
            <path
               d="m 0,0 c -0.811,-0.301 -1.587,-0.676 -2.314,-1.119 -0.834,-0.506 -1.609,-1.099 -2.311,-1.772 -1.453,-1.392 -2.594,-3.107 -3.309,-5.039 -0.089,-0.244 -0.304,-0.363 -0.519,-0.363 -0.215,0 -0.43,0.119 -0.519,0.363 -0.693,1.872 -1.783,3.542 -3.174,4.91 -0.724,0.712 -1.532,1.343 -2.404,1.876 -0.74,0.455 -1.526,0.839 -2.353,1.144 -0.484,0.18 -0.484,0.862 0,1.039 3.674,1.359 6.572,4.257 7.931,7.933 0.089,0.241 0.304,0.363 0.519,0.363 0.215,0 0.43,-0.122 0.519,-0.363 C -6.574,5.296 -3.677,2.398 0,1.039 0.481,0.862 0.481,0.18 0,0"
               style="fill:#ec2e31;fill-opacity:1;fill-rule:nonzero;stroke:none"
               id="path3226" />
          </g>
        </g>
      </g>
    </g>
  </g>
</svg>
