<?xml version="1.0" encoding="UTF-8" standalone="no"?>
<!-- Created with Inkscape (http://www.inkscape.org/) -->

<svg
   version="1.1"
   id="svg2"
   width="2560"
   height="1440"
   viewBox="0 0 2560 1440"
   sodipodi:docname="REVELÔ_ELEMENTOS DE MARCA.ai"
   xmlns:inkscape="http://www.inkscape.org/namespaces/inkscape"
   xmlns:sodipodi="http://sodipodi.sourceforge.net/DTD/sodipodi-0.dtd"
   xmlns="http://www.w3.org/2000/svg"
   xmlns:svg="http://www.w3.org/2000/svg">
  <defs
     id="defs6">
    <clipPath
       clipPathUnits="userSpaceOnUse"
       id="clipPath11970">
      <path
         d="M 0,1080 H 1920 V 0 H 0 Z"
         id="path11968" />
    </clipPath>
    <clipPath
       clipPathUnits="userSpaceOnUse"
       id="clipPath12434">
      <path
         d="M 0,1080 H 1920 V 0 H 0 Z"
         id="path12432" />
    </clipPath>
  </defs>
  <sodipodi:namedview
     id="namedview4"
     pagecolor="#ffffff"
     bordercolor="#000000"
     borderopacity="0.25"
     inkscape:showpageshadow="2"
     inkscape:pageopacity="0.0"
     inkscape:pagecheckerboard="0"
     inkscape:deskcolor="#d1d1d1"
     showgrid="false" />
  <g
     id="g11950"
     inkscape:groupmode="layer"
     inkscape:label="Page 9"
     transform="matrix(1.3333333,0,0,-1.3333333,0,1440)">
    <path
       d="m 0,540 h 1920 v 540 H 0 Z"
       style="fill:#f2f0e7;fill-opacity:1;fill-rule:nonzero;stroke:none"
       id="path11952" />
    <path
       d="M 0,0 H 1920 V 538.858 H 0 Z"
       style="fill:#1d1e21;fill-opacity:1;fill-rule:nonzero;stroke:none"
       id="path11954" />
    <text
       xml:space="preserve"
       transform="matrix(1,0,0,-1,39.6072,1021.9786)"
       style="font-variant:normal;font-stretch:normal;font-size:24.1553px;font-family:'NeueHaasGroteskDisp Pro';-inkscape-font-specification:NHaasGroteskDSPro-55Rg;writing-mode:lr-tb;fill:#f2f0e7;fill-opacity:1;fill-rule:nonzero;stroke:none"
       id="text11962"><tspan
         x="0 15.797566 30.822163 45.774292 60.798889 74.180923 89.833557 109.88246 128.72359 143.84482 147.6855 162.49271 181.33383 197.22803 202.73543 215.03049"
         y="0"
         sodipodi:role="line"
         id="tspan11956">REVELAMOS AQUILO</tspan><tspan
         x="1636.9805 1655.8217 1671.7158 1686.7405 1690.5812 1705.7024 1720.7269 1724.5676 1739.5923 1743.433 1748.9403 1765.6799 1782.4413 1798.094 1811.3311 1826.9836"
         y="0.072465897"
         sodipodi:role="line"
         id="tspan11958">QUE SE É INCAPAZ</tspan><tspan
         x="1678.1653 1694.6875 1709.7122 1713.5529 1728.5774 1745.317 1760.1967 1775.2213 1791.0189 1808.9421 1824.5947"
         y="981.98541"
         sodipodi:role="line"
         id="tspan11960">DE ENXERGAR</tspan></text>
    <g
       id="g11964">
      <g
         id="g11966"
         clip-path="url(#clipPath11970)">
        <g
           id="g11972"
           transform="translate(1333.1536,834.0045)">
          <path
             d="M 0,0 C -2.054,-2.46 -3.749,-5.336 -5.095,-8.617 H -5.43 l -0.114,43.658 h 12.99 c 7.088,0 10.634,-3.655 10.634,-10.969 0,-2.762 -0.803,-5.246 -2.408,-7.446 C 14.066,14.425 11.55,11.72 8.117,8.509 4.76,5.298 2.054,2.465 0,0 m 39.239,-55.189 c -2.39,6.79 -4.109,12.91 -5.152,18.359 l -5.596,30.224 c -0.746,3.957 -2.521,6.941 -5.316,8.957 -2.8,2.017 -6.03,3.023 -9.685,3.023 -2.464,0 -5,-0.558 -7.611,-1.677 v 0.222 c 1.189,1.044 2.573,2.106 4.141,3.192 1.567,1.081 3.262,2.182 5.095,3.301 1.827,1.119 2.965,1.794 3.413,2.016 3.136,1.714 5.577,3.192 7.334,4.42 1.751,1.232 3.206,2.649 4.362,4.254 1.157,1.605 1.738,3.452 1.738,5.543 0,3.655 -1.346,6.304 -4.032,7.947 -2.687,1.644 -5.709,2.465 -9.066,2.465 h -41.085 v -0.222 c 0.821,-2.54 1.379,-5.562 1.676,-9.071 0.298,-3.508 0.449,-7.984 0.449,-13.433 v -50.826 c 0,-5.449 -0.151,-9.925 -0.449,-13.434 -0.297,-3.508 -0.855,-6.53 -1.676,-9.066 v -0.226 h 18.92 v 0.226 c -1.421,4.774 -2.129,12.272 -2.129,22.5 v 15.336 c 0.151,4.628 0.911,8.679 2.295,12.15 1.378,3.47 3.04,6.115 4.981,7.947 1.941,1.827 3.844,2.743 5.709,2.743 1.719,0 3.248,-0.727 4.589,-2.181 1.346,-1.46 2.277,-3.603 2.801,-6.441 l 8.844,-52.28 h 16.682 v 0.226 c -0.151,0.444 -0.562,1.714 -1.232,3.806"
             style="fill:#1d1e21;fill-opacity:1;fill-rule:nonzero;stroke:none"
             id="path11974" />
        </g>
        <g
           id="g11976"
           transform="translate(1430.948,871.0612)">
          <path
             d="m 0,0 -24.517,-96.277 h -11.531 v 0.224 c 0.373,1.268 0.56,2.499 0.56,3.694 0,1.641 -0.207,3.414 -0.616,5.318 -0.411,1.903 -1.064,4.383 -1.959,7.444 -1.047,4.031 -1.531,5.822 -1.456,5.374 l -13.098,52.169 c -1.119,4.403 -2.911,9.589 -5.373,15.561 -0.299,0.745 -0.711,1.753 -1.232,3.023 -0.523,1.268 -0.895,2.35 -1.119,3.246 V 0 h 18.919 v -0.224 c -0.374,-1.27 -0.559,-2.501 -0.559,-3.694 0,-1.419 0.148,-2.893 0.447,-4.422 0.298,-1.531 0.653,-3.079 1.064,-4.646 0.409,-1.568 0.689,-2.614 0.84,-3.135 l 1.567,-5.933 15.225,-61.349 13.658,54.632 c 1.417,5.298 2.127,10.56 2.127,15.785 0,5.746 -1.046,10.075 -3.134,12.986 z"
             style="fill:#1d1e21;fill-opacity:1;fill-rule:nonzero;stroke:none"
             id="path11978" />
        </g>
        <g
           id="g11980"
           transform="translate(1437.4462,774.7839)">
          <path
             d="m 0,0 v 0.224 c 0.821,2.536 1.381,5.559 1.679,9.068 0.298,3.507 0.448,7.985 0.448,13.434 v 50.825 c 0,5.447 -0.15,9.926 -0.448,13.434 C 1.381,90.493 0.821,93.515 0,96.053 v 0.224 H 18.92 V 96.053 C 17.501,91.276 16.792,83.776 16.792,73.551 V 1.903 h 3.247 c 2.24,0 5.262,0.336 9.068,1.008 3.807,0.671 7.593,1.641 11.363,2.91 3.768,1.269 6.81,2.724 9.124,4.366 V 0 Z"
             style="fill:#1d1e21;fill-opacity:1;fill-rule:nonzero;stroke:none"
             id="path11982" />
        </g>
        <g
           id="g11984"
           transform="translate(1549.2629,850.1227)">
          <path
             d="m 0,0 c -2.649,7.465 -6.478,13.136 -11.474,17.018 -1.843,1.432 -3.814,2.597 -5.911,3.5 -0.325,0.14 -0.7,0.127 -1.012,-0.039 -0.926,-0.492 -1.803,-1.061 -2.622,-1.7 -0.557,-0.433 -0.597,-1.271 -0.089,-1.76 2.052,-1.975 3.792,-4.833 5.21,-8.567 3.022,-7.947 4.533,-19.756 4.533,-35.433 0,-15.969 -1.511,-27.948 -4.533,-35.933 -3.022,-7.989 -7.485,-11.979 -13.378,-11.979 -5.524,0 -9.892,4.065 -13.098,12.201 -3.211,8.136 -4.811,20.04 -4.811,35.711 0,10.303 0.741,18.996 2.238,26.089 1.492,7.087 3.579,12.404 6.266,15.95 0.47,0.621 0.956,1.187 1.455,1.698 0.486,0.499 0.467,1.307 -0.071,1.749 -0.89,0.731 -1.854,1.376 -2.88,1.927 -0.315,0.169 -0.694,0.182 -1.021,0.039 -2.059,-0.896 -3.997,-2.046 -5.822,-3.453 -5.038,-3.882 -8.901,-9.572 -11.587,-17.075 -2.687,-7.498 -4.028,-16.474 -4.028,-26.924 0,-10.52 1.341,-19.553 4.028,-27.089 2.686,-7.541 6.549,-13.268 11.587,-17.183 5.038,-3.919 10.955,-5.878 17.744,-5.878 6.866,0 12.801,1.959 17.802,5.878 4.996,3.915 8.825,9.642 11.474,17.183 2.649,7.536 3.976,16.569 3.976,27.089 C 3.976,-16.456 2.649,-7.461 0,0"
             style="fill:#1d1e21;fill-opacity:1;fill-rule:nonzero;stroke:none"
             id="path11986" />
        </g>
        <g
           id="g11988"
           transform="translate(1532.3823,873.3447)">
          <path
             d="m 0,0 c -1.195,-0.444 -2.337,-0.996 -3.409,-1.648 -1.228,-0.746 -2.37,-1.619 -3.404,-2.611 -2.14,-2.049 -3.821,-4.576 -4.874,-7.423 -0.132,-0.359 -0.448,-0.533 -0.764,-0.533 -0.317,0 -0.633,0.174 -0.765,0.533 -1.02,2.758 -2.626,5.218 -4.675,7.234 -1.067,1.048 -2.257,1.979 -3.541,2.762 -1.091,0.671 -2.248,1.237 -3.466,1.686 -0.713,0.264 -0.713,1.27 0,1.53 5.411,2.002 9.679,6.271 11.682,11.686 0.132,0.355 0.448,0.534 0.765,0.534 0.316,0 0.632,-0.179 0.764,-0.534 C -9.684,7.801 -5.416,3.532 0,1.53 0.708,1.27 0.708,0.264 0,0"
             style="fill:#1d1e21;fill-opacity:1;fill-rule:nonzero;stroke:none"
             id="path11990" />
        </g>
        <g
           id="g11992"
           transform="translate(1338.6143,733.1255)">
          <path
             d="M 0,0 H -13.841 V 19.562 H 0.186 c 6.641,0 10.517,-3.509 10.517,-9.69 C 10.703,3.876 7.013,0 0,0 m 18.549,25.005 c -3.876,3.969 -9.598,6.186 -17.257,6.186 h -28.974 v -65.979 h 13.841 V -10.89 H 2.398 c 13.846,0 22.058,8.399 22.058,20.855 0,6.088 -2.217,11.256 -5.907,15.04"
             style="fill:#1d1e21;fill-opacity:1;fill-rule:nonzero;stroke:none"
             id="path11994" />
        </g>
        <g
           id="g11996"
           transform="translate(1397.3008,735.1566)">
          <path
             d="M 0,0 H -14.208 V 18.363 H 0.372 C 7.478,18.363 10.89,14.394 10.89,9.04 10.89,3.783 7.292,0 0,0 m 21.872,-18.735 c -0.832,8.027 -3.969,11.536 -10.058,13.288 v 0.279 c 8.487,2.305 12.089,8.212 12.089,15.965 0,10.977 -8.491,18.363 -21.226,18.363 h -30.266 v -65.979 h 13.381 v 26.483 h 10.797 c 8.305,0 12.362,-4.063 12.915,-11.257 0.558,-7.107 0.74,-14.492 2.403,-15.226 H 24.73 v 0.641 c -2.305,1.018 -1.933,8.125 -2.858,17.443"
             style="fill:#1d1e21;fill-opacity:1;fill-rule:nonzero;stroke:none"
             id="path11998" />
        </g>
        <g
           id="g12000"
           transform="translate(1458.8502,707.9349)">
          <path
             d="m 0,0 c -12.089,0 -18.27,10.239 -18.27,23.345 0,13.195 6.181,23.439 18.27,23.439 12.089,0 17.996,-10.244 17.996,-23.439 C 17.996,10.239 12.089,0 0,0 m -0.093,57.766 c -19.469,0 -31.837,-14.672 -31.837,-34.421 0,-19.748 12.368,-34.327 31.837,-34.327 19.474,0 31.744,14.579 31.744,34.327 0,19.749 -12.27,34.421 -31.744,34.421"
             style="fill:#1d1e21;fill-opacity:1;fill-rule:nonzero;stroke:none"
             id="path12002" />
        </g>
        <g
           id="g12004"
           transform="translate(1521.5059,709.8685)">
          <path
             d="M 0,0 H -10.332 V 43.005 H 0.372 c 11.35,0 17.071,-9.137 17.071,-22.239 C 17.443,7.659 12.549,0 0,0 M 2.031,54.448 H -23.713 V -11.531 H 0.925 c 8.305,0 14.673,2.305 19.562,6.367 6.92,5.81 10.518,15.226 10.518,25.93 0,19.469 -11.35,33.682 -28.974,33.682"
             style="fill:#1d1e21;fill-opacity:1;fill-rule:nonzero;stroke:none"
             id="path12006" />
        </g>
        <path
           d="m 1568.73,712.282 h -13.945 v -13.945 h 13.945 z"
           style="fill:#1d1e21;fill-opacity:1;fill-rule:nonzero;stroke:none"
           id="path12008" />
        <g
           id="g12010"
           transform="translate(1616.7589,839.5493)">
          <path
             d="M 0,0 C -2.054,-2.46 -3.749,-5.336 -5.095,-8.617 H -5.43 l -0.114,43.658 h 12.99 c 7.088,0 10.634,-3.655 10.634,-10.969 0,-2.762 -0.803,-5.246 -2.408,-7.446 C 14.066,14.425 11.55,11.72 8.117,8.509 4.76,5.298 2.054,2.465 0,0 m 39.239,-55.189 c -2.39,6.79 -4.109,12.91 -5.152,18.359 l -5.596,30.224 c -0.746,3.957 -2.521,6.941 -5.316,8.957 -2.8,2.017 -6.03,3.022 -9.685,3.022 -2.464,0 -5,-0.557 -7.611,-1.676 v 0.222 c 1.189,1.044 2.573,2.106 4.141,3.192 1.567,1.081 3.262,2.182 5.095,3.301 1.827,1.119 2.965,1.794 3.413,2.016 3.136,1.714 5.577,3.192 7.334,4.42 1.751,1.232 3.206,2.648 4.362,4.254 1.157,1.605 1.738,3.452 1.738,5.543 0,3.655 -1.346,6.304 -4.032,7.947 -2.687,1.644 -5.709,2.465 -9.066,2.465 h -41.085 v -0.222 c 0.821,-2.54 1.379,-5.562 1.676,-9.071 0.298,-3.508 0.449,-7.984 0.449,-13.433 v -50.826 c 0,-5.449 -0.151,-9.925 -0.449,-13.434 -0.297,-3.508 -0.855,-6.53 -1.676,-9.066 v -0.226 h 18.92 v 0.226 c -1.421,4.774 -2.129,12.272 -2.129,22.5 v 15.336 c 0.151,4.628 0.911,8.679 2.295,12.15 1.378,3.47 3.04,6.115 4.981,7.947 1.941,1.827 3.844,2.743 5.709,2.743 1.719,0 3.248,-0.727 4.589,-2.181 1.346,-1.46 2.277,-3.603 2.801,-6.441 l 8.844,-52.28 h 16.682 v 0.226 c -0.151,0.444 -0.562,1.714 -1.232,3.806"
             style="fill:#1d1e21;fill-opacity:1;fill-rule:nonzero;stroke:none"
             id="path12012" />
        </g>
        <g
           id="g12014"
           transform="translate(1714.5533,876.606)">
          <path
             d="m 0,0 -24.517,-96.277 h -11.531 v 0.224 c 0.373,1.268 0.56,2.499 0.56,3.694 0,1.641 -0.207,3.414 -0.616,5.318 -0.411,1.903 -1.064,4.383 -1.959,7.444 -1.047,4.031 -1.531,5.822 -1.456,5.374 l -13.098,52.169 c -1.119,4.403 -2.911,9.589 -5.373,15.561 -0.299,0.745 -0.711,1.753 -1.232,3.023 -0.523,1.268 -0.895,2.35 -1.119,3.246 V 0 h 18.919 v -0.224 c -0.374,-1.27 -0.559,-2.501 -0.559,-3.694 0,-1.419 0.148,-2.893 0.447,-4.422 0.298,-1.531 0.653,-3.079 1.064,-4.646 0.409,-1.568 0.689,-2.614 0.84,-3.135 l 1.567,-5.933 15.225,-61.349 13.658,54.632 c 1.417,5.298 2.127,10.56 2.127,15.785 0,5.746 -1.046,10.075 -3.134,12.986 z"
             style="fill:#1d1e21;fill-opacity:1;fill-rule:nonzero;stroke:none"
             id="path12016" />
        </g>
        <g
           id="g12018"
           transform="translate(1721.0515,780.3287)">
          <path
             d="m 0,0 v 0.224 c 0.821,2.536 1.381,5.559 1.679,9.068 0.298,3.507 0.448,7.985 0.448,13.434 v 50.825 c 0,5.447 -0.15,9.926 -0.448,13.434 C 1.381,90.493 0.821,93.515 0,96.053 v 0.224 H 18.92 V 96.053 C 17.501,91.276 16.792,83.776 16.792,73.551 V 1.903 h 3.247 c 2.24,0 5.262,0.336 9.068,1.008 3.807,0.671 7.593,1.64 11.363,2.91 3.768,1.269 6.81,2.724 9.124,4.366 V 0 Z"
             style="fill:#1d1e21;fill-opacity:1;fill-rule:nonzero;stroke:none"
             id="path12020" />
        </g>
        <g
           id="g12022"
           transform="translate(1832.8683,855.6675)">
          <path
             d="m 0,0 c -2.649,7.465 -6.478,13.136 -11.474,17.017 -1.843,1.433 -3.814,2.598 -5.911,3.501 -0.325,0.14 -0.7,0.127 -1.012,-0.039 -0.926,-0.492 -1.803,-1.061 -2.622,-1.7 -0.557,-0.433 -0.597,-1.271 -0.089,-1.76 2.052,-1.975 3.792,-4.833 5.21,-8.567 3.022,-7.947 4.533,-19.756 4.533,-35.433 0,-15.969 -1.511,-27.948 -4.533,-35.933 -3.022,-7.989 -7.485,-11.979 -13.378,-11.979 -5.524,0 -9.892,4.065 -13.098,12.201 -3.211,8.136 -4.811,20.04 -4.811,35.711 0,10.303 0.741,18.996 2.238,26.088 1.492,7.088 3.579,12.405 6.266,15.951 0.47,0.621 0.956,1.187 1.455,1.698 0.486,0.499 0.467,1.307 -0.071,1.749 -0.89,0.731 -1.854,1.376 -2.88,1.927 -0.315,0.169 -0.694,0.182 -1.021,0.039 -2.059,-0.896 -3.997,-2.046 -5.822,-3.454 -5.038,-3.881 -8.901,-9.571 -11.587,-17.074 -2.687,-7.498 -4.028,-16.474 -4.028,-26.924 0,-10.52 1.341,-19.553 4.028,-27.089 2.686,-7.541 6.549,-13.268 11.587,-17.183 5.038,-3.919 10.955,-5.878 17.744,-5.878 6.866,0 12.801,1.959 17.802,5.878 4.996,3.915 8.825,9.642 11.474,17.183 2.649,7.536 3.976,16.569 3.976,27.089 C 3.976,-16.456 2.649,-7.461 0,0"
             style="fill:#1d1e21;fill-opacity:1;fill-rule:nonzero;stroke:none"
             id="path12024" />
        </g>
        <g
           id="g12026"
           transform="translate(1815.9877,878.8895)">
          <path
             d="m 0,0 c -1.195,-0.444 -2.337,-0.996 -3.409,-1.648 -1.228,-0.746 -2.37,-1.619 -3.404,-2.611 -2.14,-2.049 -3.821,-4.576 -4.874,-7.423 -0.132,-0.359 -0.448,-0.533 -0.764,-0.533 -0.317,0 -0.633,0.174 -0.765,0.533 -1.02,2.758 -2.626,5.218 -4.675,7.234 -1.067,1.048 -2.257,1.979 -3.541,2.762 -1.091,0.671 -2.248,1.237 -3.466,1.686 -0.713,0.264 -0.713,1.27 0,1.53 5.411,2.002 9.679,6.27 11.682,11.686 0.132,0.355 0.448,0.534 0.765,0.534 0.316,0 0.632,-0.179 0.764,-0.534 C -9.684,7.8 -5.416,3.532 0,1.53 0.708,1.27 0.708,0.264 0,0"
             style="fill:#1d1e21;fill-opacity:1;fill-rule:nonzero;stroke:none"
             id="path12028" />
        </g>
        <path
           d="m 1825.123,703.188 h -11.839 v 11.839 h 11.839 z m -22.699,5.406 c -4.151,-3.448 -9.557,-5.406 -16.608,-5.406 h -20.917 v 56.015 h 21.856 c 14.963,0 24.598,-12.066 24.598,-28.595 0,-9.087 -3.054,-17.082 -8.929,-22.014 m -70.665,-6.581 c -16.53,0 -27.029,12.378 -27.029,29.143 0,16.766 10.499,29.223 27.029,29.223 16.533,0 26.949,-12.457 26.949,-29.223 0,-16.765 -10.416,-29.143 -26.949,-29.143 m -31.18,1.175 h -10.886 c -1.413,0.624 -1.567,6.894 -2.041,12.927 -0.469,6.108 -3.914,9.557 -10.965,9.557 h -9.166 v -22.484 h -11.36 v 56.015 h 25.695 c 10.811,0 18.021,-6.27 18.021,-15.59 0,-6.581 -3.058,-11.597 -10.264,-13.554 v -0.236 c 5.169,-1.488 7.833,-4.467 8.539,-11.281 0.785,-7.912 0.47,-13.945 2.427,-14.809 z m -68.783,20.29 h -13.787 v -20.29 h -11.751 v 56.015 h 24.598 c 6.503,0 11.36,-1.882 14.651,-5.252 3.133,-3.212 5.015,-7.599 5.015,-12.768 0,-10.575 -6.972,-17.705 -18.726,-17.705 m -37.258,-32.07 h 242.306 v 79.576 h -242.306 z"
           style="fill:#1d1e21;fill-opacity:1;fill-rule:nonzero;stroke:none"
           id="path12030" />
        <g
           id="g12032"
           transform="translate(1679.8988,750.0369)">
          <path
             d="m 0,0 h -12.378 v -15.59 h 12.062 c 6.191,0 9.246,3.212 9.246,7.675 C 8.93,-3.37 6.033,0 0,0"
             style="fill:#1d1e21;fill-opacity:1;fill-rule:nonzero;stroke:none"
             id="path12034" />
        </g>
        <g
           id="g12036"
           transform="translate(1629.9174,749.3307)">
          <path
             d="m 0,0 h -11.908 v -16.608 h 11.75 c 5.954,0 9.087,3.291 9.087,8.381 C 8.929,-2.979 5.639,0 0,0"
             style="fill:#1d1e21;fill-opacity:1;fill-rule:nonzero;stroke:none"
             id="path12038" />
        </g>
        <g
           id="g12040"
           transform="translate(1731.8375,751.0551)">
          <path
             d="m 0,0 c -10.263,0 -15.511,-8.697 -15.511,-19.899 0,-11.127 5.248,-19.82 15.511,-19.82 10.263,0 15.278,8.693 15.278,19.82 C 15.278,-8.697 10.263,0 0,0"
             style="fill:#1d1e21;fill-opacity:1;fill-rule:nonzero;stroke:none"
             id="path12042" />
        </g>
        <g
           id="g12044"
           transform="translate(1785.3466,749.4886)">
          <path
             d="m 0,0 h -9.087 v -36.511 h 8.771 c 10.654,0 14.809,6.503 14.809,17.63 C 14.493,-7.758 9.636,0 0,0"
             style="fill:#1d1e21;fill-opacity:1;fill-rule:nonzero;stroke:none"
             id="path12046" />
        </g>
        <g
           id="g12048"
           transform="translate(756.6405,853.67)">
          <path
             d="M 0,0 C -1.767,-2.116 -3.225,-4.59 -4.383,-7.413 H -4.671 L -4.768,30.141 H 6.405 c 6.097,0 9.147,-3.143 9.147,-9.435 0,-2.376 -0.69,-4.512 -2.071,-6.405 C 12.1,12.408 9.935,10.081 6.982,7.319 4.094,4.557 1.767,2.12 0,0 m 33.752,-47.473 c -2.055,5.841 -3.533,11.105 -4.431,15.792 l -4.813,25.999 c -0.642,3.403 -2.169,5.97 -4.573,7.705 -2.409,1.734 -5.187,2.599 -8.331,2.599 -2.12,0 -4.301,-0.479 -6.547,-1.442 v 0.191 c 1.023,0.898 2.213,1.812 3.562,2.746 1.348,0.93 2.806,1.876 4.382,2.839 1.572,0.963 2.551,1.543 2.937,1.734 2.697,1.475 4.797,2.746 6.308,3.802 1.507,1.06 2.758,2.279 3.752,3.66 0.996,1.38 1.495,2.969 1.495,4.768 0,3.144 -1.157,5.422 -3.468,6.836 -2.311,1.413 -4.911,2.12 -7.799,2.12 h -35.34 v -0.191 c 0.706,-2.185 1.186,-4.785 1.442,-7.802 0.256,-3.018 0.386,-6.869 0.386,-11.556 v -43.72 c 0,-4.687 -0.13,-8.537 -0.386,-11.555 -0.256,-3.018 -0.736,-5.617 -1.442,-7.798 v -0.195 h 16.275 v 0.195 c -1.223,4.106 -1.832,10.556 -1.832,19.353 V -18.2 c 0.13,3.98 0.784,7.465 1.974,10.45 1.186,2.986 2.616,5.26 4.285,6.836 1.669,1.572 3.306,2.36 4.911,2.36 1.478,0 2.794,-0.626 3.947,-1.876 1.158,-1.256 1.958,-3.1 2.409,-5.541 l 7.608,-44.97 h 14.349 v 0.195 c -0.13,0.382 -0.483,1.474 -1.06,3.273"
             style="fill:#1d1e21;fill-opacity:1;fill-rule:nonzero;stroke:none"
             id="path12050" />
        </g>
        <g
           id="g12052"
           transform="translate(840.7616,885.5456)">
          <path
             d="m 0,0 -21.089,-82.816 h -9.919 v 0.193 c 0.321,1.09 0.482,2.15 0.482,3.177 0,1.412 -0.178,2.937 -0.53,4.575 -0.354,1.637 -0.915,3.77 -1.685,6.403 -0.9,3.467 -1.317,5.008 -1.252,4.623 l -11.267,44.874 c -0.963,3.788 -2.504,8.249 -4.622,13.386 -0.257,0.641 -0.611,1.507 -1.06,2.6 -0.449,1.091 -0.77,2.022 -0.963,2.792 V 0 h 16.275 v -0.193 c -0.322,-1.092 -0.482,-2.151 -0.482,-3.177 0,-1.221 0.128,-2.489 0.386,-3.804 0.255,-1.317 0.561,-2.648 0.914,-3.997 0.352,-1.348 0.593,-2.248 0.723,-2.696 l 1.348,-5.104 13.096,-52.771 11.749,46.993 c 1.218,4.558 1.829,9.084 1.829,13.578 0,4.943 -0.9,8.667 -2.696,11.171 z"
             style="fill:#1d1e21;fill-opacity:1;fill-rule:nonzero;stroke:none"
             id="path12054" />
        </g>
        <g
           id="g12056"
           transform="translate(846.3513,802.7296)">
          <path
             d="m 0,0 v 0.193 c 0.706,2.181 1.188,4.781 1.444,7.8 0.256,3.017 0.385,6.868 0.385,11.555 v 43.72 C 1.829,67.953 1.7,71.805 1.444,74.823 1.188,77.84 0.706,80.44 0,82.623 v 0.193 H 16.275 V 82.623 C 15.054,78.514 14.444,72.062 14.444,63.268 V 1.637 h 2.793 c 1.927,0 4.526,0.289 7.8,0.867 3.275,0.577 6.532,1.411 9.775,2.504 3.241,1.09 5.857,2.342 7.847,3.755 V 0 Z"
             style="fill:#1d1e21;fill-opacity:1;fill-rule:nonzero;stroke:none"
             id="path12058" />
        </g>
        <g
           id="g12060"
           transform="translate(942.534,867.5347)">
          <path
             d="m 0,0 c -2.279,6.421 -5.573,11.299 -9.87,14.638 -1.585,1.232 -3.281,2.235 -5.085,3.011 -0.279,0.121 -0.602,0.11 -0.87,-0.033 -0.797,-0.423 -1.551,-0.913 -2.255,-1.462 -0.479,-0.373 -0.514,-1.094 -0.076,-1.515 1.765,-1.698 3.261,-4.157 4.48,-7.369 2.6,-6.835 3.9,-16.994 3.9,-30.478 0,-13.737 -1.3,-24.041 -3.9,-30.909 -2.599,-6.873 -6.437,-10.305 -11.506,-10.305 -4.752,0 -8.509,3.497 -11.267,10.495 -2.762,6.999 -4.139,17.238 -4.139,30.719 0,8.862 0.638,16.34 1.925,22.44 1.284,6.097 3.079,10.67 5.39,13.721 0.405,0.534 0.822,1.02 1.252,1.461 0.418,0.429 0.402,1.123 -0.061,1.503 -0.766,0.629 -1.595,1.185 -2.478,1.658 -0.27,0.145 -0.597,0.157 -0.878,0.034 -1.771,-0.771 -3.438,-1.76 -5.008,-2.971 -4.334,-3.339 -7.656,-8.233 -9.967,-14.687 -2.311,-6.45 -3.465,-14.171 -3.465,-23.159 0,-9.05 1.154,-16.82 3.465,-23.302 2.311,-6.486 5.633,-11.413 9.967,-14.78 4.334,-3.371 9.423,-5.057 15.264,-5.057 5.905,0 11.011,1.686 15.312,5.057 4.297,3.367 7.591,8.294 9.87,14.78 2.279,6.482 3.42,14.252 3.42,23.302 C 3.42,-14.155 2.279,-6.417 0,0"
             style="fill:#1d1e21;fill-opacity:1;fill-rule:nonzero;stroke:none"
             id="path12062" />
        </g>
        <g
           id="g12064"
           transform="translate(928.0136,887.5098)">
          <path
             d="m 0,0 c -1.028,-0.382 -2.01,-0.857 -2.932,-1.418 -1.056,-0.641 -2.039,-1.393 -2.929,-2.246 -1.84,-1.762 -3.286,-3.935 -4.192,-6.385 -0.113,-0.308 -0.385,-0.459 -0.657,-0.459 -0.273,0 -0.545,0.151 -0.658,0.459 -0.878,2.372 -2.259,4.489 -4.022,6.223 -0.917,0.902 -1.941,1.702 -3.046,2.376 -0.938,0.577 -1.933,1.064 -2.981,1.45 -0.613,0.227 -0.613,1.093 0,1.316 4.655,1.722 8.326,5.394 10.049,10.053 0.113,0.304 0.385,0.459 0.658,0.459 0.272,0 0.544,-0.155 0.657,-0.459 C -8.33,6.71 -4.659,3.038 0,1.316 0.609,1.093 0.609,0.227 0,0"
             style="fill:#1d1e21;fill-opacity:1;fill-rule:nonzero;stroke:none"
             id="path12066" />
        </g>
        <path
           d="m 1106.807,809.932 h -7.859 v 7.86 h 7.859 z m -15.069,3.589 c -2.756,-2.289 -6.345,-3.589 -11.026,-3.589 h -13.885 v 37.187 h 14.509 c 9.933,0 16.33,-8.011 16.33,-18.984 0,-6.032 -2.028,-11.339 -5.928,-14.614 m -46.912,-4.369 c -10.973,0 -17.944,8.217 -17.944,19.347 0,11.131 6.971,19.4 17.944,19.4 10.975,0 17.891,-8.269 17.891,-19.4 0,-11.13 -6.916,-19.347 -17.891,-19.347 m -20.7,0.78 h -7.227 c -0.937,0.414 -1.04,4.577 -1.354,8.582 -0.312,4.055 -2.598,6.344 -7.279,6.344 h -6.085 v -14.926 h -7.542 v 37.187 h 17.058 c 7.178,0 11.963,-4.163 11.963,-10.35 0,-4.369 -2.03,-7.699 -6.813,-8.998 v -0.157 c 3.432,-0.988 5.2,-2.965 5.669,-7.489 0.521,-5.252 0.311,-9.257 1.61,-9.831 z m -45.662,13.47 h -9.153 v -13.47 h -7.8 v 37.187 h 16.329 c 4.317,0 7.542,-1.25 9.727,-3.487 2.079,-2.132 3.329,-5.045 3.329,-8.477 0,-7.02 -4.629,-11.753 -12.432,-11.753 m -24.734,-21.29 h 160.858 V 854.94 H 953.73 Z"
           style="fill:#1d1e21;fill-opacity:1;fill-rule:nonzero;stroke:none"
           id="path12068" />
        <g
           id="g12070"
           transform="translate(1010.3978,841.0334)">
          <path
             d="m 0,0 h -8.217 v -10.349 h 8.008 c 4.109,0 6.137,2.132 6.137,5.094 C 5.928,-2.237 4.005,0 0,0"
             style="fill:#1d1e21;fill-opacity:1;fill-rule:nonzero;stroke:none"
             id="path12072" />
        </g>
        <g
           id="g12074"
           transform="translate(977.217,840.5646)">
          <path
             d="m 0,0 h -7.906 v -11.025 h 7.801 c 3.953,0 6.033,2.184 6.033,5.563 C 5.928,-1.978 3.743,0 0,0"
             style="fill:#1d1e21;fill-opacity:1;fill-rule:nonzero;stroke:none"
             id="path12076" />
        </g>
        <g
           id="g12078"
           transform="translate(1044.8779,841.7094)">
          <path
             d="m 0,0 c -6.813,0 -10.297,-5.773 -10.297,-13.21 0,-7.387 3.484,-13.158 10.297,-13.158 6.813,0 10.143,5.771 10.143,13.158 C 10.143,-5.773 6.813,0 0,0"
             style="fill:#1d1e21;fill-opacity:1;fill-rule:nonzero;stroke:none"
             id="path12080" />
        </g>
        <g
           id="g12082"
           transform="translate(1080.4006,840.6694)">
          <path
             d="m 0,0 h -6.033 v -24.238 h 5.823 c 7.073,0 9.831,4.317 9.831,11.704 C 9.621,-5.15 6.397,0 0,0"
             style="fill:#1d1e21;fill-opacity:1;fill-rule:nonzero;stroke:none"
             id="path12084" />
        </g>
        <g
           id="g12086"
           transform="translate(715.2994,736.3605)">
          <path
             d="M 0,0 C -1.739,-2.083 -3.174,-4.517 -4.313,-7.295 H -4.597 L -4.693,29.664 H 6.304 c 6,0 9.002,-3.094 9.002,-9.286 0,-2.338 -0.68,-4.441 -2.039,-6.304 C 11.908,12.212 9.777,9.921 6.871,7.203 4.029,4.485 1.739,2.087 0,0 m 33.217,-46.72 c -2.022,5.748 -3.477,10.928 -4.361,15.541 L 24.12,-5.592 C 23.488,-2.242 21.985,0.284 19.619,1.991 17.248,3.698 14.514,4.549 11.42,4.549 9.334,4.549 7.187,4.077 4.977,3.13 v 0.188 c 1.007,0.883 2.178,1.783 3.505,2.702 1.327,0.915 2.762,1.847 4.313,2.794 1.547,0.947 2.511,1.519 2.89,1.707 2.654,1.451 4.721,2.702 6.208,3.741 1.483,1.044 2.714,2.243 3.693,3.602 0.98,1.359 1.471,2.922 1.471,4.693 0,3.094 -1.139,5.336 -3.413,6.727 -2.275,1.391 -4.833,2.087 -7.675,2.087 h -34.78 v -0.188 c 0.695,-2.151 1.167,-4.709 1.419,-7.679 0.252,-2.97 0.38,-6.759 0.38,-11.372 v -43.027 c 0,-4.613 -0.128,-8.402 -0.38,-11.372 -0.252,-2.97 -0.724,-5.528 -1.419,-7.675 v -0.192 h 16.017 v 0.192 c -1.203,4.041 -1.803,10.389 -1.803,19.047 v 12.983 c 0.128,3.918 0.771,7.347 1.943,10.285 1.167,2.938 2.574,5.177 4.217,6.728 1.643,1.547 3.254,2.322 4.833,2.322 1.455,0 2.75,-0.616 3.885,-1.847 1.139,-1.235 1.927,-3.05 2.37,-5.452 l 7.487,-44.258 h 14.123 v 0.192 c -0.128,0.376 -0.476,1.451 -1.044,3.222"
             style="fill:#1d1e21;fill-opacity:1;fill-rule:nonzero;stroke:none"
             id="path12088" />
        </g>
        <g
           id="g12090"
           transform="translate(798.0873,767.7308)">
          <path
             d="m 0,0 -20.755,-81.504 h -9.761 v 0.19 c 0.315,1.074 0.473,2.116 0.473,3.127 0,1.39 -0.174,2.891 -0.521,4.502 -0.348,1.611 -0.9,3.711 -1.658,6.302 -0.886,3.412 -1.296,4.928 -1.233,4.549 l -11.088,44.164 c -0.947,3.727 -2.464,8.118 -4.549,13.173 -0.253,0.631 -0.601,1.484 -1.042,2.559 -0.443,1.074 -0.758,1.99 -0.948,2.748 V 0 h 16.016 v -0.19 c -0.317,-1.075 -0.473,-2.117 -0.473,-3.127 0,-1.201 0.125,-2.449 0.379,-3.743 0.252,-1.296 0.552,-2.607 0.9,-3.934 0.346,-1.326 0.584,-2.212 0.711,-2.653 l 1.327,-5.023 12.888,-51.935 11.563,46.249 c 1.199,4.485 1.8,8.939 1.8,13.362 0,4.865 -0.885,8.53 -2.653,10.994 z"
             style="fill:#1d1e21;fill-opacity:1;fill-rule:nonzero;stroke:none"
             id="path12092" />
        </g>
        <g
           id="g12094"
           transform="translate(803.5883,686.2273)">
          <path
             d="M 0,0 V 0.19 C 0.695,2.337 1.169,4.896 1.421,7.866 1.673,10.835 1.8,14.626 1.8,19.239 V 62.265 C 1.8,66.876 1.673,70.667 1.421,73.637 1.169,76.607 0.695,79.165 0,81.314 v 0.19 h 16.017 v -0.19 C 14.815,77.27 14.215,70.92 14.215,62.265 V 1.611 h 2.749 c 1.896,0 4.454,0.285 7.677,0.853 3.222,0.569 6.427,1.389 9.619,2.464 3.19,1.074 5.765,2.306 7.723,3.696 V 0 Z"
             style="fill:#1d1e21;fill-opacity:1;fill-rule:nonzero;stroke:none"
             id="path12096" />
        </g>
        <g
           id="g12098"
           transform="translate(898.2467,750.0054)">
          <path
             d="m 0,0 c -2.242,6.32 -5.484,11.12 -9.713,14.406 -1.56,1.213 -3.229,2.199 -5.005,2.964 -0.274,0.118 -0.592,0.107 -0.856,-0.033 -0.784,-0.417 -1.526,-0.899 -2.22,-1.439 -0.471,-0.367 -0.505,-1.077 -0.075,-1.491 1.737,-1.672 3.21,-4.091 4.41,-7.252 2.558,-6.727 3.838,-16.725 3.838,-29.996 0,-13.518 -1.28,-23.659 -3.838,-30.419 -2.558,-6.763 -6.336,-10.141 -11.324,-10.141 -4.677,0 -8.374,3.442 -11.088,10.329 -2.719,6.887 -4.074,16.965 -4.074,30.231 0,8.723 0.628,16.082 1.895,22.085 1.263,6 3.03,10.501 5.304,13.503 0.399,0.526 0.81,1.005 1.232,1.438 0.412,0.422 0.396,1.106 -0.06,1.48 -0.753,0.619 -1.57,1.166 -2.438,1.632 -0.266,0.143 -0.588,0.154 -0.865,0.033 -1.742,-0.759 -3.383,-1.733 -4.928,-2.924 -4.265,-3.286 -7.535,-8.102 -9.809,-14.454 -2.275,-6.348 -3.41,-13.946 -3.41,-22.793 0,-8.905 1.135,-16.552 3.41,-22.932 2.274,-6.383 5.544,-11.232 9.809,-14.546 4.265,-3.318 9.274,-4.977 15.022,-4.977 5.812,0 10.836,1.659 15.07,4.977 4.229,3.314 7.471,8.163 9.713,14.546 2.242,6.38 3.366,14.027 3.366,22.932 C 3.366,-13.931 2.242,-6.316 0,0"
             style="fill:#1d1e21;fill-opacity:1;fill-rule:nonzero;stroke:none"
             id="path12100" />
        </g>
        <g
           id="g12102"
           transform="translate(883.9564,769.6639)">
          <path
             d="m 0,0 c -1.011,-0.376 -1.979,-0.843 -2.886,-1.395 -1.039,-0.632 -2.007,-1.371 -2.882,-2.211 -1.811,-1.734 -3.234,-3.873 -4.125,-6.283 -0.112,-0.304 -0.38,-0.452 -0.648,-0.452 -0.268,0 -0.535,0.148 -0.647,0.452 -0.864,2.334 -2.223,4.417 -3.958,6.124 -0.903,0.887 -1.91,1.674 -2.998,2.338 -0.923,0.568 -1.902,1.047 -2.934,1.427 -0.603,0.224 -0.603,1.075 0,1.295 4.581,1.695 8.195,5.309 9.89,9.893 0.112,0.3 0.379,0.452 0.647,0.452 0.268,0 0.536,-0.152 0.648,-0.452 C -8.198,6.604 -4.585,2.99 0,1.295 0.6,1.075 0.6,0.224 0,0"
             style="fill:#1d1e21;fill-opacity:1;fill-rule:nonzero;stroke:none"
             id="path12104" />
        </g>
        <path
           d="m 1148.448,698.293 h -12.126 v 12.126 h 12.126 z m -23.249,5.537 c -4.252,-3.532 -9.788,-5.537 -17.01,-5.537 h -21.423 v 57.372 h 22.385 c 15.325,0 25.194,-12.359 25.194,-29.288 0,-9.307 -3.128,-17.495 -9.146,-22.547 m -72.377,-6.741 c -16.929,0 -27.683,12.678 -27.683,29.85 0,17.172 10.754,29.93 27.683,29.93 16.933,0 27.603,-12.758 27.603,-29.93 0,-17.172 -10.67,-29.85 -27.603,-29.85 m -31.935,1.204 h -11.15 c -1.447,0.639 -1.605,7.061 -2.09,13.24 -0.481,6.256 -4.009,9.788 -11.231,9.788 h -9.388 v -23.028 h -11.635 v 57.372 h 26.318 c 11.073,0 18.457,-6.422 18.457,-15.968 0,-6.741 -3.132,-11.877 -10.512,-13.882 v -0.242 c 5.294,-1.524 8.022,-4.575 8.746,-11.555 0.804,-8.102 0.48,-14.282 2.485,-15.167 z m -70.449,20.781 h -14.121 v -20.781 h -12.035 v 57.372 h 25.194 c 6.66,0 11.635,-1.928 15.005,-5.379 3.209,-3.29 5.137,-7.784 5.137,-13.078 0,-10.831 -7.141,-18.134 -19.18,-18.134 m -38.161,-32.847 h 248.176 v 81.504 H 912.277 Z"
           style="fill:#1d1e21;fill-opacity:1;fill-rule:nonzero;stroke:none"
           id="path12106" />
        <g
           id="g12108"
           transform="translate(999.7061,746.2767)">
          <path
             d="m 0,0 h -12.678 v -15.967 h 12.355 c 6.341,0 9.469,3.289 9.469,7.86 C 9.146,-3.451 6.179,0 0,0"
             style="fill:#1d1e21;fill-opacity:1;fill-rule:nonzero;stroke:none"
             id="path12110" />
        </g>
        <g
           id="g12112"
           transform="translate(948.5139,745.5534)">
          <path
             d="m 0,0 h -12.197 v -17.01 h 12.035 c 6.099,0 9.308,3.37 9.308,8.584 C 9.146,-3.051 5.775,0 0,0"
             style="fill:#1d1e21;fill-opacity:1;fill-rule:nonzero;stroke:none"
             id="path12114" />
        </g>
        <g
           id="g12116"
           transform="translate(1052.9027,747.3195)">
          <path
             d="m 0,0 c -10.512,0 -15.887,-8.907 -15.887,-20.381 0,-11.396 5.375,-20.3 15.887,-20.3 10.512,0 15.648,8.904 15.648,20.3 C 15.648,-8.907 10.512,0 0,0"
             style="fill:#1d1e21;fill-opacity:1;fill-rule:nonzero;stroke:none"
             id="path12118" />
        </g>
        <g
           id="g12120"
           transform="translate(1107.708,745.7151)">
          <path
             d="m 0,0 h -9.307 v -37.395 h 8.984 c 10.911,0 15.167,6.66 15.167,18.057 C 14.844,-7.945 9.869,0 0,0"
             style="fill:#1d1e21;fill-opacity:1;fill-rule:nonzero;stroke:none"
             id="path12122" />
        </g>
        <g
           id="g12124"
           transform="translate(144.2002,850.5804)">
          <path
             d="M 0,0 C -1.767,-2.116 -3.225,-4.59 -4.383,-7.413 H -4.671 L -4.768,30.141 H 6.405 c 6.097,0 9.147,-3.143 9.147,-9.435 0,-2.376 -0.69,-4.512 -2.071,-6.405 C 12.1,12.408 9.935,10.081 6.982,7.319 4.094,4.557 1.767,2.12 0,0 m 33.752,-47.473 c -2.055,5.841 -3.533,11.105 -4.431,15.792 l -4.813,25.999 c -0.642,3.403 -2.169,5.97 -4.573,7.705 -2.409,1.734 -5.187,2.599 -8.331,2.599 -2.12,0 -4.301,-0.479 -6.547,-1.442 v 0.191 c 1.023,0.898 2.213,1.812 3.562,2.746 1.348,0.93 2.806,1.876 4.382,2.839 1.572,0.963 2.551,1.543 2.937,1.734 2.697,1.475 4.797,2.746 6.308,3.802 1.507,1.06 2.758,2.279 3.753,3.66 0.995,1.38 1.494,2.969 1.494,4.768 0,3.144 -1.157,5.422 -3.468,6.836 -2.311,1.413 -4.911,2.12 -7.799,2.12 h -35.34 v -0.191 c 0.706,-2.185 1.186,-4.785 1.442,-7.802 0.256,-3.018 0.386,-6.869 0.386,-11.556 v -43.72 c 0,-4.687 -0.13,-8.537 -0.386,-11.555 -0.256,-3.018 -0.736,-5.617 -1.442,-7.798 v -0.195 h 16.275 v 0.195 c -1.223,4.106 -1.832,10.556 -1.832,19.353 V -18.2 c 0.13,3.98 0.784,7.465 1.974,10.45 1.186,2.986 2.616,5.26 4.285,6.836 1.669,1.572 3.306,2.36 4.911,2.36 1.478,0 2.794,-0.626 3.947,-1.876 1.158,-1.256 1.958,-3.1 2.409,-5.541 l 7.608,-44.97 h 14.349 v 0.195 c -0.13,0.382 -0.483,1.474 -1.06,3.273"
             style="fill:#1d1e21;fill-opacity:1;fill-rule:nonzero;stroke:none"
             id="path12126" />
        </g>
        <g
           id="g12128"
           transform="translate(228.3213,882.456)">
          <path
             d="m 0,0 -21.089,-82.816 h -9.919 v 0.193 c 0.321,1.09 0.482,2.15 0.482,3.177 0,1.412 -0.178,2.937 -0.53,4.575 -0.354,1.637 -0.915,3.77 -1.685,6.403 -0.9,3.467 -1.317,5.008 -1.252,4.623 l -11.267,44.874 c -0.963,3.788 -2.504,8.249 -4.622,13.386 -0.257,0.641 -0.611,1.507 -1.06,2.6 -0.449,1.091 -0.77,2.022 -0.963,2.792 V 0 h 16.275 v -0.193 c -0.322,-1.092 -0.482,-2.151 -0.482,-3.177 0,-1.221 0.128,-2.489 0.386,-3.804 0.255,-1.317 0.561,-2.648 0.914,-3.997 0.352,-1.348 0.593,-2.248 0.723,-2.696 l 1.348,-5.104 13.096,-52.771 11.749,46.993 c 1.218,4.558 1.829,9.084 1.829,13.578 0,4.943 -0.9,8.667 -2.696,11.171 z"
             style="fill:#1d1e21;fill-opacity:1;fill-rule:nonzero;stroke:none"
             id="path12130" />
        </g>
        <g
           id="g12132"
           transform="translate(233.9109,799.6399)">
          <path
             d="m 0,0 v 0.193 c 0.706,2.181 1.188,4.781 1.444,7.8 0.256,3.017 0.385,6.869 0.385,11.556 V 63.268 C 1.829,67.953 1.7,71.805 1.444,74.823 1.188,77.84 0.706,80.44 0,82.623 v 0.193 H 16.275 V 82.623 C 15.054,78.514 14.444,72.062 14.444,63.268 V 1.637 h 2.793 c 1.927,0 4.526,0.289 7.8,0.867 3.275,0.578 6.532,1.411 9.775,2.504 3.241,1.09 5.857,2.342 7.848,3.755 L 42.66,0 Z"
             style="fill:#1d1e21;fill-opacity:1;fill-rule:nonzero;stroke:none"
             id="path12134" />
        </g>
        <g
           id="g12136"
           transform="translate(330.0937,864.4451)">
          <path
             d="m 0,0 c -2.279,6.421 -5.572,11.299 -9.87,14.638 -1.585,1.232 -3.281,2.235 -5.085,3.011 -0.279,0.121 -0.602,0.11 -0.87,-0.033 -0.797,-0.423 -1.551,-0.913 -2.255,-1.462 -0.479,-0.373 -0.514,-1.094 -0.076,-1.515 1.765,-1.698 3.261,-4.157 4.48,-7.369 2.6,-6.835 3.9,-16.994 3.9,-30.478 0,-13.737 -1.3,-24.041 -3.9,-30.909 -2.599,-6.873 -6.437,-10.305 -11.506,-10.305 -4.752,0 -8.509,3.497 -11.267,10.495 -2.762,6.999 -4.139,17.238 -4.139,30.719 0,8.862 0.638,16.34 1.925,22.44 1.284,6.097 3.079,10.67 5.39,13.721 0.405,0.534 0.822,1.02 1.252,1.461 0.418,0.429 0.402,1.123 -0.061,1.503 -0.766,0.629 -1.595,1.185 -2.478,1.658 -0.27,0.145 -0.597,0.157 -0.878,0.034 -1.771,-0.771 -3.438,-1.76 -5.008,-2.971 -4.334,-3.339 -7.656,-8.233 -9.967,-14.687 -2.311,-6.45 -3.465,-14.171 -3.465,-23.159 0,-9.05 1.154,-16.82 3.465,-23.302 2.311,-6.486 5.633,-11.413 9.967,-14.78 4.334,-3.371 9.423,-5.057 15.264,-5.057 5.905,0 11.011,1.686 15.312,5.057 4.298,3.367 7.591,8.294 9.87,14.78 2.279,6.482 3.42,14.252 3.42,23.302 C 3.42,-14.155 2.279,-6.417 0,0"
             style="fill:#1d1e21;fill-opacity:1;fill-rule:nonzero;stroke:none"
             id="path12138" />
        </g>
        <g
           id="g12140"
           transform="translate(315.5733,884.4202)">
          <path
             d="m 0,0 c -1.027,-0.382 -2.01,-0.857 -2.932,-1.418 -1.056,-0.641 -2.039,-1.393 -2.929,-2.246 -1.84,-1.762 -3.286,-3.935 -4.192,-6.385 -0.113,-0.308 -0.385,-0.459 -0.657,-0.459 -0.273,0 -0.545,0.151 -0.658,0.459 -0.878,2.372 -2.259,4.489 -4.022,6.223 -0.917,0.902 -1.941,1.702 -3.046,2.376 -0.938,0.577 -1.933,1.064 -2.981,1.45 -0.613,0.227 -0.613,1.093 0,1.316 4.655,1.722 8.326,5.394 10.049,10.053 0.113,0.304 0.385,0.459 0.658,0.459 0.272,0 0.544,-0.155 0.657,-0.459 C -8.33,6.71 -4.659,3.038 0,1.316 0.609,1.093 0.609,0.227 0,0"
             style="fill:#1d1e21;fill-opacity:1;fill-rule:nonzero;stroke:none"
             id="path12142" />
        </g>
        <g
           id="g12144"
           transform="translate(358.5621,821.3609)">
          <path
             d="M 0,0 H -8.636 V 12.206 H 0.116 C 4.26,12.206 6.679,10.017 6.679,6.16 6.679,2.419 4.376,0 0,0 m 11.574,15.602 c -2.419,2.477 -5.989,3.86 -10.768,3.86 h -18.079 v -41.169 h 8.637 V -6.795 H 1.496 c 8.64,0 13.764,5.241 13.764,13.013 0,3.799 -1.383,7.024 -3.686,9.384"
             style="fill:#1d1e21;fill-opacity:1;fill-rule:nonzero;stroke:none"
             id="path12146" />
        </g>
        <g
           id="g12148"
           transform="translate(395.1807,822.6282)">
          <path
             d="m 0,0 h -8.865 v 11.458 h 9.097 c 4.434,0 6.563,-2.477 6.563,-5.817 C 6.795,2.361 4.55,0 0,0 m 13.648,-11.69 c -0.52,5.008 -2.477,7.198 -6.276,8.291 v 0.174 c 5.295,1.439 7.543,5.125 7.543,9.962 0,6.85 -5.298,11.458 -13.245,11.458 h -18.885 v -41.169 h 8.35 V -6.45 h 6.736 c 5.183,0 7.714,-2.534 8.059,-7.023 0.349,-4.435 0.462,-9.043 1.5,-9.501 h 8.001 v 0.4 c -1.438,0.635 -1.206,5.07 -1.783,10.884"
             style="fill:#1d1e21;fill-opacity:1;fill-rule:nonzero;stroke:none"
             id="path12150" />
        </g>
        <g
           id="g12152"
           transform="translate(433.5857,805.6428)">
          <path
             d="m 0,0 c -7.543,0 -11.4,6.389 -11.4,14.567 0,8.233 3.857,14.625 11.4,14.625 7.543,0 11.229,-6.392 11.229,-14.625 C 11.229,6.389 7.543,0 0,0 m -0.058,36.044 c -12.148,0 -19.865,-9.155 -19.865,-21.477 0,-12.322 7.717,-21.42 19.865,-21.42 12.151,0 19.807,9.098 19.807,21.42 0,12.322 -7.656,21.477 -19.807,21.477"
             style="fill:#1d1e21;fill-opacity:1;fill-rule:nonzero;stroke:none"
             id="path12154" />
        </g>
        <g
           id="g12156"
           transform="translate(472.6809,806.8492)">
          <path
             d="m 0,0 h -6.447 v 26.834 h 6.679 c 7.082,0 10.652,-5.702 10.652,-13.877 C 10.884,4.779 7.83,0 0,0 M 1.267,33.974 H -14.796 V -7.195 H 0.577 c 5.182,0 9.155,1.438 12.206,3.973 4.318,3.625 6.563,9.501 6.563,16.179 0,12.149 -7.082,21.017 -18.079,21.017"
             style="fill:#1d1e21;fill-opacity:1;fill-rule:nonzero;stroke:none"
             id="path12158" />
        </g>
        <path
           d="m 502.148,808.355 h -8.701 v -8.701 h 8.701 z"
           style="fill:#1d1e21;fill-opacity:1;fill-rule:nonzero;stroke:none"
           id="path12160" />
        <g
           id="g12162"
           transform="translate(97.6295,732.8418)">
          <path
             d="m 0,0 c -1.516,-1.816 -2.768,-3.939 -3.761,-6.362 h -0.248 l -0.083,32.231 h 9.589 c 5.232,0 7.85,-2.698 7.85,-8.098 0,-2.039 -0.592,-3.873 -1.777,-5.497 C 10.384,10.649 8.526,8.652 5.992,6.282 3.514,3.911 1.516,1.82 0,0 m 28.968,-40.743 c -1.764,5.013 -3.033,9.531 -3.804,13.553 l -4.13,22.313 C 20.483,-1.956 19.172,0.247 17.109,1.736 15.041,3.224 12.657,3.967 9.959,3.967 8.14,3.967 6.268,3.556 4.34,2.729 v 0.164 c 0.878,0.771 1.9,1.555 3.057,2.357 1.157,0.798 2.409,1.61 3.761,2.436 1.349,0.827 2.189,1.325 2.52,1.489 2.315,1.265 4.117,2.356 5.414,3.263 1.293,0.909 2.367,1.955 3.221,3.14 0.854,1.186 1.283,2.548 1.283,4.093 0,2.698 -0.994,4.653 -2.977,5.866 -1.984,1.214 -4.215,1.82 -6.693,1.82 h -30.33 v -0.164 c 0.606,-1.875 1.017,-4.106 1.237,-6.696 0.22,-2.59 0.331,-5.895 0.331,-9.917 v -37.522 c 0,-4.023 -0.111,-7.327 -0.331,-9.917 -0.22,-2.59 -0.631,-4.821 -1.237,-6.693 v -0.168 h 13.967 v 0.168 c -1.049,3.524 -1.572,9.059 -1.572,16.61 v 11.322 c 0.112,3.416 0.673,6.407 1.694,8.969 1.018,2.562 2.245,4.514 3.678,5.867 1.433,1.349 2.837,2.025 4.214,2.025 1.269,0 2.399,-0.537 3.389,-1.61 0.993,-1.078 1.68,-2.66 2.067,-4.755 l 6.529,-38.596 h 12.315 v 0.168 c -0.111,0.327 -0.415,1.265 -0.909,2.809"
             style="fill:#1d1e21;fill-opacity:1;fill-rule:nonzero;stroke:none"
             id="path12164" />
        </g>
        <g
           id="g12166"
           transform="translate(169.8253,760.1986)">
          <path
             d="m 0,0 -18.1,-71.076 h -8.512 v 0.165 c 0.275,0.937 0.413,1.846 0.413,2.728 0,1.211 -0.152,2.521 -0.454,3.926 -0.304,1.404 -0.786,3.236 -1.447,5.496 -0.772,2.975 -1.13,4.297 -1.074,3.967 l -9.67,38.513 c -0.826,3.25 -2.149,7.079 -3.967,11.488 -0.22,0.55 -0.524,1.293 -0.909,2.231 -0.386,0.936 -0.661,1.736 -0.826,2.397 V 0 h 13.967 v -0.165 c -0.277,-0.938 -0.413,-1.847 -0.413,-2.728 0,-1.047 0.109,-2.136 0.33,-3.264 0.22,-1.13 0.482,-2.273 0.785,-3.43 0.302,-1.157 0.509,-1.929 0.62,-2.314 l 1.157,-4.38 11.24,-45.29 10.083,40.331 c 1.046,3.911 1.57,7.796 1.57,11.653 0,4.242 -0.772,7.438 -2.314,9.587 z"
             style="fill:#1d1e21;fill-opacity:1;fill-rule:nonzero;stroke:none"
             id="path12168" />
        </g>
        <g
           id="g12170"
           transform="translate(174.6226,689.1228)">
          <path
             d="m 0,0 v 0.165 c 0.606,1.873 1.019,4.104 1.239,6.695 0.22,2.589 0.331,5.895 0.331,9.917 v 37.522 c 0,4.021 -0.111,7.327 -0.331,9.917 C 1.019,66.805 0.606,69.037 0,70.911 v 0.165 H 13.967 V 70.911 C 12.92,67.384 12.397,61.846 12.397,54.299 V 1.405 h 2.396 c 1.654,0 3.885,0.248 6.695,0.744 2.81,0.496 5.605,1.211 8.389,2.149 2.781,0.936 5.027,2.01 6.735,3.223 V 0 Z"
             style="fill:#1d1e21;fill-opacity:1;fill-rule:nonzero;stroke:none"
             id="path12172" />
        </g>
        <g
           id="g12174"
           transform="translate(257.1702,744.741)">
          <path
             d="m 0,0 c -1.956,5.511 -4.783,9.698 -8.471,12.563 -1.36,1.057 -2.815,1.918 -4.364,2.584 -0.239,0.103 -0.516,0.094 -0.747,-0.028 -0.683,-0.364 -1.33,-0.784 -1.935,-1.255 -0.411,-0.32 -0.441,-0.939 -0.065,-1.3 1.514,-1.458 2.798,-3.568 3.845,-6.324 2.231,-5.867 3.347,-14.585 3.347,-26.158 0,-11.789 -1.116,-20.633 -3.347,-26.528 -2.231,-5.898 -5.525,-8.843 -9.875,-8.843 -4.079,0 -7.303,3.001 -9.67,9.007 -2.37,6.006 -3.552,14.794 -3.552,26.364 0,7.606 0.547,14.023 1.652,19.259 1.102,5.232 2.642,9.157 4.626,11.775 0.347,0.459 0.706,0.876 1.074,1.254 0.359,0.369 0.345,0.965 -0.052,1.291 -0.657,0.539 -1.369,1.016 -2.126,1.423 -0.233,0.124 -0.513,0.134 -0.754,0.029 -1.52,-0.662 -2.951,-1.511 -4.298,-2.55 -3.72,-2.865 -6.571,-7.066 -8.554,-12.605 -1.984,-5.535 -2.974,-12.162 -2.974,-19.876 0,-7.767 0.99,-14.435 2.974,-19.999 1.983,-5.567 4.834,-9.795 8.554,-12.685 3.719,-2.893 8.087,-4.34 13.1,-4.34 5.068,0 9.45,1.447 13.141,4.34 3.688,2.89 6.515,7.118 8.471,12.685 1.956,5.564 2.935,12.232 2.935,19.999 C 2.935,-12.148 1.956,-5.508 0,0"
             style="fill:#1d1e21;fill-opacity:1;fill-rule:nonzero;stroke:none"
             id="path12176" />
        </g>
        <g
           id="g12178"
           transform="translate(244.7082,761.8844)">
          <path
             d="m 0,0 c -0.882,-0.328 -1.725,-0.736 -2.517,-1.217 -0.906,-0.55 -1.75,-1.195 -2.513,-1.927 -1.579,-1.513 -2.82,-3.378 -3.597,-5.48 -0.098,-0.265 -0.332,-0.394 -0.565,-0.394 -0.234,0 -0.467,0.129 -0.565,0.394 -0.753,2.036 -1.938,3.852 -3.451,5.34 -0.788,0.774 -1.666,1.461 -2.614,2.039 -0.805,0.495 -1.66,0.914 -2.559,1.245 -0.526,0.195 -0.526,0.938 0,1.129 3.995,1.478 7.146,4.63 8.624,8.628 0.098,0.261 0.331,0.394 0.565,0.394 0.233,0 0.467,-0.133 0.565,-0.394 C -7.149,5.759 -3.998,2.607 0,1.129 0.523,0.938 0.523,0.195 0,0"
             style="fill:#1d1e21;fill-opacity:1;fill-rule:nonzero;stroke:none"
             id="path12180" />
        </g>
        <g
           id="g12182"
           transform="translate(298.8837,726.6462)">
          <path
             d="M 0,0 H -14.864 V 21.008 H 0.2 c 7.132,0 11.295,-3.768 11.295,-10.407 C 11.495,4.163 7.532,0 0,0 M 19.92,26.853 C 15.757,31.115 9.613,33.496 1.387,33.496 h -31.115 v -70.855 h 14.864 v 25.665 h 17.44 c 14.868,0 23.688,9.019 23.688,22.395 0,6.539 -2.381,12.089 -6.344,16.152"
             style="fill:#1d1e21;fill-opacity:1;fill-rule:nonzero;stroke:none"
             id="path12184" />
        </g>
        <g
           id="g12186"
           transform="translate(361.908,728.8273)">
          <path
             d="M 0,0 H -15.258 V 19.72 H 0.399 C 8.031,19.72 11.695,15.458 11.695,9.708 11.695,4.063 7.831,0 0,0 m 23.489,-20.12 c -0.894,8.62 -4.263,12.389 -10.801,14.27 v 0.3 c 9.114,2.475 12.982,8.819 12.982,17.145 0,11.789 -9.119,19.72 -22.795,19.72 h -32.503 v -70.856 h 14.37 V -11.1 h 11.595 c 8.919,0 13.276,-4.363 13.87,-12.089 0.599,-7.632 0.794,-15.563 2.581,-16.352 h 13.77 v 0.689 c -2.475,1.093 -2.076,8.725 -3.069,18.732"
             style="fill:#1d1e21;fill-opacity:1;fill-rule:nonzero;stroke:none"
             id="path12188" />
        </g>
        <g
           id="g12190"
           transform="translate(428.0068,699.5937)">
          <path
             d="m 0,0 c -12.982,0 -19.621,10.996 -19.621,25.071 0,14.17 6.639,25.171 19.621,25.171 12.982,0 19.326,-11.001 19.326,-25.171 C 19.326,10.996 12.982,0 0,0 m -0.1,62.036 c -20.908,0 -34.19,-15.757 -34.19,-36.965 0,-21.208 13.282,-36.865 34.19,-36.865 20.913,0 34.09,15.657 34.09,36.865 0,21.208 -13.177,36.965 -34.09,36.965"
             style="fill:#1d1e21;fill-opacity:1;fill-rule:nonzero;stroke:none"
             id="path12192" />
        </g>
        <g
           id="g12194"
           transform="translate(495.2936,701.6701)">
          <path
             d="M 0,0 H -11.095 V 46.184 H 0.399 c 12.189,0 18.333,-9.813 18.333,-23.883 C 18.732,8.226 13.476,0 0,0 M 2.181,58.472 H -25.465 V -12.383 H 0.993 c 8.92,0 15.757,2.475 21.008,6.838 7.432,6.239 11.295,16.351 11.295,27.846 0,20.908 -12.188,36.171 -31.115,36.171"
             style="fill:#1d1e21;fill-opacity:1;fill-rule:nonzero;stroke:none"
             id="path12196" />
        </g>
        <path
           d="m 546.009,704.262 h -14.976 v -14.976 h 14.976 z"
           style="fill:#1d1e21;fill-opacity:1;fill-rule:nonzero;stroke:none"
           id="path12198" />
        <g
           id="g12200"
           transform="translate(1333.1536,310.8389)">
          <path
             d="M 0,0 C -2.054,-2.46 -3.749,-5.336 -5.095,-8.617 H -5.43 l -0.114,43.658 h 12.99 c 7.088,0 10.634,-3.655 10.634,-10.969 0,-2.762 -0.803,-5.246 -2.408,-7.446 C 14.066,14.425 11.55,11.72 8.117,8.509 4.76,5.298 2.054,2.465 0,0 m 39.239,-55.189 c -2.39,6.79 -4.109,12.91 -5.152,18.359 l -5.596,30.224 c -0.746,3.957 -2.521,6.941 -5.316,8.957 -2.8,2.017 -6.03,3.023 -9.685,3.023 -2.464,0 -5,-0.558 -7.611,-1.677 v 0.222 c 1.189,1.044 2.573,2.106 4.141,3.192 1.567,1.081 3.262,2.182 5.095,3.301 1.827,1.119 2.965,1.794 3.413,2.016 3.136,1.714 5.577,3.192 7.334,4.42 1.751,1.232 3.206,2.649 4.362,4.254 1.157,1.605 1.738,3.452 1.738,5.543 0,3.655 -1.346,6.304 -4.032,7.947 -2.687,1.644 -5.709,2.465 -9.066,2.465 h -41.085 v -0.222 c 0.821,-2.54 1.379,-5.562 1.676,-9.071 0.298,-3.508 0.449,-7.984 0.449,-13.433 v -50.826 c 0,-5.449 -0.151,-9.925 -0.449,-13.434 -0.297,-3.508 -0.855,-6.53 -1.676,-9.066 v -0.226 h 18.92 v 0.226 c -1.421,4.774 -2.129,12.272 -2.129,22.5 v 15.337 c 0.151,4.627 0.911,8.678 2.295,12.149 1.378,3.47 3.04,6.115 4.981,7.947 1.941,1.827 3.844,2.743 5.709,2.743 1.719,0 3.248,-0.727 4.589,-2.181 1.346,-1.46 2.277,-3.603 2.801,-6.441 l 8.844,-52.28 h 16.682 v 0.226 c -0.151,0.444 -0.562,1.714 -1.232,3.806"
             style="fill:#f2f0e7;fill-opacity:1;fill-rule:nonzero;stroke:none"
             id="path12202" />
        </g>
        <g
           id="g12204"
           transform="translate(1430.948,347.8956)">
          <path
             d="m 0,0 -24.517,-96.277 h -11.531 v 0.224 c 0.373,1.268 0.56,2.499 0.56,3.694 0,1.641 -0.207,3.414 -0.616,5.318 -0.411,1.903 -1.064,4.383 -1.959,7.444 -1.047,4.031 -1.531,5.822 -1.456,5.374 l -13.098,52.169 c -1.119,4.403 -2.911,9.589 -5.373,15.561 -0.299,0.745 -0.711,1.753 -1.232,3.023 -0.523,1.268 -0.895,2.35 -1.119,3.246 V 0 h 18.919 v -0.224 c -0.374,-1.27 -0.559,-2.501 -0.559,-3.694 0,-1.419 0.148,-2.893 0.447,-4.422 0.298,-1.531 0.653,-3.079 1.064,-4.646 0.409,-1.568 0.689,-2.614 0.84,-3.135 l 1.567,-5.933 15.225,-61.349 13.658,54.632 c 1.417,5.298 2.127,10.56 2.127,15.785 0,5.746 -1.046,10.075 -3.134,12.986 z"
             style="fill:#f2f0e7;fill-opacity:1;fill-rule:nonzero;stroke:none"
             id="path12206" />
        </g>
        <g
           id="g12208"
           transform="translate(1437.4462,251.6183)">
          <path
             d="m 0,0 v 0.224 c 0.821,2.536 1.381,5.559 1.679,9.068 0.298,3.507 0.448,7.985 0.448,13.434 v 50.825 c 0,5.447 -0.15,9.926 -0.448,13.434 C 1.381,90.493 0.821,93.515 0,96.053 v 0.224 H 18.92 V 96.053 C 17.501,91.276 16.792,83.776 16.792,73.551 V 1.903 h 3.247 c 2.24,0 5.262,0.336 9.068,1.008 3.807,0.671 7.593,1.64 11.363,2.91 3.768,1.269 6.81,2.724 9.124,4.366 V 0 Z"
             style="fill:#f2f0e7;fill-opacity:1;fill-rule:nonzero;stroke:none"
             id="path12210" />
        </g>
        <g
           id="g12212"
           transform="translate(1549.2629,326.9572)">
          <path
             d="m 0,0 c -2.649,7.465 -6.478,13.136 -11.474,17.017 -1.843,1.433 -3.814,2.598 -5.911,3.501 -0.325,0.14 -0.7,0.127 -1.012,-0.039 -0.926,-0.492 -1.803,-1.061 -2.622,-1.7 -0.557,-0.433 -0.597,-1.271 -0.089,-1.76 2.052,-1.975 3.792,-4.833 5.21,-8.567 3.022,-7.947 4.533,-19.756 4.533,-35.433 0,-15.969 -1.511,-27.948 -4.533,-35.933 -3.022,-7.989 -7.485,-11.979 -13.378,-11.979 -5.524,0 -9.892,4.065 -13.098,12.201 -3.211,8.136 -4.811,20.04 -4.811,35.711 0,10.303 0.741,18.996 2.238,26.089 1.492,7.087 3.579,12.404 6.266,15.95 0.47,0.621 0.956,1.187 1.455,1.698 0.486,0.499 0.467,1.307 -0.071,1.749 -0.89,0.731 -1.854,1.376 -2.88,1.927 -0.315,0.169 -0.694,0.182 -1.021,0.039 -2.059,-0.896 -3.997,-2.046 -5.822,-3.454 -5.038,-3.881 -8.901,-9.571 -11.587,-17.074 -2.687,-7.498 -4.028,-16.474 -4.028,-26.924 0,-10.52 1.341,-19.553 4.028,-27.089 2.686,-7.541 6.549,-13.268 11.587,-17.183 5.038,-3.919 10.955,-5.878 17.744,-5.878 6.866,0 12.801,1.959 17.802,5.878 4.996,3.915 8.825,9.642 11.474,17.183 2.649,7.536 3.976,16.569 3.976,27.089 C 3.976,-16.456 2.649,-7.461 0,0"
             style="fill:#f2f0e7;fill-opacity:1;fill-rule:nonzero;stroke:none"
             id="path12214" />
        </g>
        <g
           id="g12216"
           transform="translate(1532.3823,350.1792)">
          <path
             d="m 0,0 c -1.195,-0.444 -2.337,-0.996 -3.409,-1.648 -1.228,-0.746 -2.37,-1.619 -3.404,-2.611 -2.14,-2.049 -3.821,-4.576 -4.874,-7.423 -0.132,-0.359 -0.448,-0.533 -0.764,-0.533 -0.317,0 -0.633,0.174 -0.765,0.533 -1.02,2.758 -2.626,5.218 -4.675,7.234 -1.067,1.048 -2.257,1.978 -3.541,2.762 -1.091,0.671 -2.248,1.237 -3.466,1.686 -0.713,0.264 -0.713,1.27 0,1.53 5.411,2.002 9.679,6.27 11.682,11.686 0.132,0.355 0.448,0.534 0.765,0.534 0.316,0 0.632,-0.179 0.764,-0.534 C -9.684,7.8 -5.416,3.532 0,1.53 0.708,1.27 0.708,0.264 0,0"
             style="fill:#f2f0e7;fill-opacity:1;fill-rule:nonzero;stroke:none"
             id="path12218" />
        </g>
        <g
           id="g12220"
           transform="translate(1338.6143,209.96)">
          <path
             d="M 0,0 H -13.841 V 19.562 H 0.186 c 6.641,0 10.517,-3.509 10.517,-9.69 C 10.703,3.876 7.013,0 0,0 m 18.549,25.005 c -3.876,3.969 -9.598,6.186 -17.257,6.186 h -28.974 v -65.979 h 13.841 V -10.89 H 2.398 c 13.846,0 22.058,8.399 22.058,20.855 0,6.088 -2.217,11.256 -5.907,15.04"
             style="fill:#f2f0e7;fill-opacity:1;fill-rule:nonzero;stroke:none"
             id="path12222" />
        </g>
        <g
           id="g12224"
           transform="translate(1397.3008,211.991)">
          <path
             d="M 0,0 H -14.208 V 18.363 H 0.372 C 7.478,18.363 10.89,14.394 10.89,9.04 10.89,3.783 7.292,0 0,0 m 21.872,-18.735 c -0.832,8.027 -3.969,11.536 -10.058,13.288 v 0.279 c 8.487,2.305 12.089,8.212 12.089,15.965 0,10.978 -8.491,18.363 -21.226,18.363 h -30.266 v -65.979 h 13.381 v 26.483 h 10.797 c 8.305,0 12.362,-4.063 12.915,-11.257 0.558,-7.107 0.74,-14.492 2.403,-15.226 H 24.73 v 0.641 c -2.305,1.018 -1.933,8.125 -2.858,17.443"
             style="fill:#f2f0e7;fill-opacity:1;fill-rule:nonzero;stroke:none"
             id="path12226" />
        </g>
        <g
           id="g12228"
           transform="translate(1458.8502,184.7694)">
          <path
             d="m 0,0 c -12.089,0 -18.27,10.239 -18.27,23.345 0,13.195 6.181,23.439 18.27,23.439 12.089,0 17.996,-10.244 17.996,-23.439 C 17.996,10.239 12.089,0 0,0 m -0.093,57.766 c -19.469,0 -31.837,-14.672 -31.837,-34.421 0,-19.748 12.368,-34.327 31.837,-34.327 19.474,0 31.744,14.579 31.744,34.327 0,19.749 -12.27,34.421 -31.744,34.421"
             style="fill:#f2f0e7;fill-opacity:1;fill-rule:nonzero;stroke:none"
             id="path12230" />
        </g>
        <g
           id="g12232"
           transform="translate(1521.5059,186.7029)">
          <path
             d="M 0,0 H -10.332 V 43.005 H 0.372 c 11.35,0 17.071,-9.137 17.071,-22.239 C 17.443,7.659 12.549,0 0,0 M 2.031,54.448 H -23.713 V -11.531 H 0.925 c 8.305,0 14.673,2.305 19.562,6.367 6.92,5.81 10.518,15.226 10.518,25.93 0,19.469 -11.35,33.682 -28.974,33.682"
             style="fill:#f2f0e7;fill-opacity:1;fill-rule:nonzero;stroke:none"
             id="path12234" />
        </g>
        <path
           d="m 1568.73,189.117 h -13.945 v -13.945 h 13.945 z"
           style="fill:#f2f0e7;fill-opacity:1;fill-rule:nonzero;stroke:none"
           id="path12236" />
        <g
           id="g12238"
           transform="translate(1616.7589,316.3837)">
          <path
             d="M 0,0 C -2.054,-2.46 -3.749,-5.336 -5.095,-8.617 H -5.43 l -0.114,43.658 h 12.99 c 7.088,0 10.634,-3.655 10.634,-10.969 0,-2.762 -0.803,-5.246 -2.408,-7.446 C 14.066,14.425 11.55,11.72 8.117,8.509 4.76,5.298 2.054,2.465 0,0 m 39.239,-55.189 c -2.39,6.79 -4.109,12.91 -5.152,18.359 l -5.596,30.224 c -0.746,3.957 -2.521,6.941 -5.316,8.957 -2.8,2.017 -6.03,3.023 -9.685,3.023 -2.464,0 -5,-0.558 -7.611,-1.677 v 0.222 c 1.189,1.044 2.573,2.106 4.141,3.192 1.567,1.081 3.262,2.182 5.095,3.301 1.827,1.119 2.965,1.794 3.413,2.016 3.136,1.714 5.577,3.192 7.334,4.42 1.751,1.232 3.206,2.649 4.362,4.254 1.157,1.605 1.738,3.452 1.738,5.543 0,3.655 -1.346,6.304 -4.032,7.947 -2.687,1.644 -5.709,2.465 -9.066,2.465 h -41.085 v -0.222 c 0.821,-2.54 1.379,-5.562 1.676,-9.071 0.298,-3.508 0.449,-7.984 0.449,-13.433 v -50.826 c 0,-5.449 -0.151,-9.925 -0.449,-13.434 -0.297,-3.508 -0.855,-6.53 -1.676,-9.066 v -0.226 h 18.92 v 0.226 c -1.421,4.774 -2.129,12.272 -2.129,22.5 v 15.336 c 0.151,4.628 0.911,8.679 2.295,12.15 1.378,3.47 3.04,6.115 4.981,7.947 1.941,1.827 3.844,2.743 5.709,2.743 1.719,0 3.248,-0.727 4.589,-2.181 1.346,-1.46 2.277,-3.603 2.801,-6.441 l 8.844,-52.28 h 16.682 v 0.226 c -0.151,0.444 -0.562,1.714 -1.232,3.806"
             style="fill:#f2f0e7;fill-opacity:1;fill-rule:nonzero;stroke:none"
             id="path12240" />
        </g>
        <g
           id="g12242"
           transform="translate(1714.5533,353.4404)">
          <path
             d="m 0,0 -24.517,-96.277 h -11.531 v 0.224 c 0.373,1.268 0.56,2.499 0.56,3.694 0,1.641 -0.207,3.414 -0.616,5.318 -0.411,1.903 -1.064,4.383 -1.959,7.444 -1.047,4.031 -1.531,5.822 -1.456,5.374 l -13.098,52.169 c -1.119,4.403 -2.911,9.589 -5.373,15.561 -0.299,0.745 -0.711,1.753 -1.232,3.023 -0.523,1.268 -0.895,2.35 -1.119,3.246 V 0 h 18.919 v -0.224 c -0.374,-1.27 -0.559,-2.501 -0.559,-3.694 0,-1.419 0.148,-2.893 0.447,-4.422 0.298,-1.531 0.653,-3.079 1.064,-4.646 0.409,-1.568 0.689,-2.614 0.84,-3.135 l 1.567,-5.933 15.225,-61.349 13.658,54.632 c 1.417,5.298 2.127,10.56 2.127,15.785 0,5.746 -1.046,10.075 -3.134,12.986 z"
             style="fill:#f2f0e7;fill-opacity:1;fill-rule:nonzero;stroke:none"
             id="path12244" />
        </g>
        <g
           id="g12246"
           transform="translate(1721.0515,257.1631)">
          <path
             d="m 0,0 v 0.224 c 0.821,2.536 1.381,5.559 1.679,9.068 0.298,3.507 0.448,7.985 0.448,13.434 v 50.825 c 0,5.447 -0.15,9.926 -0.448,13.434 C 1.381,90.493 0.821,93.515 0,96.053 v 0.224 H 18.92 V 96.053 C 17.501,91.276 16.792,83.776 16.792,73.551 V 1.903 h 3.247 c 2.24,0 5.262,0.336 9.068,1.008 3.807,0.671 7.593,1.64 11.363,2.91 3.768,1.269 6.81,2.724 9.124,4.366 V 0 Z"
             style="fill:#f2f0e7;fill-opacity:1;fill-rule:nonzero;stroke:none"
             id="path12248" />
        </g>
        <g
           id="g12250"
           transform="translate(1832.8683,332.502)">
          <path
             d="m 0,0 c -2.649,7.465 -6.478,13.136 -11.474,17.017 -1.843,1.433 -3.814,2.598 -5.911,3.501 -0.325,0.14 -0.7,0.127 -1.012,-0.039 -0.926,-0.492 -1.803,-1.061 -2.622,-1.7 -0.557,-0.433 -0.597,-1.271 -0.089,-1.76 2.052,-1.975 3.792,-4.833 5.21,-8.567 3.022,-7.947 4.533,-19.756 4.533,-35.433 0,-15.969 -1.511,-27.948 -4.533,-35.933 -3.022,-7.989 -7.485,-11.979 -13.378,-11.979 -5.524,0 -9.892,4.065 -13.098,12.201 -3.211,8.136 -4.811,20.04 -4.811,35.711 0,10.303 0.741,18.996 2.238,26.088 1.492,7.088 3.579,12.405 6.266,15.951 0.47,0.621 0.956,1.187 1.455,1.698 0.486,0.499 0.467,1.307 -0.071,1.749 -0.89,0.731 -1.854,1.376 -2.88,1.927 -0.315,0.169 -0.694,0.182 -1.021,0.039 -2.059,-0.896 -3.997,-2.046 -5.822,-3.454 -5.038,-3.881 -8.901,-9.571 -11.587,-17.074 -2.687,-7.498 -4.028,-16.474 -4.028,-26.924 0,-10.52 1.341,-19.553 4.028,-27.089 2.686,-7.541 6.549,-13.268 11.587,-17.183 5.038,-3.919 10.955,-5.878 17.744,-5.878 6.866,0 12.801,1.959 17.802,5.878 4.996,3.915 8.825,9.642 11.474,17.183 2.649,7.536 3.976,16.569 3.976,27.089 C 3.976,-16.456 2.649,-7.461 0,0"
             style="fill:#f2f0e7;fill-opacity:1;fill-rule:nonzero;stroke:none"
             id="path12252" />
        </g>
        <g
           id="g12254"
           transform="translate(1815.9877,355.7239)">
          <path
             d="m 0,0 c -1.195,-0.444 -2.337,-0.996 -3.409,-1.648 -1.228,-0.746 -2.37,-1.619 -3.404,-2.611 -2.14,-2.049 -3.821,-4.576 -4.874,-7.423 -0.132,-0.359 -0.448,-0.533 -0.764,-0.533 -0.317,0 -0.633,0.174 -0.765,0.533 -1.02,2.758 -2.626,5.218 -4.675,7.234 -1.067,1.048 -2.257,1.978 -3.541,2.762 -1.091,0.671 -2.248,1.237 -3.466,1.686 -0.713,0.264 -0.713,1.27 0,1.53 5.411,2.002 9.679,6.271 11.682,11.686 0.132,0.355 0.448,0.534 0.765,0.534 0.316,0 0.632,-0.179 0.764,-0.534 C -9.684,7.801 -5.416,3.532 0,1.53 0.708,1.27 0.708,0.264 0,0"
             style="fill:#f2f0e7;fill-opacity:1;fill-rule:nonzero;stroke:none"
             id="path12256" />
        </g>
        <path
           d="m 1825.123,180.023 h -11.839 v 11.839 h 11.839 z m -22.699,5.406 c -4.151,-3.449 -9.557,-5.406 -16.608,-5.406 h -20.917 v 56.014 h 21.856 c 14.963,0 24.598,-12.066 24.598,-28.595 0,-9.087 -3.054,-17.081 -8.929,-22.013 m -70.665,-6.582 c -16.53,0 -27.029,12.378 -27.029,29.144 0,16.766 10.499,29.222 27.029,29.222 16.533,0 26.949,-12.456 26.949,-29.222 0,-16.766 -10.416,-29.144 -26.949,-29.144 m -31.18,1.176 h -10.886 c -1.413,0.623 -1.567,6.893 -2.041,12.926 -0.469,6.108 -3.914,9.557 -10.965,9.557 h -9.166 v -22.483 h -11.36 v 56.014 h 25.695 c 10.811,0 18.021,-6.269 18.021,-15.589 0,-6.582 -3.058,-11.597 -10.264,-13.554 v -0.237 c 5.169,-1.488 7.833,-4.467 8.539,-11.281 0.785,-7.911 0.47,-13.944 2.427,-14.809 z m -68.783,20.289 h -13.787 v -20.289 h -11.751 v 56.014 h 24.598 c 6.503,0 11.36,-1.882 14.651,-5.251 3.133,-3.212 5.015,-7.6 5.015,-12.769 0,-10.575 -6.972,-17.705 -18.726,-17.705 m -37.258,-32.07 h 242.306 v 79.576 h -242.306 z"
           style="fill:#f2f0e7;fill-opacity:1;fill-rule:nonzero;stroke:none"
           id="path12258" />
        <g
           id="g12260"
           transform="translate(1679.8988,226.8714)">
          <path
             d="m 0,0 h -12.378 v -15.59 h 12.062 c 6.191,0 9.246,3.212 9.246,7.675 C 8.93,-3.37 6.033,0 0,0"
             style="fill:#f2f0e7;fill-opacity:1;fill-rule:nonzero;stroke:none"
             id="path12262" />
        </g>
        <g
           id="g12264"
           transform="translate(1629.9174,226.1651)">
          <path
             d="m 0,0 h -11.908 v -16.608 h 11.75 c 5.954,0 9.087,3.291 9.087,8.381 C 8.929,-2.979 5.639,0 0,0"
             style="fill:#f2f0e7;fill-opacity:1;fill-rule:nonzero;stroke:none"
             id="path12266" />
        </g>
        <g
           id="g12268"
           transform="translate(1731.8375,227.8895)">
          <path
             d="m 0,0 c -10.263,0 -15.511,-8.697 -15.511,-19.899 0,-11.127 5.248,-19.82 15.511,-19.82 10.263,0 15.278,8.693 15.278,19.82 C 15.278,-8.697 10.263,0 0,0"
             style="fill:#f2f0e7;fill-opacity:1;fill-rule:nonzero;stroke:none"
             id="path12270" />
        </g>
        <g
           id="g12272"
           transform="translate(1785.3466,226.323)">
          <path
             d="m 0,0 h -9.087 v -36.511 h 8.771 c 10.654,0 14.809,6.503 14.809,17.63 C 14.493,-7.758 9.636,0 0,0"
             style="fill:#f2f0e7;fill-opacity:1;fill-rule:nonzero;stroke:none"
             id="path12274" />
        </g>
        <g
           id="g12276"
           transform="translate(756.6405,330.5045)">
          <path
             d="M 0,0 C -1.767,-2.116 -3.225,-4.59 -4.383,-7.413 H -4.671 L -4.768,30.141 H 6.405 c 6.097,0 9.147,-3.143 9.147,-9.435 0,-2.376 -0.69,-4.512 -2.071,-6.405 C 12.1,12.408 9.935,10.081 6.982,7.319 4.094,4.557 1.767,2.12 0,0 m 33.752,-47.472 c -2.055,5.84 -3.533,11.104 -4.431,15.791 l -4.813,25.999 c -0.642,3.403 -2.169,5.97 -4.573,7.705 -2.409,1.734 -5.187,2.599 -8.331,2.599 -2.12,0 -4.301,-0.479 -6.547,-1.442 v 0.191 c 1.023,0.898 2.213,1.812 3.562,2.746 1.348,0.93 2.806,1.876 4.382,2.839 1.572,0.963 2.551,1.543 2.937,1.734 2.697,1.475 4.797,2.746 6.308,3.802 1.507,1.06 2.758,2.279 3.752,3.66 0.996,1.381 1.495,2.969 1.495,4.768 0,3.144 -1.157,5.422 -3.468,6.836 -2.311,1.413 -4.911,2.12 -7.799,2.12 h -35.34 v -0.191 c 0.706,-2.185 1.186,-4.785 1.442,-7.802 0.256,-3.018 0.386,-6.869 0.386,-11.556 v -43.719 c 0,-4.688 -0.13,-8.538 -0.386,-11.556 -0.256,-3.018 -0.736,-5.617 -1.442,-7.798 v -0.195 h 16.275 v 0.195 c -1.223,4.106 -1.832,10.556 -1.832,19.354 V -18.2 c 0.13,3.98 0.784,7.465 1.974,10.45 1.186,2.986 2.616,5.26 4.285,6.836 1.669,1.572 3.306,2.36 4.911,2.36 1.478,0 2.794,-0.626 3.947,-1.876 1.158,-1.256 1.958,-3.1 2.409,-5.541 l 7.608,-44.97 h 14.349 v 0.195 c -0.13,0.382 -0.483,1.474 -1.06,3.274"
             style="fill:#f2f0e7;fill-opacity:1;fill-rule:nonzero;stroke:none"
             id="path12278" />
        </g>
        <g
           id="g12280"
           transform="translate(840.7616,362.38)">
          <path
             d="m 0,0 -21.089,-82.816 h -9.919 v 0.193 c 0.321,1.09 0.482,2.15 0.482,3.177 0,1.412 -0.178,2.937 -0.53,4.575 -0.354,1.637 -0.915,3.77 -1.685,6.403 -0.9,3.467 -1.317,5.008 -1.252,4.623 l -11.267,44.874 c -0.963,3.788 -2.504,8.249 -4.622,13.386 -0.257,0.641 -0.611,1.507 -1.06,2.6 -0.449,1.091 -0.77,2.022 -0.963,2.792 V 0 h 16.275 v -0.193 c -0.322,-1.092 -0.482,-2.151 -0.482,-3.177 0,-1.221 0.128,-2.489 0.386,-3.804 0.255,-1.317 0.561,-2.648 0.914,-3.997 0.352,-1.348 0.593,-2.248 0.723,-2.696 l 1.348,-5.104 13.096,-52.771 11.749,46.993 c 1.218,4.558 1.829,9.084 1.829,13.578 0,4.943 -0.9,8.667 -2.696,11.171 z"
             style="fill:#f2f0e7;fill-opacity:1;fill-rule:nonzero;stroke:none"
             id="path12282" />
        </g>
        <g
           id="g12284"
           transform="translate(846.3513,279.564)">
          <path
             d="m 0,0 v 0.193 c 0.706,2.181 1.188,4.781 1.444,7.8 0.256,3.017 0.385,6.868 0.385,11.555 v 43.72 C 1.829,67.953 1.7,71.805 1.444,74.823 1.188,77.84 0.706,80.44 0,82.623 v 0.193 H 16.275 V 82.623 C 15.054,78.514 14.444,72.062 14.444,63.268 V 1.637 h 2.793 c 1.927,0 4.526,0.289 7.8,0.867 3.275,0.578 6.532,1.411 9.775,2.504 3.241,1.09 5.857,2.342 7.847,3.755 V 0 Z"
             style="fill:#f2f0e7;fill-opacity:1;fill-rule:nonzero;stroke:none"
             id="path12286" />
        </g>
        <g
           id="g12288"
           transform="translate(942.534,344.3691)">
          <path
             d="m 0,0 c -2.279,6.421 -5.573,11.299 -9.87,14.638 -1.585,1.232 -3.281,2.235 -5.085,3.011 -0.279,0.121 -0.602,0.11 -0.87,-0.033 -0.797,-0.423 -1.551,-0.913 -2.255,-1.462 -0.479,-0.373 -0.514,-1.094 -0.076,-1.515 1.765,-1.698 3.261,-4.157 4.48,-7.369 2.6,-6.835 3.9,-16.994 3.9,-30.478 0,-13.737 -1.3,-24.041 -3.9,-30.909 -2.599,-6.873 -6.437,-10.305 -11.506,-10.305 -4.752,0 -8.509,3.497 -11.267,10.495 -2.762,6.999 -4.139,17.238 -4.139,30.719 0,8.862 0.638,16.34 1.925,22.44 1.284,6.097 3.079,10.67 5.39,13.721 0.405,0.534 0.822,1.02 1.252,1.461 0.418,0.429 0.402,1.123 -0.061,1.503 -0.766,0.629 -1.595,1.185 -2.478,1.658 -0.27,0.145 -0.597,0.157 -0.878,0.034 -1.771,-0.771 -3.438,-1.76 -5.008,-2.971 -4.334,-3.339 -7.656,-8.233 -9.967,-14.687 -2.311,-6.45 -3.465,-14.171 -3.465,-23.159 0,-9.05 1.154,-16.82 3.465,-23.302 2.311,-6.486 5.633,-11.413 9.967,-14.78 4.334,-3.371 9.423,-5.057 15.264,-5.057 5.905,0 11.011,1.686 15.312,5.057 4.297,3.367 7.591,8.294 9.87,14.78 2.279,6.482 3.42,14.252 3.42,23.302 C 3.42,-14.155 2.279,-6.417 0,0"
             style="fill:#f2f0e7;fill-opacity:1;fill-rule:nonzero;stroke:none"
             id="path12290" />
        </g>
        <g
           id="g12292"
           transform="translate(928.0136,364.3443)">
          <path
             d="m 0,0 c -1.028,-0.382 -2.01,-0.857 -2.932,-1.418 -1.056,-0.641 -2.039,-1.393 -2.929,-2.246 -1.84,-1.762 -3.286,-3.935 -4.192,-6.384 -0.113,-0.309 -0.385,-0.459 -0.657,-0.459 -0.273,0 -0.545,0.15 -0.658,0.459 -0.878,2.371 -2.259,4.488 -4.022,6.222 -0.917,0.902 -1.941,1.702 -3.046,2.376 -0.938,0.577 -1.933,1.064 -2.981,1.45 -0.613,0.227 -0.613,1.093 0,1.316 4.655,1.722 8.326,5.394 10.049,10.053 0.113,0.304 0.385,0.459 0.658,0.459 0.272,0 0.544,-0.155 0.657,-0.459 C -8.33,6.71 -4.659,3.038 0,1.316 0.609,1.093 0.609,0.227 0,0"
             style="fill:#f2f0e7;fill-opacity:1;fill-rule:nonzero;stroke:none"
             id="path12294" />
        </g>
        <path
           d="m 1106.807,286.767 h -7.859 v 7.859 h 7.859 z m -15.069,3.589 c -2.756,-2.29 -6.345,-3.589 -11.026,-3.589 h -13.885 v 37.186 h 14.509 c 9.933,0 16.33,-8.01 16.33,-18.983 0,-6.033 -2.028,-11.34 -5.928,-14.614 m -46.912,-4.37 c -10.973,0 -17.944,8.218 -17.944,19.348 0,11.13 6.971,19.4 17.944,19.4 10.975,0 17.891,-8.27 17.891,-19.4 0,-11.13 -6.916,-19.348 -17.891,-19.348 m -20.7,0.781 h -7.227 c -0.937,0.414 -1.04,4.576 -1.354,8.581 -0.312,4.055 -2.598,6.345 -7.279,6.345 h -6.085 v -14.926 h -7.542 v 37.186 h 17.058 c 7.178,0 11.963,-4.162 11.963,-10.35 0,-4.369 -2.03,-7.698 -6.813,-8.997 v -0.158 c 3.432,-0.987 5.2,-2.965 5.669,-7.489 0.521,-5.252 0.311,-9.257 1.61,-9.83 z m -45.662,13.469 h -9.153 v -13.469 h -7.8 v 37.186 h 16.329 c 4.317,0 7.542,-1.249 9.727,-3.486 2.079,-2.133 3.329,-5.046 3.329,-8.477 0,-7.02 -4.629,-11.754 -12.432,-11.754 m -24.734,-21.29 h 160.858 v 52.828 H 953.73 Z"
           style="fill:#f2f0e7;fill-opacity:1;fill-rule:nonzero;stroke:none"
           id="path12296" />
        <g
           id="g12298"
           transform="translate(1010.3978,317.868)">
          <path
             d="m 0,0 h -8.217 v -10.349 h 8.008 c 4.109,0 6.137,2.132 6.137,5.094 C 5.928,-2.237 4.005,0 0,0"
             style="fill:#f2f0e7;fill-opacity:1;fill-rule:nonzero;stroke:none"
             id="path12300" />
        </g>
        <g
           id="g12302"
           transform="translate(977.217,317.3991)">
          <path
             d="m 0,0 h -7.906 v -11.025 h 7.801 c 3.953,0 6.033,2.184 6.033,5.563 C 5.928,-1.978 3.743,0 0,0"
             style="fill:#f2f0e7;fill-opacity:1;fill-rule:nonzero;stroke:none"
             id="path12304" />
        </g>
        <g
           id="g12306"
           transform="translate(1044.8779,318.5439)">
          <path
             d="m 0,0 c -6.813,0 -10.297,-5.773 -10.297,-13.21 0,-7.387 3.484,-13.158 10.297,-13.158 6.813,0 10.143,5.771 10.143,13.158 C 10.143,-5.773 6.813,0 0,0"
             style="fill:#f2f0e7;fill-opacity:1;fill-rule:nonzero;stroke:none"
             id="path12308" />
        </g>
        <g
           id="g12310"
           transform="translate(1080.4006,317.5039)">
          <path
             d="m 0,0 h -6.033 v -24.238 h 5.823 c 7.073,0 9.831,4.317 9.831,11.704 C 9.621,-5.15 6.397,0 0,0"
             style="fill:#f2f0e7;fill-opacity:1;fill-rule:nonzero;stroke:none"
             id="path12312" />
        </g>
        <g
           id="g12314"
           transform="translate(715.2994,213.1949)">
          <path
             d="M 0,0 C -1.739,-2.083 -3.174,-4.517 -4.313,-7.295 H -4.597 L -4.693,29.664 H 6.304 c 6,0 9.002,-3.094 9.002,-9.286 0,-2.338 -0.68,-4.441 -2.039,-6.304 C 11.908,12.212 9.777,9.921 6.871,7.203 4.029,4.485 1.739,2.087 0,0 m 33.217,-46.72 c -2.022,5.748 -3.477,10.928 -4.361,15.541 L 24.12,-5.592 C 23.488,-2.242 21.985,0.284 19.619,1.991 17.248,3.697 14.514,4.549 11.42,4.549 9.334,4.549 7.187,4.077 4.977,3.13 v 0.188 c 1.007,0.883 2.178,1.783 3.505,2.702 1.327,0.915 2.762,1.847 4.313,2.794 1.547,0.947 2.511,1.519 2.89,1.707 2.654,1.451 4.721,2.702 6.208,3.741 1.483,1.044 2.714,2.243 3.693,3.602 0.98,1.359 1.471,2.922 1.471,4.693 0,3.094 -1.139,5.336 -3.413,6.727 -2.275,1.391 -4.833,2.087 -7.675,2.087 h -34.78 v -0.188 c 0.695,-2.151 1.167,-4.709 1.419,-7.679 0.252,-2.97 0.38,-6.759 0.38,-11.372 v -43.027 c 0,-4.613 -0.128,-8.402 -0.38,-11.372 -0.252,-2.97 -0.724,-5.528 -1.419,-7.675 v -0.192 h 16.017 v 0.192 c -1.203,4.041 -1.803,10.389 -1.803,19.047 v 12.983 c 0.128,3.918 0.771,7.347 1.943,10.285 1.167,2.938 2.574,5.177 4.217,6.728 1.643,1.547 3.254,2.322 4.833,2.322 1.455,0 2.75,-0.616 3.885,-1.847 1.139,-1.235 1.927,-3.05 2.37,-5.452 l 7.487,-44.258 h 14.123 v 0.192 c -0.128,0.376 -0.476,1.451 -1.044,3.222"
             style="fill:#f2f0e7;fill-opacity:1;fill-rule:nonzero;stroke:none"
             id="path12316" />
        </g>
        <g
           id="g12318"
           transform="translate(798.0873,244.5653)">
          <path
             d="m 0,0 -20.755,-81.504 h -9.761 v 0.19 c 0.315,1.074 0.473,2.116 0.473,3.127 0,1.39 -0.174,2.891 -0.521,4.502 -0.348,1.611 -0.9,3.711 -1.658,6.302 -0.886,3.412 -1.296,4.929 -1.233,4.549 l -11.088,44.164 c -0.947,3.727 -2.464,8.118 -4.549,13.173 -0.253,0.631 -0.601,1.484 -1.042,2.559 -0.443,1.074 -0.758,1.99 -0.948,2.748 V 0 h 16.016 v -0.19 c -0.317,-1.075 -0.473,-2.117 -0.473,-3.127 0,-1.201 0.125,-2.449 0.379,-3.744 0.252,-1.295 0.552,-2.606 0.9,-3.933 0.346,-1.326 0.584,-2.212 0.711,-2.653 l 1.327,-5.023 12.888,-51.935 11.563,46.249 c 1.199,4.485 1.8,8.939 1.8,13.362 0,4.865 -0.885,8.53 -2.653,10.994 z"
             style="fill:#f2f0e7;fill-opacity:1;fill-rule:nonzero;stroke:none"
             id="path12320" />
        </g>
        <g
           id="g12322"
           transform="translate(803.5883,163.0618)">
          <path
             d="M 0,0 V 0.19 C 0.695,2.337 1.169,4.896 1.421,7.866 1.673,10.835 1.8,14.626 1.8,19.239 V 62.265 C 1.8,66.876 1.673,70.667 1.421,73.637 1.169,76.607 0.695,79.165 0,81.314 v 0.19 h 16.017 v -0.19 C 14.815,77.27 14.215,70.92 14.215,62.265 V 1.611 h 2.749 c 1.896,0 4.454,0.284 7.677,0.853 3.222,0.569 6.427,1.389 9.619,2.464 3.19,1.074 5.765,2.306 7.723,3.696 V 0 Z"
             style="fill:#f2f0e7;fill-opacity:1;fill-rule:nonzero;stroke:none"
             id="path12324" />
        </g>
        <g
           id="g12326"
           transform="translate(898.2467,226.8398)">
          <path
             d="m 0,0 c -2.242,6.32 -5.484,11.12 -9.713,14.406 -1.56,1.212 -3.229,2.199 -5.005,2.964 -0.274,0.118 -0.592,0.107 -0.856,-0.033 -0.784,-0.417 -1.526,-0.899 -2.22,-1.439 -0.471,-0.367 -0.505,-1.077 -0.075,-1.491 1.737,-1.672 3.21,-4.091 4.41,-7.252 2.558,-6.727 3.838,-16.725 3.838,-29.995 0,-13.519 -1.28,-23.66 -3.838,-30.42 -2.558,-6.763 -6.336,-10.141 -11.324,-10.141 -4.677,0 -8.374,3.442 -11.088,10.329 -2.719,6.887 -4.074,16.965 -4.074,30.232 0,8.722 0.628,16.081 1.895,22.084 1.263,6 3.03,10.501 5.304,13.503 0.399,0.526 0.81,1.005 1.232,1.438 0.412,0.422 0.396,1.106 -0.06,1.48 -0.753,0.619 -1.57,1.166 -2.438,1.632 -0.266,0.143 -0.588,0.153 -0.865,0.033 -1.742,-0.759 -3.383,-1.733 -4.928,-2.924 -4.265,-3.286 -7.535,-8.102 -9.809,-14.454 -2.275,-6.348 -3.41,-13.946 -3.41,-22.792 0,-8.906 1.135,-16.553 3.41,-22.933 2.274,-6.383 5.544,-11.232 9.809,-14.546 4.265,-3.318 9.274,-4.977 15.022,-4.977 5.812,0 10.836,1.659 15.07,4.977 4.229,3.314 7.471,8.163 9.713,14.546 2.242,6.38 3.366,14.027 3.366,22.933 C 3.366,-13.931 2.242,-6.316 0,0"
             style="fill:#f2f0e7;fill-opacity:1;fill-rule:nonzero;stroke:none"
             id="path12328" />
        </g>
        <g
           id="g12330"
           transform="translate(883.9564,246.4984)">
          <path
             d="m 0,0 c -1.011,-0.376 -1.979,-0.843 -2.886,-1.395 -1.039,-0.632 -2.007,-1.371 -2.882,-2.211 -1.811,-1.734 -3.234,-3.873 -4.125,-6.283 -0.112,-0.304 -0.38,-0.452 -0.648,-0.452 -0.268,0 -0.535,0.148 -0.647,0.452 -0.864,2.334 -2.223,4.417 -3.958,6.124 -0.903,0.887 -1.91,1.674 -2.998,2.338 -0.923,0.568 -1.902,1.047 -2.934,1.427 -0.603,0.224 -0.603,1.075 0,1.295 4.581,1.695 8.195,5.309 9.89,9.893 0.112,0.3 0.379,0.452 0.647,0.452 0.268,0 0.536,-0.152 0.648,-0.452 C -8.198,6.604 -4.585,2.99 0,1.295 0.6,1.075 0.6,0.224 0,0"
             style="fill:#f2f0e7;fill-opacity:1;fill-rule:nonzero;stroke:none"
             id="path12332" />
        </g>
        <path
           d="m 1148.448,175.128 h -12.126 v 12.126 h 12.126 z m -23.249,5.537 c -4.252,-3.532 -9.788,-5.537 -17.01,-5.537 h -21.423 v 57.371 h 22.385 c 15.325,0 25.194,-12.358 25.194,-29.287 0,-9.308 -3.128,-17.496 -9.146,-22.547 m -72.377,-6.741 c -16.929,0 -27.683,12.677 -27.683,29.849 0,17.172 10.754,29.931 27.683,29.931 16.933,0 27.603,-12.759 27.603,-29.931 0,-17.172 -10.67,-29.849 -27.603,-29.849 m -31.935,1.204 h -11.15 c -1.447,0.638 -1.605,7.06 -2.09,13.24 -0.481,6.256 -4.009,9.788 -11.231,9.788 h -9.388 v -23.028 h -11.635 v 57.371 h 26.318 c 11.073,0 18.457,-6.421 18.457,-15.967 0,-6.741 -3.132,-11.878 -10.512,-13.882 v -0.243 c 5.294,-1.523 8.022,-4.575 8.746,-11.554 0.804,-8.103 0.48,-14.282 2.485,-15.167 z m -70.449,20.781 h -14.121 v -20.781 h -12.035 v 57.371 h 25.194 c 6.66,0 11.635,-1.927 15.005,-5.379 3.209,-3.289 5.137,-7.783 5.137,-13.078 0,-10.83 -7.141,-18.133 -19.18,-18.133 m -38.161,-32.847 h 248.176 v 81.504 H 912.277 Z"
           style="fill:#f2f0e7;fill-opacity:1;fill-rule:nonzero;stroke:none"
           id="path12334" />
        <g
           id="g12336"
           transform="translate(999.7061,223.1112)">
          <path
             d="m 0,0 h -12.678 v -15.967 h 12.355 c 6.341,0 9.469,3.289 9.469,7.86 C 9.146,-3.451 6.179,0 0,0"
             style="fill:#f2f0e7;fill-opacity:1;fill-rule:nonzero;stroke:none"
             id="path12338" />
        </g>
        <g
           id="g12340"
           transform="translate(948.5139,222.3878)">
          <path
             d="m 0,0 h -12.197 v -17.01 h 12.035 c 6.099,0 9.308,3.37 9.308,8.584 C 9.146,-3.051 5.775,0 0,0"
             style="fill:#f2f0e7;fill-opacity:1;fill-rule:nonzero;stroke:none"
             id="path12342" />
        </g>
        <g
           id="g12344"
           transform="translate(1052.9027,224.154)">
          <path
             d="m 0,0 c -10.512,0 -15.887,-8.907 -15.887,-20.381 0,-11.396 5.375,-20.3 15.887,-20.3 10.512,0 15.648,8.904 15.648,20.3 C 15.648,-8.907 10.512,0 0,0"
             style="fill:#f2f0e7;fill-opacity:1;fill-rule:nonzero;stroke:none"
             id="path12346" />
        </g>
        <g
           id="g12348"
           transform="translate(1107.708,222.5496)">
          <path
             d="m 0,0 h -9.307 v -37.395 h 8.984 c 10.911,0 15.167,6.66 15.167,18.057 C 14.844,-7.945 9.869,0 0,0"
             style="fill:#f2f0e7;fill-opacity:1;fill-rule:nonzero;stroke:none"
             id="path12350" />
        </g>
        <g
           id="g12352"
           transform="translate(144.2002,327.4149)">
          <path
             d="M 0,0 C -1.767,-2.116 -3.225,-4.59 -4.383,-7.413 H -4.671 L -4.768,30.141 H 6.405 c 6.097,0 9.147,-3.143 9.147,-9.435 0,-2.376 -0.69,-4.512 -2.071,-6.405 C 12.1,12.408 9.935,10.081 6.982,7.319 4.094,4.557 1.767,2.12 0,0 m 33.752,-47.472 c -2.055,5.84 -3.533,11.104 -4.431,15.791 l -4.813,25.999 c -0.642,3.403 -2.169,5.97 -4.573,7.705 -2.409,1.734 -5.187,2.599 -8.331,2.599 -2.12,0 -4.301,-0.479 -6.547,-1.442 v 0.191 c 1.023,0.898 2.213,1.812 3.562,2.746 1.348,0.93 2.806,1.876 4.382,2.839 1.572,0.963 2.551,1.543 2.937,1.734 2.697,1.475 4.797,2.746 6.308,3.802 1.507,1.06 2.758,2.279 3.753,3.66 0.995,1.381 1.494,2.969 1.494,4.768 0,3.144 -1.157,5.422 -3.468,6.836 -2.311,1.413 -4.911,2.12 -7.799,2.12 h -35.34 v -0.191 c 0.706,-2.185 1.186,-4.785 1.442,-7.802 0.256,-3.018 0.386,-6.869 0.386,-11.556 v -43.719 c 0,-4.688 -0.13,-8.538 -0.386,-11.556 -0.256,-3.018 -0.736,-5.617 -1.442,-7.798 v -0.195 h 16.275 v 0.195 c -1.223,4.106 -1.832,10.556 -1.832,19.354 V -18.2 c 0.13,3.98 0.784,7.465 1.974,10.45 1.186,2.986 2.616,5.26 4.285,6.836 1.669,1.572 3.306,2.36 4.911,2.36 1.478,0 2.794,-0.626 3.947,-1.876 1.158,-1.256 1.958,-3.1 2.409,-5.541 l 7.608,-44.97 h 14.349 v 0.195 c -0.13,0.382 -0.483,1.474 -1.06,3.274"
             style="fill:#f2f0e7;fill-opacity:1;fill-rule:nonzero;stroke:none"
             id="path12354" />
        </g>
        <g
           id="g12356"
           transform="translate(228.3213,359.2904)">
          <path
             d="m 0,0 -21.089,-82.816 h -9.919 v 0.193 c 0.321,1.09 0.482,2.15 0.482,3.177 0,1.412 -0.178,2.937 -0.53,4.575 -0.354,1.637 -0.915,3.77 -1.685,6.403 -0.9,3.467 -1.317,5.008 -1.252,4.623 l -11.267,44.874 c -0.963,3.788 -2.504,8.249 -4.622,13.386 -0.257,0.641 -0.611,1.507 -1.06,2.6 -0.449,1.091 -0.77,2.022 -0.963,2.792 V 0 h 16.275 v -0.193 c -0.322,-1.092 -0.482,-2.151 -0.482,-3.177 0,-1.221 0.128,-2.489 0.386,-3.804 0.255,-1.317 0.561,-2.648 0.914,-3.997 0.352,-1.348 0.593,-2.248 0.723,-2.696 l 1.348,-5.104 13.096,-52.771 11.749,46.993 c 1.218,4.558 1.829,9.084 1.829,13.578 0,4.943 -0.9,8.667 -2.696,11.171 z"
             style="fill:#f2f0e7;fill-opacity:1;fill-rule:nonzero;stroke:none"
             id="path12358" />
        </g>
        <g
           id="g12360"
           transform="translate(233.9109,276.4744)">
          <path
             d="m 0,0 v 0.193 c 0.706,2.181 1.188,4.781 1.444,7.8 0.256,3.017 0.385,6.868 0.385,11.555 v 43.72 C 1.829,67.953 1.7,71.805 1.444,74.823 1.188,77.84 0.706,80.44 0,82.623 v 0.193 H 16.275 V 82.623 C 15.054,78.514 14.444,72.062 14.444,63.268 V 1.637 h 2.793 c 1.927,0 4.526,0.289 7.8,0.867 3.275,0.578 6.532,1.411 9.775,2.504 3.241,1.09 5.857,2.342 7.848,3.755 L 42.66,0 Z"
             style="fill:#f2f0e7;fill-opacity:1;fill-rule:nonzero;stroke:none"
             id="path12362" />
        </g>
        <g
           id="g12364"
           transform="translate(330.0937,341.2795)">
          <path
             d="m 0,0 c -2.279,6.421 -5.572,11.299 -9.87,14.638 -1.585,1.232 -3.281,2.235 -5.085,3.011 -0.279,0.121 -0.602,0.11 -0.87,-0.033 -0.797,-0.423 -1.551,-0.913 -2.255,-1.462 -0.479,-0.373 -0.514,-1.094 -0.076,-1.515 1.765,-1.698 3.261,-4.156 4.48,-7.369 2.6,-6.835 3.9,-16.994 3.9,-30.478 0,-13.737 -1.3,-24.041 -3.9,-30.909 -2.599,-6.873 -6.437,-10.305 -11.506,-10.305 -4.752,0 -8.509,3.497 -11.267,10.496 -2.762,6.998 -4.139,17.237 -4.139,30.718 0,8.862 0.638,16.34 1.925,22.44 1.284,6.097 3.079,10.67 5.39,13.721 0.405,0.534 0.822,1.02 1.252,1.461 0.418,0.429 0.402,1.123 -0.061,1.503 -0.766,0.629 -1.595,1.185 -2.478,1.658 -0.27,0.145 -0.597,0.157 -0.878,0.034 -1.771,-0.771 -3.438,-1.76 -5.008,-2.971 -4.334,-3.339 -7.656,-8.233 -9.967,-14.687 -2.311,-6.45 -3.465,-14.171 -3.465,-23.159 0,-9.05 1.154,-16.82 3.465,-23.302 2.311,-6.486 5.633,-11.413 9.967,-14.78 4.334,-3.371 9.423,-5.057 15.264,-5.057 5.905,0 11.011,1.686 15.312,5.057 4.298,3.367 7.591,8.294 9.87,14.78 2.279,6.482 3.42,14.252 3.42,23.302 C 3.42,-14.155 2.279,-6.417 0,0"
             style="fill:#f2f0e7;fill-opacity:1;fill-rule:nonzero;stroke:none"
             id="path12366" />
        </g>
        <g
           id="g12368"
           transform="translate(315.5733,361.2547)">
          <path
             d="m 0,0 c -1.027,-0.382 -2.01,-0.857 -2.932,-1.418 -1.056,-0.641 -2.039,-1.393 -2.929,-2.246 -1.84,-1.762 -3.286,-3.935 -4.192,-6.384 -0.113,-0.309 -0.385,-0.459 -0.657,-0.459 -0.273,0 -0.545,0.15 -0.658,0.459 -0.878,2.371 -2.259,4.488 -4.022,6.222 -0.917,0.902 -1.941,1.702 -3.046,2.376 -0.938,0.577 -1.933,1.064 -2.981,1.45 -0.613,0.227 -0.613,1.093 0,1.316 4.655,1.722 8.326,5.394 10.049,10.053 0.113,0.304 0.385,0.459 0.658,0.459 0.272,0 0.544,-0.155 0.657,-0.459 C -8.33,6.71 -4.659,3.038 0,1.316 0.609,1.093 0.609,0.227 0,0"
             style="fill:#f2f0e7;fill-opacity:1;fill-rule:nonzero;stroke:none"
             id="path12370" />
        </g>
        <g
           id="g12372"
           transform="translate(358.5621,298.1954)">
          <path
             d="M 0,0 H -8.636 V 12.206 H 0.116 C 4.26,12.206 6.679,10.017 6.679,6.16 6.679,2.419 4.376,0 0,0 m 11.574,15.602 c -2.419,2.477 -5.989,3.86 -10.768,3.86 h -18.079 v -41.169 h 8.637 V -6.795 H 1.496 c 8.64,0 13.764,5.241 13.764,13.013 0,3.799 -1.383,7.023 -3.686,9.384"
             style="fill:#f2f0e7;fill-opacity:1;fill-rule:nonzero;stroke:none"
             id="path12374" />
        </g>
        <g
           id="g12376"
           transform="translate(395.1807,299.4627)">
          <path
             d="m 0,0 h -8.865 v 11.458 h 9.097 c 4.434,0 6.563,-2.477 6.563,-5.817 C 6.795,2.361 4.55,0 0,0 m 13.648,-11.69 c -0.52,5.008 -2.477,7.198 -6.276,8.291 v 0.174 c 5.295,1.439 7.543,5.125 7.543,9.962 0,6.85 -5.298,11.458 -13.245,11.458 h -18.885 v -41.169 h 8.35 V -6.45 h 6.736 c 5.183,0 7.714,-2.534 8.059,-7.024 0.349,-4.434 0.462,-9.042 1.5,-9.5 h 8.001 v 0.4 c -1.438,0.635 -1.206,5.069 -1.783,10.884"
             style="fill:#f2f0e7;fill-opacity:1;fill-rule:nonzero;stroke:none"
             id="path12378" />
        </g>
        <g
           id="g12380"
           transform="translate(433.5857,282.4772)">
          <path
             d="m 0,0 c -7.543,0 -11.4,6.389 -11.4,14.567 0,8.233 3.857,14.625 11.4,14.625 7.543,0 11.229,-6.392 11.229,-14.625 C 11.229,6.389 7.543,0 0,0 m -0.058,36.044 c -12.148,0 -19.865,-9.155 -19.865,-21.477 0,-12.322 7.717,-21.42 19.865,-21.42 12.151,0 19.807,9.098 19.807,21.42 0,12.322 -7.656,21.477 -19.807,21.477"
             style="fill:#f2f0e7;fill-opacity:1;fill-rule:nonzero;stroke:none"
             id="path12382" />
        </g>
        <g
           id="g12384"
           transform="translate(472.6809,283.6837)">
          <path
             d="m 0,0 h -6.447 v 26.834 h 6.679 c 7.082,0 10.652,-5.702 10.652,-13.877 C 10.884,4.779 7.83,0 0,0 M 1.267,33.974 H -14.796 V -7.195 H 0.577 c 5.182,0 9.155,1.438 12.206,3.973 4.318,3.625 6.563,9.501 6.563,16.179 0,12.149 -7.082,21.017 -18.079,21.017"
             style="fill:#f2f0e7;fill-opacity:1;fill-rule:nonzero;stroke:none"
             id="path12386" />
        </g>
        <path
           d="m 502.148,285.19 h -8.701 v -8.701 h 8.701 z"
           style="fill:#f2f0e7;fill-opacity:1;fill-rule:nonzero;stroke:none"
           id="path12388" />
        <g
           id="g12390"
           transform="translate(97.6295,209.6763)">
          <path
             d="m 0,0 c -1.516,-1.816 -2.768,-3.939 -3.761,-6.362 h -0.248 l -0.083,32.231 h 9.589 c 5.232,0 7.85,-2.698 7.85,-8.098 0,-2.039 -0.592,-3.873 -1.777,-5.497 C 10.384,10.649 8.526,8.652 5.992,6.282 3.514,3.911 1.516,1.82 0,0 m 28.968,-40.743 c -1.764,5.013 -3.033,9.531 -3.804,13.553 l -4.13,22.313 C 20.483,-1.956 19.172,0.247 17.109,1.736 15.041,3.224 12.657,3.967 9.959,3.967 8.14,3.967 6.268,3.556 4.34,2.729 v 0.164 c 0.878,0.771 1.9,1.555 3.057,2.357 1.157,0.798 2.409,1.61 3.761,2.436 1.349,0.827 2.189,1.325 2.52,1.489 2.315,1.265 4.117,2.356 5.414,3.263 1.293,0.909 2.367,1.955 3.221,3.14 0.854,1.186 1.283,2.548 1.283,4.093 0,2.698 -0.994,4.653 -2.977,5.866 -1.984,1.214 -4.215,1.82 -6.693,1.82 h -30.33 v -0.164 c 0.606,-1.875 1.017,-4.106 1.237,-6.696 0.22,-2.59 0.331,-5.895 0.331,-9.917 v -37.522 c 0,-4.023 -0.111,-7.327 -0.331,-9.917 -0.22,-2.59 -0.631,-4.821 -1.237,-6.693 v -0.168 h 13.967 v 0.168 c -1.049,3.524 -1.572,9.059 -1.572,16.61 v 11.322 c 0.112,3.416 0.673,6.407 1.694,8.969 1.018,2.562 2.245,4.514 3.678,5.867 1.433,1.349 2.837,2.025 4.214,2.025 1.269,0 2.399,-0.537 3.389,-1.61 0.993,-1.078 1.68,-2.66 2.067,-4.755 l 6.529,-38.596 h 12.315 v 0.168 c -0.111,0.327 -0.415,1.265 -0.909,2.809"
             style="fill:#f2f0e7;fill-opacity:1;fill-rule:nonzero;stroke:none"
             id="path12392" />
        </g>
        <g
           id="g12394"
           transform="translate(169.8253,237.0331)">
          <path
             d="m 0,0 -18.1,-71.076 h -8.512 v 0.165 c 0.275,0.937 0.413,1.846 0.413,2.728 0,1.211 -0.152,2.521 -0.454,3.926 -0.304,1.404 -0.786,3.236 -1.447,5.496 -0.772,2.975 -1.13,4.297 -1.074,3.967 l -9.67,38.513 c -0.826,3.25 -2.149,7.079 -3.967,11.488 -0.22,0.55 -0.524,1.293 -0.909,2.231 -0.386,0.936 -0.661,1.736 -0.826,2.397 V 0 h 13.967 v -0.165 c -0.277,-0.938 -0.413,-1.847 -0.413,-2.728 0,-1.047 0.109,-2.135 0.33,-3.264 0.22,-1.13 0.482,-2.273 0.785,-3.43 0.302,-1.157 0.509,-1.929 0.62,-2.314 l 1.157,-4.38 11.24,-45.29 10.083,40.331 c 1.046,3.911 1.57,7.796 1.57,11.653 0,4.242 -0.772,7.438 -2.314,9.587 z"
             style="fill:#f2f0e7;fill-opacity:1;fill-rule:nonzero;stroke:none"
             id="path12396" />
        </g>
        <g
           id="g12398"
           transform="translate(174.6226,165.9572)">
          <path
             d="m 0,0 v 0.165 c 0.606,1.873 1.019,4.104 1.239,6.695 0.22,2.589 0.331,5.895 0.331,9.917 v 37.522 c 0,4.021 -0.111,7.327 -0.331,9.917 C 1.019,66.805 0.606,69.037 0,70.911 v 0.165 H 13.967 V 70.911 C 12.92,67.384 12.397,61.847 12.397,54.299 V 1.405 h 2.396 c 1.654,0 3.885,0.248 6.695,0.744 2.81,0.496 5.605,1.211 8.389,2.149 2.781,0.936 5.027,2.01 6.735,3.223 V 0 Z"
             style="fill:#f2f0e7;fill-opacity:1;fill-rule:nonzero;stroke:none"
             id="path12400" />
        </g>
        <g
           id="g12402"
           transform="translate(257.1702,221.5754)">
          <path
             d="m 0,0 c -1.956,5.511 -4.783,9.698 -8.471,12.563 -1.36,1.057 -2.815,1.918 -4.364,2.584 -0.239,0.104 -0.516,0.094 -0.747,-0.028 -0.683,-0.364 -1.33,-0.784 -1.935,-1.255 -0.411,-0.32 -0.441,-0.939 -0.065,-1.3 1.514,-1.458 2.798,-3.568 3.845,-6.324 2.231,-5.867 3.347,-14.585 3.347,-26.158 0,-11.789 -1.116,-20.633 -3.347,-26.528 -2.231,-5.898 -5.525,-8.843 -9.875,-8.843 -4.079,0 -7.303,3.001 -9.67,9.007 -2.37,6.006 -3.552,14.794 -3.552,26.364 0,7.606 0.547,14.023 1.652,19.259 1.102,5.232 2.642,9.157 4.626,11.775 0.347,0.459 0.706,0.876 1.074,1.254 0.359,0.369 0.345,0.965 -0.052,1.291 -0.657,0.539 -1.369,1.016 -2.126,1.423 -0.233,0.124 -0.513,0.134 -0.754,0.029 -1.52,-0.662 -2.951,-1.511 -4.298,-2.55 -3.72,-2.865 -6.571,-7.066 -8.554,-12.605 -1.984,-5.535 -2.974,-12.162 -2.974,-19.876 0,-7.767 0.99,-14.435 2.974,-19.999 1.983,-5.567 4.834,-9.795 8.554,-12.685 3.719,-2.893 8.087,-4.34 13.1,-4.34 5.068,0 9.45,1.447 13.141,4.34 3.688,2.89 6.515,7.118 8.471,12.685 1.956,5.564 2.935,12.232 2.935,19.999 C 2.935,-12.148 1.956,-5.508 0,0"
             style="fill:#f2f0e7;fill-opacity:1;fill-rule:nonzero;stroke:none"
             id="path12404" />
        </g>
        <g
           id="g12406"
           transform="translate(244.7082,238.7188)">
          <path
             d="m 0,0 c -0.882,-0.328 -1.725,-0.736 -2.517,-1.217 -0.906,-0.55 -1.75,-1.195 -2.513,-1.927 -1.579,-1.513 -2.82,-3.378 -3.597,-5.48 -0.098,-0.265 -0.332,-0.394 -0.565,-0.394 -0.234,0 -0.467,0.129 -0.565,0.394 -0.753,2.036 -1.938,3.852 -3.451,5.34 -0.788,0.774 -1.666,1.461 -2.614,2.04 -0.805,0.495 -1.66,0.913 -2.559,1.244 -0.526,0.195 -0.526,0.938 0,1.129 3.995,1.478 7.146,4.63 8.624,8.628 0.098,0.261 0.331,0.394 0.565,0.394 0.233,0 0.467,-0.133 0.565,-0.394 C -7.149,5.759 -3.998,2.607 0,1.129 0.523,0.938 0.523,0.195 0,0"
             style="fill:#f2f0e7;fill-opacity:1;fill-rule:nonzero;stroke:none"
             id="path12408" />
        </g>
        <g
           id="g12410"
           transform="translate(298.8837,203.4807)">
          <path
             d="M 0,0 H -14.864 V 21.008 H 0.2 c 7.132,0 11.295,-3.768 11.295,-10.407 C 11.495,4.163 7.532,0 0,0 M 19.92,26.853 C 15.757,31.115 9.613,33.496 1.387,33.496 h -31.115 v -70.855 h 14.864 v 25.665 h 17.44 c 14.868,0 23.688,9.019 23.688,22.395 0,6.539 -2.381,12.089 -6.344,16.152"
             style="fill:#f2f0e7;fill-opacity:1;fill-rule:nonzero;stroke:none"
             id="path12412" />
        </g>
        <g
           id="g12414"
           transform="translate(361.908,205.6618)">
          <path
             d="M 0,0 H -15.258 V 19.72 H 0.399 C 8.031,19.72 11.695,15.458 11.695,9.708 11.695,4.063 7.831,0 0,0 m 23.489,-20.12 c -0.894,8.62 -4.263,12.389 -10.801,14.27 v 0.3 c 9.114,2.475 12.982,8.819 12.982,17.145 0,11.789 -9.119,19.72 -22.795,19.72 h -32.503 v -70.856 h 14.37 V -11.1 h 11.595 c 8.919,0 13.276,-4.363 13.87,-12.089 0.599,-7.632 0.794,-15.563 2.581,-16.352 h 13.77 v 0.689 c -2.475,1.093 -2.076,8.725 -3.069,18.732"
             style="fill:#f2f0e7;fill-opacity:1;fill-rule:nonzero;stroke:none"
             id="path12416" />
        </g>
        <g
           id="g12418"
           transform="translate(428.0068,176.4281)">
          <path
             d="m 0,0 c -12.982,0 -19.621,10.996 -19.621,25.071 0,14.17 6.639,25.171 19.621,25.171 12.982,0 19.326,-11.001 19.326,-25.171 C 19.326,10.996 12.982,0 0,0 m -0.1,62.036 c -20.908,0 -34.19,-15.757 -34.19,-36.965 0,-21.208 13.282,-36.865 34.19,-36.865 20.913,0 34.09,15.657 34.09,36.865 0,21.208 -13.177,36.965 -34.09,36.965"
             style="fill:#f2f0e7;fill-opacity:1;fill-rule:nonzero;stroke:none"
             id="path12420" />
        </g>
        <g
           id="g12422"
           transform="translate(495.2936,178.5046)">
          <path
             d="M 0,0 H -11.095 V 46.184 H 0.399 c 12.189,0 18.333,-9.813 18.333,-23.883 C 18.732,8.226 13.476,0 0,0 M 2.181,58.472 H -25.465 V -12.383 H 0.993 c 8.92,0 15.757,2.475 21.008,6.838 7.432,6.239 11.295,16.351 11.295,27.846 0,20.908 -12.188,36.171 -31.115,36.171"
             style="fill:#f2f0e7;fill-opacity:1;fill-rule:nonzero;stroke:none"
             id="path12424" />
        </g>
        <path
           d="m 546.009,181.097 h -14.976 v -14.976 h 14.976 z"
           style="fill:#f2f0e7;fill-opacity:1;fill-rule:nonzero;stroke:none"
           id="path12426" />
      </g>
    </g>
    <g
       id="g12428">
      <g
         id="g12430"
         clip-path="url(#clipPath12434)">
        <g
           id="g12436"
           transform="translate(-96.043,1000)">
          <path
             d="M 0,0 H 2111.29"
             style="fill:none;stroke:#71ccd8;stroke-width:0.5;stroke-linecap:butt;stroke-linejoin:miter;stroke-miterlimit:10;stroke-dasharray:none;stroke-opacity:1"
             id="path12438" />
        </g>
        <g
           id="g12440"
           transform="translate(-101.69,1040)">
          <path
             d="M 0,0 H 2111.29"
             style="fill:none;stroke:#71ccd8;stroke-width:0.5;stroke-linecap:butt;stroke-linejoin:miter;stroke-miterlimit:10;stroke-dasharray:none;stroke-opacity:1"
             id="path12442" />
        </g>
        <g
           id="g12444"
           transform="translate(-96.043,80)">
          <path
             d="M 0,0 H 2111.29"
             style="fill:none;stroke:#71ccd8;stroke-width:0.5;stroke-linecap:butt;stroke-linejoin:miter;stroke-miterlimit:10;stroke-dasharray:none;stroke-opacity:1"
             id="path12446" />
        </g>
        <g
           id="g12448"
           transform="translate(-96.043,40)">
          <path
             d="M 0,0 H 2111.29"
             style="fill:none;stroke:#71ccd8;stroke-width:0.5;stroke-linecap:butt;stroke-linejoin:miter;stroke-miterlimit:10;stroke-dasharray:none;stroke-opacity:1"
             id="path12450" />
        </g>
        <g
           id="g12452"
           transform="translate(-96.043,538.858)">
          <path
             d="M 0,0 H 2111.29"
             style="fill:none;stroke:#71ccd8;stroke-width:0.5;stroke-linecap:butt;stroke-linejoin:miter;stroke-miterlimit:10;stroke-dasharray:none;stroke-opacity:1"
             id="path12454" />
        </g>
        <g
           id="g12456"
           transform="translate(80,1126.2946)">
          <path
             d="M 0,0 V -1198.586"
             style="fill:none;stroke:#71ccd8;stroke-width:0.5;stroke-linecap:butt;stroke-linejoin:miter;stroke-miterlimit:10;stroke-dasharray:none;stroke-opacity:1"
             id="path12458" />
        </g>
        <g
           id="g12460"
           transform="translate(39.602,1126.2946)">
          <path
             d="M 0,0 V -1198.586"
             style="fill:none;stroke:#71ccd8;stroke-width:0.5;stroke-linecap:butt;stroke-linejoin:miter;stroke-miterlimit:10;stroke-dasharray:none;stroke-opacity:1"
             id="path12462" />
        </g>
        <g
           id="g12464"
           transform="translate(960,1126.2946)">
          <path
             d="M 0,0 V -1198.586"
             style="fill:none;stroke:#71ccd8;stroke-width:0.5;stroke-linecap:butt;stroke-linejoin:miter;stroke-miterlimit:10;stroke-dasharray:none;stroke-opacity:1"
             id="path12466" />
        </g>
        <g
           id="g12468"
           transform="translate(1840,1126.2946)">
          <path
             d="M 0,0 V -1198.586"
             style="fill:none;stroke:#71ccd8;stroke-width:0.5;stroke-linecap:butt;stroke-linejoin:miter;stroke-miterlimit:10;stroke-dasharray:none;stroke-opacity:1"
             id="path12470" />
        </g>
        <g
           id="g12472"
           transform="translate(1880,1126.2946)">
          <path
             d="M 0,0 V -1198.586"
             style="fill:none;stroke:#71ccd8;stroke-width:0.5;stroke-linecap:butt;stroke-linejoin:miter;stroke-miterlimit:10;stroke-dasharray:none;stroke-opacity:1"
             id="path12474" />
        </g>
      </g>
    </g>
  </g>
</svg>
