<?xml version="1.0" encoding="UTF-8" standalone="no"?>
<!-- Created with Inkscape (http://www.inkscape.org/) -->

<svg
   version="1.1"
   id="svg2"
   width="2560"
   height="1440"
   viewBox="0 0 2560 1440"
   sodipodi:docname="REVELÔ_ELEMENTOS DE MARCA.ai"
   xmlns:inkscape="http://www.inkscape.org/namespaces/inkscape"
   xmlns:sodipodi="http://sodipodi.sourceforge.net/DTD/sodipodi-0.dtd"
   xmlns="http://www.w3.org/2000/svg"
   xmlns:svg="http://www.w3.org/2000/svg">
  <defs
     id="defs6">
    <clipPath
       clipPathUnits="userSpaceOnUse"
       id="clipPath1420">
      <path
         d="M 0,1080 H 1920 V 0 H 0 Z"
         id="path1418" />
    </clipPath>
  </defs>
  <sodipodi:namedview
     id="namedview4"
     pagecolor="#ffffff"
     bordercolor="#000000"
     borderopacity="0.25"
     inkscape:showpageshadow="2"
     inkscape:pageopacity="0.0"
     inkscape:pagecheckerboard="0"
     inkscape:deskcolor="#d1d1d1"
     showgrid="false" />
  <g
     id="g10"
     inkscape:groupmode="layer"
     inkscape:label="Page 1"
     transform="matrix(1.3333333,0,0,-1.3333333,0,1440)">
    <g
       id="g22707"
       inkscape:label="revelo-logo">
      <g
         id="g22688">
        <g
           id="g1414"
           transform="translate(0.44311525,-0.44311525)">
          <g
             id="g1416"
             clip-path="url(#clipPath1420)">
            <g
               id="g1422"
               transform="translate(659.2905,576.7142)">
              <path
                 d="m 0,0 c -3.782,-4.529 -6.902,-9.823 -9.38,-15.865 h -0.617 l -0.209,80.377 h 23.915 c 13.048,0 19.577,-6.729 19.577,-20.194 0,-5.086 -1.478,-9.658 -4.434,-13.71 C 25.897,26.558 21.263,21.576 14.943,15.665 8.763,9.754 3.782,4.538 0,0 m 72.24,-101.605 c -4.399,12.501 -7.563,23.767 -9.484,33.799 L 52.454,-12.162 C 51.081,-4.877 47.812,0.617 42.666,4.329 37.511,8.041 31.565,9.893 24.836,9.893 20.299,9.893 15.63,8.867 10.823,6.807 v 0.408 c 2.19,1.921 4.738,3.877 7.624,5.877 2.886,1.991 6.007,4.016 9.379,6.076 3.365,2.061 5.46,3.304 6.286,3.712 5.772,3.156 10.266,5.877 13.5,8.137 3.225,2.269 5.903,4.877 8.032,7.833 2.13,2.955 3.2,6.354 3.2,10.205 0,6.729 -2.478,11.606 -7.424,14.631 -4.947,3.025 -10.51,4.538 -16.691,4.538 H -40.91 v -0.409 c 1.513,-4.677 2.538,-10.24 3.086,-16.699 0.548,-6.459 0.826,-14.7 0.826,-24.732 v -93.573 c 0,-10.032 -0.278,-18.273 -0.826,-24.732 -0.548,-6.459 -1.573,-12.022 -3.086,-16.691 v -0.417 h 34.833 v 0.417 c -2.616,8.789 -3.92,22.594 -3.92,41.423 v 28.235 c 0.278,8.52 1.677,15.978 4.225,22.368 2.538,6.389 5.598,11.257 9.171,14.63 3.573,3.364 7.076,5.051 10.51,5.051 3.164,0 5.981,-1.339 8.45,-4.016 2.477,-2.687 4.19,-6.633 5.155,-11.858 l 16.282,-96.25 h 30.713 v 0.417 c -0.279,0.817 -1.035,3.156 -2.269,7.007"
                 style="fill:#000000;fill-opacity:1;fill-rule:nonzero;stroke:none"
                 id="path1424" />
            </g>
            <g
               id="g1426"
               transform="translate(836.0233,644.9373)">
              <path
                 d="m 0,0 v -18.962 c -4.259,3.021 -9.86,5.7 -16.796,8.038 -6.942,2.335 -13.913,4.123 -20.921,5.359 -7.007,1.237 -12.572,1.855 -16.695,1.855 h -5.977 v -30.091 c 0,-8.657 2.232,-15.081 6.699,-19.271 4.463,-4.193 10.167,-6.905 17.108,-8.141 6.936,-1.237 15.766,-1.855 26.484,-1.855 v -21.023 c -6.735,4.257 -18.275,10.991 -34.626,20.198 -3.024,0 -5.635,-1.133 -7.833,-3.4 -2.199,-2.268 -4.055,-7.594 -5.564,-15.974 -1.513,-8.382 -2.268,-21.161 -2.268,-38.335 v -51.939 h 5.977 c 4.123,0 9.688,0.618 16.695,1.855 7.008,1.237 13.979,3.021 20.921,5.359 6.936,2.335 12.537,5.014 16.796,8.038 v -18.962 h -91.304 v 0.412 c 1.511,4.67 2.541,10.235 3.092,16.695 0.547,6.457 0.824,14.701 0.824,24.733 v 9.687 c 0,12.366 1.716,23.083 5.153,32.152 3.432,9.069 7.864,16.212 13.293,21.435 5.426,5.22 11.095,8.792 17.004,10.718 -11.541,4.122 -20.337,9.616 -26.381,16.488 -6.048,6.869 -9.069,14.221 -9.069,22.053 v -2.267 c 0,6.045 -0.277,11.027 -0.824,14.943 -0.551,3.916 -1.581,7.246 -3.092,9.996 V 0 Z"
                 style="fill:#ec2e31;fill-opacity:1;fill-rule:nonzero;stroke:none"
                 id="path1428" />
            </g>
            <g
               id="g1430"
               transform="translate(954.5343,644.9373)">
              <path
                 d="m 0,0 -45.138,-177.251 h -21.228 v 0.412 c 0.686,2.335 1.03,4.602 1.03,6.802 0,3.021 -0.38,6.286 -1.133,9.79 -0.758,3.504 -1.958,8.07 -3.607,13.706 -1.927,7.42 -2.817,10.717 -2.68,9.893 l -24.114,96.045 c -2.061,8.106 -5.359,17.654 -9.893,28.649 -0.55,1.372 -1.307,3.227 -2.267,5.565 -0.962,2.335 -1.649,4.328 -2.061,5.977 V 0 h 34.831 v -0.412 c -0.688,-2.338 -1.029,-4.605 -1.029,-6.802 0,-2.612 0.273,-5.326 0.824,-8.141 0.548,-2.818 1.201,-5.668 1.957,-8.553 0.753,-2.886 1.27,-4.812 1.547,-5.771 l 2.885,-10.924 28.03,-112.945 25.145,100.579 c 2.609,9.754 3.916,19.442 3.916,29.061 0,10.579 -1.926,18.549 -5.77,23.908 z"
                 style="fill:#000000;fill-opacity:1;fill-rule:nonzero;stroke:none"
                 id="path1432" />
            </g>
            <g
               id="g1434"
               transform="translate(1058.4097,644.9373)">
              <path
                 d="m 0,0 v -18.962 c -4.259,3.021 -9.86,5.7 -16.796,8.038 -6.942,2.335 -13.913,4.123 -20.92,5.359 -7.008,1.237 -12.572,1.855 -16.696,1.855 h -5.977 v -30.091 c 0,-8.657 2.232,-15.081 6.698,-19.271 4.464,-4.193 10.168,-6.905 17.109,-8.141 6.936,-1.237 15.765,-1.855 26.484,-1.855 v -21.023 c -6.735,4.257 -18.275,10.991 -34.626,20.198 -3.024,0 -5.635,-1.133 -7.832,-3.4 -2.2,-2.268 -4.056,-7.594 -5.564,-15.974 -1.515,-8.382 -2.269,-21.161 -2.269,-38.335 v -51.939 h 5.977 c 4.124,0 9.688,0.618 16.696,1.855 7.007,1.237 13.978,3.021 20.92,5.359 6.936,2.335 12.537,5.014 16.796,8.038 v -18.962 h -91.304 v 0.412 c 1.511,4.67 2.542,10.235 3.091,16.695 0.548,6.457 0.824,14.701 0.824,24.733 v 9.687 c 0,12.366 1.717,23.083 5.153,32.152 3.435,9.069 7.864,16.212 13.294,21.435 5.426,5.22 11.095,8.792 17.003,10.718 -11.54,4.122 -20.337,9.616 -26.38,16.488 -6.048,6.869 -9.07,14.221 -9.07,22.053 v -2.267 c 0,6.045 -0.276,11.027 -0.824,14.943 -0.549,3.916 -1.58,7.246 -3.091,9.996 V 0 Z"
                 style="fill:#000000;fill-opacity:1;fill-rule:nonzero;stroke:none"
                 id="path1436" />
            </g>
            <g
               id="g1438"
               transform="translate(1074.074,467.6865)">
              <path
                 d="m 0,0 v 0.412 c 1.511,4.67 2.542,10.235 3.091,16.695 0.548,6.457 0.824,14.701 0.824,24.733 v 93.571 c 0,10.029 -0.276,18.273 -0.824,24.733 -0.549,6.457 -1.58,12.022 -3.091,16.695 v 0.412 h 34.833 v -0.412 C 32.22,168.043 30.915,154.234 30.915,135.411 V 3.504 h 5.977 c 4.124,0 9.688,0.618 16.696,1.855 7.007,1.236 13.978,3.02 20.92,5.359 6.936,2.334 12.537,5.014 16.796,8.037 V 0 Z"
                 style="fill:#000000;fill-opacity:1;fill-rule:nonzero;stroke:none"
                 id="path1440" />
            </g>
            <g
               id="g1442"
               transform="translate(1294.2998,606.3886)">
              <path
                 d="m 0,0 c -4.877,13.744 -11.927,24.184 -21.124,31.33 -3.392,2.637 -7.023,4.783 -10.883,6.445 -0.598,0.257 -1.289,0.233 -1.863,-0.072 -1.705,-0.906 -3.319,-1.953 -4.828,-3.129 -1.024,-0.799 -1.098,-2.341 -0.162,-3.242 3.778,-3.635 6.98,-8.896 9.59,-15.771 5.564,-14.631 8.346,-36.372 8.346,-65.234 0,-29.4 -2.782,-51.454 -8.346,-66.154 -5.563,-14.709 -13.778,-22.055 -24.627,-22.055 -10.171,0 -18.212,7.485 -24.115,22.463 -5.911,14.979 -8.858,36.894 -8.858,65.746 0,18.969 1.365,34.973 4.12,48.03 2.747,13.048 6.59,22.837 11.536,29.365 0.867,1.143 1.76,2.185 2.679,3.127 0.895,0.919 0.86,2.405 -0.131,3.219 -1.638,1.345 -3.413,2.534 -5.302,3.548 -0.579,0.311 -1.278,0.335 -1.88,0.072 -3.789,-1.65 -7.357,-3.767 -10.718,-6.358 -9.276,-7.146 -16.386,-17.621 -21.333,-31.434 -4.946,-13.805 -7.415,-30.331 -7.415,-49.569 0,-19.368 2.469,-35.998 7.415,-49.872 4.947,-13.883 12.057,-24.428 21.333,-31.634 9.276,-7.216 20.168,-10.823 32.669,-10.823 12.639,0 23.567,3.607 32.773,10.823 9.197,7.206 16.247,17.751 21.124,31.634 4.877,13.874 7.32,30.504 7.32,49.872 C 7.32,-30.296 4.877,-13.735 0,0"
                 style="fill:#000000;fill-opacity:1;fill-rule:nonzero;stroke:none"
                 id="path1444" />
            </g>
            <g
               id="g1446"
               transform="translate(1263.2219,649.1413)">
              <path
                 d="m 0,0 c -2.199,-0.817 -4.303,-1.834 -6.276,-3.034 -2.26,-1.373 -4.364,-2.982 -6.268,-4.807 -3.938,-3.773 -7.033,-8.424 -8.972,-13.666 -0.243,-0.66 -0.825,-0.982 -1.407,-0.982 -0.583,0 -1.166,0.322 -1.409,0.982 -1.878,5.077 -4.833,9.606 -8.606,13.318 -1.965,1.93 -4.156,3.643 -6.52,5.085 -2.008,1.235 -4.138,2.278 -6.381,3.104 -1.312,0.487 -1.312,2.338 0,2.817 9.962,3.685 17.821,11.544 21.507,21.515 0.243,0.652 0.826,0.982 1.409,0.982 0.582,0 1.164,-0.33 1.407,-0.982 C -17.829,14.361 -9.971,6.502 0,2.817 1.304,2.338 1.304,0.487 0,0"
                 style="fill:#ec2e31;fill-opacity:1;fill-rule:nonzero;stroke:none"
                 id="path1448" />
            </g>
          </g>
        </g>
      </g>
    </g>
  </g>
</svg>
