<svg width="82" height="26" viewBox="0 0 82 26" fill="none" xmlns="http://www.w3.org/2000/svg">
<path d="M13.7342 24.1994C13.2009 22.6818 12.8157 21.3156 12.582 20.0976L11.331 13.3424C11.1631 12.4569 10.7681 11.7919 10.1426 11.3409C9.51712 10.8899 8.79618 10.666 7.97977 10.666C7.43001 10.666 6.86378 10.7911 6.27781 11.0413V10.9919C6.54446 10.7582 6.85391 10.5212 7.20286 10.2776C7.55181 10.0373 7.93368 9.79036 8.34188 9.54017C8.75009 9.28998 9.00357 9.13855 9.10562 9.08917C9.80682 8.7073 10.3533 8.37481 10.745 8.10157C11.1368 7.82505 11.4627 7.50902 11.7195 7.15019C11.9795 6.79136 12.1079 6.37987 12.1079 5.9124C12.1079 5.09599 11.8083 4.50344 11.2059 4.13803C10.6068 3.76932 9.92862 3.58826 9.18134 3.58826H0V3.63764C0.184351 4.20387 0.309446 4.88201 0.375286 5.66551C0.441126 6.449 0.474046 7.44976 0.474046 8.66779V20.0251C0.474046 21.2432 0.441126 22.2439 0.375286 23.0274C0.309446 23.8109 0.184351 24.4858 0 25.052V25.1014H4.22691V25.052C3.91088 23.9854 3.74957 22.3098 3.74957 20.0251V16.5982C3.78249 15.5645 3.95367 14.6592 4.26312 13.8823C4.57256 13.1054 4.94127 12.5161 5.37581 12.1079C5.81035 11.6997 6.23501 11.4956 6.6531 11.4956C7.03826 11.4956 7.38063 11.6569 7.6802 11.9828C7.97977 12.3087 8.19045 12.7894 8.30567 13.4214L10.2809 25.1047H14.0107V25.0553C13.9778 24.9565 13.8856 24.6734 13.7342 24.206V24.1994ZM4.9676 11.8643C4.51002 12.4141 4.12815 13.056 3.82858 13.7901H3.75286L3.72652 4.03268H6.63005C8.2135 4.03268 9.00686 4.84909 9.00686 6.48521C9.00686 7.1041 8.82581 7.65716 8.47027 8.15095C8.11145 8.64146 7.54852 9.24718 6.78148 9.96484C6.03091 10.6825 5.42519 11.3145 4.9676 11.8676V11.8643Z" fill="white"/>
<path d="M26.4181 3.58168V5.88278C25.9012 5.51737 25.2198 5.19146 24.3804 4.90835C23.5376 4.62524 22.6916 4.40797 21.8422 4.25654C20.9929 4.10511 20.3148 4.03268 19.8144 4.03268H19.0901V7.68678C19.0901 8.73693 19.3601 9.51713 19.9033 10.0274C20.4464 10.5376 21.1377 10.8668 21.9805 11.015C22.8232 11.1664 23.8931 11.2388 25.1968 11.2388V13.7901C24.3804 13.2733 22.978 12.4569 20.9929 11.3376C20.6242 11.3376 20.3082 11.4759 20.0415 11.7491C19.7749 12.0256 19.5477 12.6708 19.3667 13.6881C19.1823 14.7053 19.0901 16.2558 19.0901 18.3429V24.6471H19.8144C20.3148 24.6471 20.9896 24.5714 21.8422 24.4232C22.6916 24.2718 23.5376 24.0578 24.3804 23.7714C25.2231 23.4883 25.9012 23.1624 26.4181 22.797V25.0981H15.334V25.0487C15.5183 24.4825 15.6434 23.8076 15.7093 23.0208C15.7751 22.2373 15.808 21.2366 15.808 20.0186V18.8433C15.808 17.3422 16.0154 16.0418 16.4335 14.939C16.8516 13.8395 17.3882 12.9704 18.0466 12.3384C18.705 11.7063 19.393 11.2718 20.1107 11.038C18.7083 10.5376 17.6417 9.86937 16.9076 9.0365C16.1734 8.20362 15.808 7.3115 15.808 6.36011V6.63664C15.808 5.90253 15.7751 5.2968 15.7093 4.82276C15.6434 4.34871 15.5183 3.9438 15.334 3.60802V3.58168H26.4181Z" fill="white"/>
<path d="M40.8041 3.58168L35.3263 25.0981H32.7487V25.0487C32.831 24.7656 32.8738 24.4891 32.8738 24.2224C32.8738 23.857 32.8277 23.4587 32.7355 23.034C32.6433 22.6093 32.4985 22.053 32.2977 21.3716C32.0639 20.4696 31.9553 20.0712 31.9718 20.17L29.0452 8.50978C28.795 7.52548 28.3934 6.3667 27.8436 5.03344C27.7778 4.86555 27.6856 4.6417 27.5671 4.35859C27.4519 4.07548 27.3663 3.83187 27.3169 3.63435V3.58497H31.5438V3.63435C31.4615 3.91746 31.4187 4.19399 31.4187 4.46064C31.4187 4.77667 31.4516 5.10587 31.5175 5.44823C31.5833 5.7906 31.6623 6.13626 31.7545 6.48521C31.8467 6.83416 31.9092 7.06789 31.9421 7.1864L32.2911 8.51307L35.695 22.2242L38.7467 10.0142C39.0627 8.8291 39.2207 7.65386 39.2207 6.48521C39.2207 5.20134 38.987 4.23349 38.5195 3.58168H40.7976H40.8041Z" fill="white"/>
<path d="M53.4156 3.58168V5.88278C52.8988 5.51737 52.2174 5.19146 51.3779 4.90835C50.5352 4.62524 49.6891 4.40797 48.8398 4.25654C47.9905 4.10511 47.3123 4.03268 46.8119 4.03268H46.0877V7.68678C46.0877 8.73693 46.3576 9.51713 46.9008 10.0274C47.444 10.5376 48.1353 10.8668 48.9781 11.015C49.8208 11.1664 50.8907 11.2388 52.1943 11.2388V13.7901C51.3779 13.2733 49.9755 12.4569 47.9905 11.3376C47.6218 11.3376 47.3057 11.4759 47.0391 11.7491C46.7724 12.0256 46.5453 12.6708 46.3642 13.6881C46.1799 14.7053 46.0877 16.2558 46.0877 18.3429V24.6471H46.8119C47.3123 24.6471 47.9872 24.5714 48.8398 24.4232C49.6891 24.2718 50.5352 24.0578 51.3779 23.7714C52.2207 23.4883 52.8988 23.1624 53.4156 22.797V25.0981H42.3315V25.0487C42.5159 24.4825 42.641 23.8076 42.7068 23.0208C42.7727 22.2373 42.8056 21.2366 42.8056 20.0186V18.8433C42.8056 17.3422 43.013 16.0418 43.4311 14.939C43.8491 13.8395 44.3857 12.9704 45.0441 12.3384C45.7025 11.7063 46.3906 11.2718 47.1082 11.038C45.7058 10.5376 44.6392 9.86937 43.9051 9.0365C43.171 8.20362 42.8056 7.3115 42.8056 6.36011V6.63664C42.8056 5.90253 42.7727 5.2968 42.7068 4.82276C42.641 4.34871 42.5159 3.9438 42.3315 3.60802V3.58168H53.4156Z" fill="white"/>
<path d="M55.3153 25.0981V25.0487C55.4997 24.4825 55.6247 23.8076 55.6906 23.0208C55.7564 22.2373 55.7893 21.2366 55.7893 20.0186V8.66121C55.7893 7.44318 55.7564 6.44241 55.6906 5.65892C55.6247 4.87543 55.4997 4.20057 55.3153 3.63106V3.58168H59.5422V3.63106C59.2262 4.69766 59.0682 6.37657 59.0682 8.66121V24.6734H59.7924C60.2928 24.6734 60.9676 24.5977 61.8203 24.4496C62.6696 24.2981 63.5156 24.0841 64.3584 23.7977C65.2011 23.5146 65.8793 23.1887 66.3961 22.8233V25.1014H55.312L55.3153 25.0981Z" fill="white"/>
<path d="M81.1113 8.26287C80.5187 6.59384 79.6628 5.32642 78.5468 4.46063C78.1353 4.14131 77.6942 3.88124 77.2267 3.67714C77.1543 3.64751 77.0687 3.64751 76.9996 3.68702C76.7922 3.79565 76.598 3.92404 76.4136 4.06559C76.2885 4.16106 76.2819 4.3487 76.3939 4.46063C76.8515 4.90176 77.2399 5.5404 77.5592 6.37657C78.2341 8.15095 78.5732 10.7911 78.5732 14.2938C78.5732 17.7965 78.2341 20.5387 77.5592 22.3229C76.8844 24.1072 75.8869 24.9993 74.5701 24.9993C73.3356 24.9993 72.3579 24.0907 71.6435 22.2736C70.9259 20.4564 70.5671 17.7965 70.5671 14.2938C70.5671 11.9927 70.7317 10.0471 71.0674 8.46368C71.3999 6.88024 71.8674 5.69183 72.4665 4.89847C72.5719 4.7602 72.6805 4.63182 72.7924 4.51989C72.9044 4.40796 72.8978 4.2269 72.776 4.12814C72.5785 3.96354 72.3612 3.82199 72.1308 3.69689C72.0616 3.66068 71.976 3.65739 71.9036 3.68702C71.4427 3.88783 71.0115 4.1446 70.6033 4.45734C69.4774 5.32313 68.6149 6.59713 68.0125 8.27275C67.4133 9.94837 67.1138 11.9532 67.1138 14.2905C67.1138 16.6278 67.4133 18.659 68.0125 20.3444C68.6116 22.0299 69.4774 23.3105 70.6033 24.1862C71.7291 25.0619 73.0525 25.4997 74.5701 25.4997C76.0877 25.4997 77.4308 25.0619 78.5468 24.1862C79.6628 23.3105 80.5187 22.0299 81.1113 20.3444C81.7038 18.659 82.0001 16.641 82.0001 14.2905C82.0001 11.94 81.7038 9.92862 81.1113 8.25958V8.26287Z" fill="white"/>
<path d="M77.3386 3.07142C77.0719 3.17018 76.8152 3.29527 76.5781 3.44012C76.3049 3.60801 76.0481 3.80224 75.8177 4.0228C75.3404 4.48039 74.9651 5.04661 74.728 5.68196C74.6984 5.76097 74.6293 5.80047 74.5569 5.80047C74.4844 5.80047 74.4153 5.76097 74.3857 5.68196C74.1585 5.06636 73.7997 4.5166 73.3421 4.0656C73.1051 3.83187 72.8384 3.62447 72.552 3.44671C72.3084 3.29527 72.0484 3.17018 71.7784 3.07142C71.6204 3.01216 71.6204 2.78831 71.7784 2.72905C72.9866 2.28134 73.9413 1.32667 74.389 0.118511C74.4186 0.0395038 74.4877 0 74.5602 0C74.6326 0 74.7017 0.0395038 74.7313 0.118511C75.179 1.32996 76.1337 2.28134 77.3419 2.72905C77.4999 2.78831 77.4999 3.01216 77.3419 3.07142H77.3386Z" fill="white"/>
</svg>
